<svg width="166" height="48" viewBox="0 0 166 48" fill="none" xmlns="http://www.w3.org/2000/svg">
<path d="M157.836 16.4168C160.214 16.4168 162.135 17.1721 163.601 18.6829C165.066 20.1696 165.798 22.2558 165.798 24.9415V36.6316H160.754V25.625C160.754 24.0423 160.358 22.8313 159.565 21.992C158.773 21.1288 157.692 20.6971 156.323 20.6971C154.93 20.6971 153.825 21.1288 153.009 21.992C152.216 22.8313 151.82 24.0423 151.82 25.625V36.6316H146.776V16.7045H151.82V19.1864C152.492 18.3232 153.345 17.6517 154.378 17.1721C155.434 16.6686 156.587 16.4168 157.836 16.4168Z" fill="white"/>
<path d="M132.664 36.9553C130.743 36.9553 129.013 36.5357 127.476 35.6964C125.939 34.8331 124.726 33.6221 123.838 32.0635C122.973 30.5048 122.541 28.7063 122.541 26.668C122.541 24.6298 122.985 22.8313 123.874 21.2726C124.786 19.714 126.023 18.515 127.584 17.6757C129.146 16.8124 130.887 16.3808 132.808 16.3808C134.73 16.3808 136.471 16.8124 138.032 17.6757C139.593 18.515 140.818 19.714 141.707 21.2726C142.62 22.8313 143.076 24.6298 143.076 26.668C143.076 28.7063 142.608 30.5048 141.671 32.0635C140.758 33.6221 139.509 34.8331 137.924 35.6964C136.363 36.5357 134.61 36.9553 132.664 36.9553ZM132.664 32.567C133.577 32.567 134.43 32.3512 135.222 31.9196C136.039 31.464 136.687 30.7925 137.168 29.9053C137.648 29.018 137.888 27.939 137.888 26.668C137.888 24.7737 137.384 23.3229 136.375 22.3157C135.39 21.2846 134.177 20.7691 132.736 20.7691C131.295 20.7691 130.082 21.2846 129.098 22.3157C128.137 23.3229 127.656 24.7737 127.656 26.668C127.656 28.5624 128.125 30.0252 129.061 31.0563C130.022 32.0635 131.223 32.567 132.664 32.567Z" fill="white"/>
<path d="M116.332 14.3305C115.444 14.3305 114.699 14.0548 114.099 13.5032C113.522 12.9277 113.234 12.2203 113.234 11.381C113.234 10.5418 113.522 9.84635 114.099 9.29482C114.699 8.71931 115.444 8.43155 116.332 8.43155C117.221 8.43155 117.954 8.71931 118.53 9.29482C119.131 9.84635 119.431 10.5418 119.431 11.381C119.431 12.2203 119.131 12.9277 118.53 13.5032C117.954 14.0548 117.221 14.3305 116.332 14.3305ZM118.818 16.7045V36.6316H113.774V16.7045H118.818Z" fill="white"/>
<path d="M105.679 20.841V30.4808C105.679 31.1522 105.835 31.6438 106.148 31.9555C106.484 32.2433 107.036 32.3872 107.805 32.3872H110.147V36.6316H106.976C102.725 36.6316 100.6 34.5693 100.6 30.4448V20.841H98.2217V16.7045H100.6V11.7767H105.679V16.7045H110.147V20.841H105.679Z" fill="white"/>
<path d="M75.9395 23.179C75.9395 19.0306 76.6841 15.7813 78.1732 13.4313C79.6863 11.0813 82.1842 9.90631 85.6668 9.90631C89.1495 9.90631 91.6353 11.0813 93.1245 13.4313C94.6376 15.7813 95.3942 19.0306 95.3942 23.179C95.3942 27.3515 94.6376 30.6247 93.1245 32.9987C91.6353 35.3727 89.1495 36.5597 85.6668 36.5597C82.1842 36.5597 79.6863 35.3727 78.1732 32.9987C76.6841 30.6247 75.9395 27.3515 75.9395 23.179ZM90.4224 23.179C90.4224 21.4045 90.3023 19.9178 90.0622 18.7188C89.846 17.4959 89.3896 16.5007 88.6931 15.7334C88.0206 14.966 87.0118 14.5823 85.6668 14.5823C84.3218 14.5823 83.3011 14.966 82.6045 15.7334C81.932 16.5007 81.4757 17.4959 81.2355 18.7188C81.0193 19.9178 80.9113 21.4045 80.9113 23.179C80.9113 25.0015 81.0193 26.5362 81.2355 27.7831C81.4517 29.0061 81.908 30.0012 82.6045 30.7686C83.3011 31.5119 84.3218 31.8836 85.6668 31.8836C87.0118 31.8836 88.0326 31.5119 88.7291 30.7686C89.4257 30.0012 89.882 29.0061 90.0982 27.7831C90.3143 26.5362 90.4224 25.0015 90.4224 23.179Z" fill="white"/>
<path d="M57.1429 19.5821C57.7914 18.6708 58.6801 17.9155 59.8089 17.316C60.9618 16.6925 62.2708 16.3808 63.7359 16.3808C65.4412 16.3808 66.9783 16.8004 68.3474 17.6397C69.7404 18.479 70.8332 19.678 71.6258 21.2367C72.4424 22.7714 72.8508 24.5578 72.8508 26.5961C72.8508 28.6344 72.4424 30.4448 71.6258 32.0275C70.8332 33.5862 69.7404 34.7971 68.3474 35.6604C66.9783 36.5237 65.4412 36.9553 63.7359 36.9553C62.2708 36.9553 60.9738 36.6556 59.845 36.0561C58.7401 35.4566 57.8395 34.7012 57.1429 33.79V46.1275H52.0991V16.7045H57.1429V19.5821ZM67.6989 26.5961C67.6989 25.3971 67.4467 24.366 66.9423 23.5027C66.462 22.6155 65.8135 21.9441 64.9968 21.4884C64.2043 21.0328 63.3396 20.805 62.4029 20.805C61.4902 20.805 60.6256 21.0448 59.8089 21.5244C59.0163 21.98 58.3679 22.6515 57.8635 23.5387C57.3831 24.4259 57.1429 25.4691 57.1429 26.668C57.1429 27.867 57.3831 28.9101 57.8635 29.7974C58.3679 30.6846 59.0163 31.368 59.8089 31.8476C60.6256 32.3033 61.4902 32.5311 62.4029 32.5311C63.3396 32.5311 64.2043 32.2913 64.9968 31.8117C65.8135 31.3321 66.462 30.6487 66.9423 29.7614C67.4467 28.8742 67.6989 27.8191 67.6989 26.5961Z" fill="white"/>
<path d="M11.0472 9.20843C11.6079 8.48733 12.3529 8.30616 12.9949 8.7277C13.5429 9.08825 13.872 9.92056 13.2879 10.7278C13.353 10.8013 13.4145 10.8838 13.4922 10.9466C13.5284 10.9753 13.6044 10.9878 13.6496 10.9717C14.1342 10.8085 14.5972 10.8641 15.0511 11.0811C15.1144 11.1116 15.2048 11.0865 15.2826 11.0847C15.2934 11.0847 15.3043 11.0739 15.3151 11.0686C15.6841 10.9304 15.9427 10.7511 15.9391 10.2775C15.9354 9.88289 16.185 9.5331 16.5069 9.29453C16.7257 9.13309 16.7348 8.97524 16.6389 8.74922C16.3116 8.74564 16.0078 8.65236 15.7474 8.43352C15.2989 8.05683 15.1433 7.47206 15.3495 6.92317C15.5448 6.40656 16.0602 6.06036 16.6299 6.06395C16.7094 6.06395 16.8107 6.11956 16.8559 5.98682C16.8957 5.86484 16.903 5.77695 16.7926 5.67291C16.1705 5.07738 16.0675 4.13744 16.534 3.44325C17.0096 2.73292 17.8994 2.46565 18.7023 2.78315C18.7602 2.80647 18.838 2.77777 18.9067 2.77418C18.8995 2.70601 18.9139 2.62888 18.885 2.57328C18.5143 1.88985 18.7439 1.08265 19.4167 0.716724C20.0749 0.35797 20.8887 0.610891 21.254 1.29432C21.3065 1.39118 21.3481 1.4145 21.4602 1.39118C21.7224 1.33916 21.8834 1.22615 22.0027 0.958883C22.2867 0.318507 22.9865 -0.0456284 23.7045 0.00459718C24.4134 0.0548227 25.0264 0.531965 25.2471 1.20284C25.3031 1.37324 25.5129 1.53289 25.6811 1.51316C25.7335 1.50778 25.786 1.44499 25.8258 1.39836C26.4063 0.711342 27.4606 0.747218 27.9778 1.48087C28.2708 1.89702 28.2961 2.34905 28.0935 2.81005C28.0429 2.92306 28.0483 2.98405 28.1315 3.08629C28.2943 3.28361 28.4661 3.3159 28.7193 3.2872C29.4372 3.20648 30.1425 3.64236 30.4536 4.30964C30.7592 4.96437 30.629 5.75722 30.0991 6.26127C29.9418 6.41194 29.9924 6.54648 30.0322 6.69536C30.0412 6.73303 30.1208 6.76711 30.1714 6.77787C30.8731 6.91779 31.3325 7.46309 31.3144 8.14114C31.2963 8.82097 30.7953 9.34476 30.0792 9.44162C30.0159 9.45059 29.9146 9.49543 29.9056 9.53669C29.8767 9.68737 29.7175 9.82728 29.873 9.99948C30.2745 10.4372 30.4029 10.9574 30.2872 11.5314C30.2402 11.7592 30.4391 11.7538 30.5313 11.8507C30.6127 11.9385 30.6814 11.8937 30.7646 11.8381C31.271 11.4901 31.8189 11.4219 32.3976 11.6175C32.5296 11.6623 32.6291 11.6713 32.7141 11.5242C32.4663 11.1242 32.4067 10.6883 32.5893 10.2363C32.7123 9.92952 32.9329 9.7053 33.2295 9.55821C33.7648 9.29274 34.631 9.34476 35.1048 10.2524C35.2586 10.2147 35.4195 10.1896 35.5696 10.1322C35.6275 10.1107 35.6709 10.0246 35.7016 9.96002C35.9928 9.31785 36.4847 8.9286 37.1936 8.86941C37.9242 8.80842 38.4939 9.10798 38.8772 9.73221C38.9514 9.85239 39.0002 9.99051 39.0508 10.125C39.0979 10.2488 39.3366 10.4228 39.4632 10.3977C39.5066 10.3887 39.5427 10.3349 39.5753 10.2955C39.9316 9.86674 40.3855 9.67481 40.937 9.79679C41.4832 9.91876 41.8376 10.2632 41.9642 10.8121C42.0366 11.1242 42.0058 11.4345 41.8467 11.7161C41.7798 11.8363 41.8123 11.8973 41.8919 11.9906C42.0239 12.1484 42.1559 12.1933 42.3693 12.1592C43.147 12.0354 43.8848 12.439 44.2266 13.144C44.5575 13.8274 44.3984 14.6489 43.8197 15.1799C43.7148 15.2768 43.6931 15.3611 43.7202 15.4902C43.7419 15.5925 43.7908 15.6212 43.8884 15.6319C44.5991 15.7144 45.1037 16.2831 45.0946 16.988C45.0856 17.6696 44.5485 18.2311 43.8504 18.2975C43.7672 18.3046 43.6425 18.2454 43.6099 18.3889C43.5756 18.5414 43.4743 18.6742 43.6389 18.8428C44.1959 19.4168 44.2628 20.3029 43.8287 20.9791C43.4001 21.65 42.5574 21.946 41.787 21.7002C41.6441 21.6554 41.3638 21.7738 41.3168 21.9101C41.3023 21.9496 41.3331 22.0106 41.3566 22.0554C41.7635 22.8787 41.3222 23.8061 40.4162 23.9837C39.8827 24.0895 39.4288 23.9173 39.0888 23.485C39.0111 23.3864 38.955 23.2734 38.8827 23.1586C38.7054 23.1675 38.5843 23.216 38.5083 23.4223C38.2823 24.0447 37.8175 24.4124 37.1647 24.5452C37.1249 24.5541 37.0833 24.5649 37.0489 24.5721C36.9856 24.7568 37.0399 24.8358 37.2334 24.886C37.8555 25.0492 38.2696 25.4474 38.474 26.0537C38.521 26.19 38.7796 26.3694 38.9152 26.3407C38.964 26.33 39.0038 26.269 39.0418 26.2241C39.3999 25.8134 39.8502 25.6412 40.3855 25.7631C40.9009 25.8815 41.2427 26.208 41.3892 26.7174C41.4796 27.0349 41.4506 27.347 41.3042 27.643C41.2499 27.7542 41.2535 27.8313 41.353 27.9031C41.3855 27.9282 41.4145 27.9605 41.4398 27.9946C41.5302 28.113 41.6315 28.1506 41.7942 28.1255C42.5791 28.0089 43.2952 28.3892 43.6497 29.0852C43.9879 29.7489 43.8504 30.5489 43.3043 31.1032C43.203 31.2072 43.1705 31.453 43.2591 31.5552C43.288 31.5875 43.3531 31.5947 43.4038 31.6036C44.3315 31.7866 44.8107 32.7534 44.364 33.5642C44.138 33.975 43.7799 34.21 43.3097 34.2566C43.1831 34.2692 43.1307 34.3069 43.0855 34.4288C43.0131 34.6279 43.0385 34.7643 43.1795 34.9383C43.6461 35.5141 43.6624 36.3625 43.25 36.967C42.8269 37.5895 42.0583 37.8926 41.3385 37.6935C41.1504 37.6415 41.0202 37.6594 40.8973 37.8011C40.8593 37.846 40.8068 37.8783 40.7851 37.898C40.8394 38.1545 40.9208 38.3895 40.9298 38.628C40.9533 39.2505 40.5446 39.7796 39.9551 39.9357C39.3456 40.0971 38.738 39.8478 38.4161 39.3097C38.3781 39.2469 38.3076 39.1518 38.2588 39.1554C38.1376 39.1644 38.0164 39.1805 37.9586 39.3491C37.6909 40.1241 36.9965 40.5779 36.1772 40.5384C35.4069 40.5025 34.754 39.9501 34.5551 39.1751C34.5388 39.1106 34.4647 39.055 34.4086 39.0047C34.3797 38.9796 34.3272 38.9832 34.291 38.9617C34.1156 38.8594 34.0071 38.9043 33.8805 39.0693C33.4592 39.6164 32.6562 39.724 32.0793 39.3312C31.5043 38.9402 31.3252 38.1688 31.6688 37.5643C31.7014 37.5069 31.7357 37.4531 31.7773 37.385C31.7068 37.3096 31.6435 37.2271 31.5657 37.1661C31.5241 37.132 31.4464 37.1069 31.3976 37.1213C30.7809 37.2935 30.2329 37.1661 29.7302 36.7858C29.685 36.7518 29.5891 36.7518 29.5294 36.7715C29.269 36.854 29.1587 37.0029 29.1876 37.3096C29.2365 37.8424 28.9978 38.2872 28.5981 38.6388C28.4842 38.7393 28.4371 38.8236 28.4878 38.9725C28.5366 39.1177 28.6469 39.0496 28.7283 39.0586C29.3992 39.1375 29.9128 39.724 29.9056 40.411C29.8984 41.0765 29.3649 41.6577 28.7048 41.7241C28.6325 41.7313 28.5077 41.7707 28.5023 41.8066C28.4806 41.9698 28.3232 42.1205 28.4842 42.3035C28.9941 42.8811 29.0647 43.6937 28.6741 44.3556C28.3015 44.9888 27.5347 45.3278 26.8005 45.1771C26.6866 45.1538 26.6142 45.1861 26.5274 45.2542C26.314 45.421 26.2019 45.5717 26.2833 45.8874C26.4352 46.4722 26.0952 47.0641 25.5473 47.3189C24.9921 47.5772 24.3284 47.439 23.9432 46.9637C23.8455 46.8417 23.7623 46.8399 23.6249 46.8632C23.3934 46.9027 23.2614 47.0211 23.133 47.2166C22.7641 47.7763 22.2179 48.04 21.5452 47.9951C20.8634 47.9503 20.3715 47.5969 20.0677 46.996C20.008 46.8776 19.9429 46.7969 19.8109 46.7771C19.7983 46.7753 19.7874 46.7718 19.7766 46.7664C19.4655 46.6049 19.2105 46.5852 18.885 46.8345C18.4437 47.1718 17.7692 47.0695 17.3569 46.7161C16.9084 46.3305 16.751 45.7421 16.9662 45.204C17.0115 45.091 16.9879 45.0318 16.9192 44.9385C16.7492 44.7125 16.5666 44.6282 16.2591 44.6461C15.5267 44.6892 14.8667 44.2103 14.5972 43.5179C14.335 42.847 14.5231 42.0846 15.0764 41.5878C15.1849 41.4909 15.2265 41.1591 15.1343 41.0568C15.1072 41.0263 15.0493 41.0191 15.0041 41.012C14.2952 40.899 13.7924 40.2801 13.8521 39.5913C13.9154 38.872 14.5104 38.3392 15.2392 38.3482C15.3314 38.3482 15.4237 38.3787 15.4725 38.246C15.5177 38.124 15.4906 38.0558 15.3983 37.9715C15.062 37.663 14.8757 37.2791 14.8359 36.8217C14.8287 36.7428 14.7509 36.6692 14.7039 36.5957C14.6985 36.5867 14.684 36.5831 14.6732 36.576C14.3928 36.3625 14.1252 36.2567 13.7472 36.4235C13.3783 36.5849 12.9642 36.5096 12.5862 36.35C12.4102 36.2758 12.2571 36.3183 12.1269 36.4773C12.6531 37.2773 12.5464 38.072 11.8538 38.5132C11.1359 38.9707 10.3998 38.7339 9.83197 37.8603C9.66017 37.8836 9.5372 37.9321 9.47209 38.1348C9.25689 38.7895 8.60224 39.2595 7.91684 39.2864C7.17719 39.3151 6.50084 38.9168 6.2133 38.2675C6.15543 38.1366 6.08309 38.0612 5.94203 38.0505C5.93118 38.0505 5.91852 38.0433 5.90767 38.0397C5.5912 37.9267 5.32536 37.907 5.00345 38.133C4.56039 38.4433 4.04679 38.3769 3.5983 38.063C3.13353 37.7383 2.96535 37.2791 3.05034 36.7302C3.06843 36.6136 3.0612 36.5329 2.95992 36.4701C2.94907 36.463 2.94184 36.454 2.9328 36.445C2.65972 36.1275 2.33963 35.9499 1.9038 35.8495C0.797035 35.5948 0.285248 34.2566 0.876607 33.2916C0.94171 33.1857 0.959794 33.0943 0.932668 32.9759C0.885649 32.7732 0.867564 32.5633 0.816928 32.3606C0.797035 32.2799 0.740974 32.1848 0.674062 32.1418C0.205677 31.844 -0.0384614 31.4225 0.00494104 30.8772C0.0501519 30.2996 0.370245 29.9049 0.923626 29.7022C0.952561 29.6915 0.997772 29.6897 1.00501 29.6718C1.06649 29.5318 1.12617 29.3883 1.175 29.243C1.22021 29.1085 1.29797 28.9919 1.20574 28.8233C0.67587 27.8475 1.13702 26.6708 2.17506 26.312C2.50239 26.199 2.83876 26.1775 3.17151 26.269C3.34693 26.3174 3.43192 26.199 3.52777 26.1147C3.56213 26.0842 3.53681 25.9658 3.5115 25.8959C3.28906 25.2555 3.60373 24.5272 4.23125 24.2438C4.85335 23.9622 5.6147 24.1936 5.94384 24.7801C6.03245 24.938 6.10841 24.9721 6.28925 24.9452C6.50626 24.9111 6.61658 24.834 6.68891 24.6241C6.80646 24.2797 7.06688 24.0357 7.36527 23.8277C7.42314 23.7882 7.46654 23.7039 7.48101 23.6321C7.55335 23.2823 7.49728 23.0025 7.17357 22.755C6.97284 22.6007 6.87157 22.3065 6.75402 22.0608C6.70338 21.955 6.65094 21.8993 6.54243 21.8527C6.27659 21.7343 6.09756 21.7738 5.88235 21.9962C5.46641 22.4267 4.74666 22.4518 4.24934 22.1146C3.71585 21.7541 3.50426 21.0904 3.75383 20.5002C3.8135 20.3567 3.80085 20.2688 3.6833 20.1845C3.67787 20.1809 3.67425 20.1773 3.67064 20.1719C3.53862 19.9693 3.35778 19.9406 3.12087 19.9531C2.36676 19.9944 1.7971 19.6643 1.45531 19.0024C1.11532 18.3459 1.19127 17.6965 1.65604 17.1225C1.80252 16.9432 1.83146 16.7925 1.78987 16.579C1.75551 16.3997 1.69402 16.3136 1.50956 16.2544C0.932668 16.0678 0.590874 15.5028 0.636085 14.8749C0.677679 14.3153 1.11894 13.8112 1.6904 13.7018C1.85859 13.6695 1.95443 13.6175 1.9906 13.4381C2.01954 13.2928 2.07017 13.1816 1.95262 13.0292C1.50594 12.4552 1.50232 11.6246 1.91284 11.0309C2.3541 10.3941 3.12449 10.1089 3.86233 10.3152C3.9636 10.3439 4.03594 10.3439 4.12455 10.2721C4.22221 10.1932 4.22944 10.1268 4.18423 10.0138C3.91116 9.33579 4.18604 8.6111 4.82984 8.29181C5.46099 7.9797 6.20787 8.20212 6.58583 8.82456C6.64732 8.92681 6.70519 8.93578 6.81731 8.91963C7.094 8.87838 7.26219 8.76357 7.40867 8.4981C7.77036 7.83978 8.37257 7.53305 9.12668 7.61377C9.8808 7.69449 10.3944 8.11961 10.6186 8.83891C10.691 9.0721 10.8103 9.17435 11.04 9.20664L11.0472 9.20843ZM13.9444 20.1702C14.7238 20.1666 15.3513 19.5334 15.3441 18.7603C15.3368 17.9943 14.7039 17.3719 13.9371 17.3719C13.1631 17.3719 12.5247 18.0069 12.5265 18.7764C12.5265 19.5459 13.1667 20.1737 13.9444 20.1702ZM4.36869 32.5812C5.14813 32.5848 5.77746 31.9714 5.78108 31.2018C5.78651 30.4215 5.16079 29.7919 4.37954 29.7901C3.60373 29.7883 2.97077 30.4072 2.96535 31.1713C2.95992 31.9516 3.58202 32.5777 4.36689 32.5795L4.36869 32.5812ZM19.6246 9.01111C20.4077 9.01291 21.0406 8.38868 21.0388 7.61197C21.0388 6.83886 20.4149 6.22001 19.6373 6.21821C18.8579 6.21821 18.2285 6.83168 18.2249 7.59942C18.2213 8.3833 18.8416 9.00932 19.6246 9.01111ZM26.871 40.3859C26.871 39.6146 26.2453 38.9958 25.4695 38.994C24.6865 38.994 24.0571 39.6182 24.0571 40.3967C24.0571 41.1644 24.6865 41.7869 25.4623 41.7869C26.2489 41.7869 26.8729 41.168 26.871 40.3859ZM28.5601 12.5664C29.3396 12.5664 29.9761 11.935 29.9725 11.1654C29.9689 10.4031 29.3359 9.77526 28.5692 9.77167C27.7879 9.76808 27.155 10.3905 27.1514 11.1654C27.1477 11.9385 27.7789 12.5664 28.5601 12.5664ZM6.90231 25.3272C6.90231 26.1022 7.53165 26.7246 8.3147 26.7246C9.08509 26.7246 9.71804 26.1004 9.72347 25.338C9.72889 24.5685 9.09232 23.9335 8.31651 23.9317C7.53526 23.9317 6.90231 24.5541 6.90231 25.3272ZM38.4034 16.6759C38.4034 15.9046 37.7777 15.2839 37.0019 15.2839C36.217 15.2839 35.5859 15.91 35.5895 16.6867C35.5931 17.4544 36.2225 18.0786 36.9929 18.0822C37.7723 18.0858 38.4052 17.4544 38.4034 16.6777V16.6759ZM13.3006 36.1383C14.0764 36.1383 14.7075 35.5212 14.7129 34.7535C14.7184 33.9804 14.0836 33.3454 13.3042 33.3436C12.5302 33.3436 11.899 33.9642 11.8954 34.732C11.8918 35.5141 12.5139 36.1365 13.3006 36.1383ZM22.1601 43.3152C22.1565 44.0901 22.7858 44.7197 23.5652 44.7197C24.3338 44.7197 24.9704 44.0972 24.9758 43.3367C24.9812 42.5618 24.3573 41.9304 23.5779 41.925C22.7966 41.9178 22.1637 42.5403 22.1601 43.3152ZM43.7474 20.032C43.7474 19.2535 43.118 18.6275 42.335 18.6311C41.5592 18.6347 40.9334 19.2571 40.9316 20.0249C40.9316 20.8034 41.5591 21.4258 42.3458 21.424C43.1234 21.4222 43.7455 20.8052 43.7474 20.0338V20.032ZM4.16434 27.9748C4.16434 27.2053 3.53862 26.5847 2.7628 26.5829C1.97794 26.5829 1.3468 27.2035 1.3468 27.982C1.3468 28.748 1.97433 29.3704 2.75195 29.3758C3.53139 29.3812 4.16615 28.7533 4.16434 27.9748ZM14.221 14.0319C14.9969 14.0319 15.6208 13.4094 15.6226 12.6399C15.6226 11.8578 14.9987 11.2372 14.212 11.239C13.4344 11.2408 12.8123 11.856 12.8087 12.6291C12.8032 13.4023 13.438 14.0319 14.221 14.0301V14.0319ZM9.3654 31.4045C9.36901 30.6242 8.73968 29.9946 7.96024 29.9946C7.19166 29.9946 6.55509 30.6207 6.54786 31.383C6.54062 32.1561 7.17538 32.7875 7.95663 32.7875C8.73787 32.7875 9.36178 32.1759 9.36359 31.4027L9.3654 31.4045ZM36.8572 24.2115C37.6385 24.2115 38.2588 23.598 38.2606 22.8231C38.2624 22.0411 37.6385 21.4168 36.8536 21.4186C36.0724 21.4186 35.4376 22.0536 35.4448 22.8267C35.4521 23.5963 36.0796 24.2133 36.8572 24.2115ZM8.45756 20.1648C7.67813 20.1612 7.0506 20.7747 7.04518 21.5442C7.03975 22.3281 7.65824 22.9523 8.4431 22.9559C9.21891 22.9595 9.85187 22.3424 9.8591 21.5765C9.86633 20.7962 9.24242 20.1684 8.45756 20.1648ZM37.3455 19.8867C37.3455 20.6581 37.964 21.2787 38.7434 21.2823C39.5301 21.2859 40.163 20.6652 40.163 19.8885C40.163 19.1226 39.5373 18.4966 38.7633 18.4894C37.9839 18.4822 37.3473 19.11 37.3455 19.8867ZM7.81919 28.1811C7.81557 27.4116 7.18985 26.791 6.41403 26.7892C5.6346 26.7874 4.9926 27.4206 4.99622 28.1919C4.99984 28.9507 5.64002 29.5857 6.40499 29.5892C7.18081 29.5928 7.82099 28.956 7.81738 28.1829L7.81919 28.1811ZM21.6646 47.6417C22.453 47.6417 23.0751 47.0265 23.0733 46.2426C23.0733 45.4713 22.4476 44.8506 21.6718 44.8506C20.8887 44.8506 20.2558 45.4785 20.2576 46.2534C20.2594 47.0229 20.8869 47.6399 21.6646 47.6417ZM26.8638 6.70433C26.088 6.70791 25.4641 7.32856 25.4623 8.09988C25.4605 8.8712 26.1025 9.50799 26.8783 9.50261C27.6595 9.49722 28.2834 8.86403 28.278 8.08553C28.2726 7.316 27.6414 6.70074 26.8656 6.70433H26.8638ZM9.22796 37.5392C9.22976 36.7589 8.60405 36.1365 7.81738 36.1383C7.03975 36.1401 6.41403 36.7589 6.41042 37.5285C6.4068 38.298 7.03071 38.9222 7.80653 38.9276C8.59681 38.933 9.22615 38.3177 9.22796 37.5392ZM34.8896 38.7859C34.8896 39.5662 35.5136 40.1868 36.302 40.185C37.0779 40.1832 37.7036 39.5608 37.7036 38.7931C37.7036 38.0235 37.0779 37.3957 36.3075 37.3921C35.5226 37.3886 34.8896 38.0092 34.8896 38.7877V38.7859ZM11.758 18.6419C11.7616 17.8705 11.1431 17.2445 10.3673 17.2373C9.58422 17.2302 8.94222 17.8544 8.94042 18.6257C8.9368 19.3952 9.56071 20.0231 10.3329 20.0284C11.125 20.0338 11.7543 19.4222 11.758 18.6419ZM18.2249 41.3008C19.0007 41.3008 19.6283 40.6837 19.6337 39.9124C19.6391 39.1411 19.0007 38.5007 18.2267 38.5007C17.4509 38.5007 16.8143 39.1375 16.818 39.9106C16.8216 40.6801 17.4491 41.299 18.2249 41.299V41.3008ZM29.8278 29.2215C29.8224 30.0018 30.4499 30.6332 31.2294 30.635C31.9998 30.6368 32.6345 30.0126 32.6418 29.2466C32.649 28.4717 32.0178 27.8385 31.2366 27.8367C30.459 27.8367 29.8315 28.452 29.8278 29.2215ZM43.467 29.8547C43.4634 29.0852 42.8341 28.461 42.0637 28.4592C41.2861 28.4592 40.6477 29.096 40.6531 29.8673C40.6567 30.6368 41.2825 31.2557 42.0601 31.2574C42.8449 31.2574 43.4725 30.6332 43.4689 29.8529L43.467 29.8547ZM39.6006 35.8674C39.6042 35.0889 38.9803 34.4647 38.1973 34.4647C37.4142 34.4647 36.7849 35.0854 36.7831 35.8603C36.7831 36.6298 37.4196 37.2594 38.1973 37.2576C38.9695 37.2558 39.597 36.6334 39.5988 35.8674H39.6006ZM22.1619 1.75352C22.1619 2.52305 22.7822 3.14728 23.5562 3.15446C24.3392 3.15984 24.9776 2.53381 24.9776 1.7607C24.9776 0.99117 24.3537 0.366939 23.5797 0.363351C22.7876 0.359764 22.1619 0.973233 22.1601 1.75352H22.1619ZM38.1955 26.5811C38.1936 25.8098 37.5697 25.1909 36.7921 25.1891C36.0109 25.1873 35.3707 25.8187 35.3743 26.5883C35.3779 27.3614 36.0181 27.9856 36.7994 27.982C37.5734 27.9766 38.1973 27.3506 38.1955 26.5829V26.5811ZM24.625 7.83081C24.6268 7.0577 24.0047 6.43347 23.2325 6.42988C22.4404 6.42809 21.8129 7.04155 21.8092 7.82005C21.8056 8.59675 22.4368 9.22278 23.2216 9.22099C23.9993 9.22099 24.6232 8.60213 24.625 7.83081ZM24.4857 13.9673C24.4857 13.1978 23.8636 12.5717 23.0914 12.5664C22.312 12.561 21.6682 13.187 21.6664 13.9583C21.6628 14.7279 22.3047 15.3629 23.0824 15.3593C23.8582 15.3575 24.4857 14.735 24.4875 13.9673H24.4857ZM23.218 40.1097C23.2144 39.3384 22.5887 38.7177 21.8147 38.7195C21.0316 38.7195 20.3987 39.3491 20.4041 40.1223C20.4095 40.9007 21.0406 41.516 21.8273 41.5106C22.6031 41.5053 23.2216 40.8828 23.218 40.1097ZM34.4683 34.2584C33.6816 34.2584 33.0523 34.8844 33.0595 35.6612C33.0667 36.4307 33.6943 37.0495 34.4683 37.0513C35.2423 37.0513 35.8716 36.4307 35.8752 35.6629C35.8789 34.8809 35.2568 34.2602 34.4683 34.2602V34.2584ZM2.41197 32.7929C1.6253 32.7929 0.995963 33.4171 0.99958 34.1921C1.0032 34.9598 1.63253 35.584 2.40473 35.5858C3.18598 35.5858 3.81893 34.958 3.81531 34.1813C3.8135 33.4082 3.1914 32.7911 2.41197 32.7911V32.7929ZM4.44826 18.2149C4.44826 17.4472 3.82074 16.823 3.04673 16.8194C2.26368 16.8158 1.62892 17.4436 1.63072 18.2185C1.63253 18.9863 2.26187 19.6123 3.03226 19.6159C3.80989 19.6195 4.44826 18.9881 4.44826 18.2149ZM8.94042 7.96714C8.16279 7.97073 7.53526 8.58958 7.53345 9.35731C7.53165 10.1286 8.17183 10.76 8.95307 10.7565C9.73251 10.7529 10.3546 10.134 10.3564 9.36449C10.3582 8.58599 9.72889 7.96355 8.94222 7.96714H8.94042ZM13.0239 31.6754C13.0239 30.9005 12.4054 30.2852 11.6259 30.2834C10.8375 30.2816 10.2117 30.8987 10.2117 31.6808C10.2117 32.4467 10.8411 33.0763 11.6115 33.0781C12.3945 33.0799 13.0239 32.4557 13.0239 31.6772V31.6754ZM10.8447 15.7126C10.8447 16.4822 11.4722 17.1046 12.2462 17.1064C13.0239 17.1082 13.664 16.4732 13.6604 15.7019C13.6568 14.9341 13.0293 14.3117 12.2553 14.3099C11.4704 14.3081 10.8447 14.9306 10.8447 15.7108V15.7126ZM27.4461 38.7231C28.2201 38.7177 28.8477 38.0935 28.8477 37.3258C28.8477 36.5544 28.2075 35.923 27.428 35.9266C26.6468 35.9302 26.0265 36.5616 26.0319 37.3437C26.0374 38.1132 26.6685 38.7267 27.4461 38.7231ZM10.568 13.8202C11.3474 13.8184 11.9659 13.2014 11.9677 12.4282C11.9677 11.6497 11.3384 11.0255 10.5535 11.0309C9.7741 11.0363 9.15381 11.6533 9.152 12.4247C9.152 13.2032 9.77953 13.822 10.5662 13.8202H10.568ZM35.9422 10.6147C35.9422 11.3807 36.5679 12.0085 37.3401 12.0157C38.1141 12.0229 38.7561 11.3861 38.7561 10.613C38.7561 9.84163 38.134 9.22099 37.3563 9.2174C36.5733 9.21381 35.9422 9.83625 35.9422 10.6165V10.6147ZM18.0133 5.79847C18.7946 5.79847 19.4167 5.18859 19.4221 4.41548C19.4275 3.63519 18.8018 3.01454 18.0133 3.01454C17.2339 3.01454 16.6064 3.62981 16.6028 4.39754C16.5973 5.17065 17.2285 5.79668 18.0151 5.79668L18.0133 5.79847ZM38.6837 32.9328C38.6837 33.7077 39.3022 34.323 40.0817 34.3266C40.8647 34.3302 41.5013 33.7024 41.4995 32.9292C41.4959 32.1597 40.8701 31.5373 40.0961 31.5355C39.3076 31.5355 38.6819 32.1507 38.6837 32.9328ZM24.9686 12.4265C25.748 12.4282 26.3755 11.8166 26.3846 11.0452C26.3954 10.2775 25.757 9.63893 24.9758 9.63714C24.1909 9.63355 23.5616 10.2596 23.5634 11.0381C23.5634 11.8076 24.1891 12.4247 24.9686 12.4265ZM6.4068 15.2122C6.4068 14.4391 5.7847 13.8202 5.00888 13.8202C4.22402 13.8202 3.5983 14.4426 3.60011 15.2229C3.60373 15.9961 4.22402 16.6149 5.00165 16.6167C5.78651 16.6167 6.40861 15.9961 6.40861 15.214L6.4068 15.2122ZM7.04879 13.6157C7.82461 13.6121 8.44852 12.9915 8.45214 12.222C8.45395 11.4488 7.81557 10.8156 7.03794 10.8192C6.25489 10.8228 5.63098 11.4524 5.63641 12.2327C5.64183 13.0023 6.27117 13.6175 7.04879 13.6157ZM5.99628 33.0028C5.20419 33.0028 4.5839 33.6145 4.5839 34.3983C4.5839 35.1697 5.20419 35.7903 5.98182 35.7939C6.76668 35.7975 7.39782 35.175 7.39601 34.3965C7.39601 33.6252 6.7721 33.0046 5.99628 33.0046V33.0028ZM17.6571 42.9008C17.6553 42.1187 17.0295 41.5035 16.2411 41.507C15.4671 41.5106 14.8504 42.1313 14.8504 42.908C14.8504 43.6919 15.4725 44.3035 16.2664 44.2999C17.0422 44.2964 17.6607 43.6757 17.6589 42.9008H17.6571ZM31.79 11.8704C31.0124 11.8704 30.3885 12.4856 30.3812 13.257C30.374 14.0265 31.0124 14.6633 31.7918 14.6633C32.5658 14.6633 33.1933 14.0408 33.1951 13.2731C33.1969 12.4892 32.5767 11.8704 31.79 11.8704ZM28.5583 43.464C28.5583 42.6856 27.9236 42.0595 27.1441 42.0667C26.3683 42.0721 25.7444 42.6945 25.7444 43.4623C25.7444 44.2318 26.3665 44.8542 27.1423 44.8596C27.929 44.865 28.5601 44.2443 28.5601 43.4658L28.5583 43.464ZM18.0097 36.7051C18.0115 35.9266 17.4003 35.3078 16.6208 35.3024C15.8342 35.297 15.1994 35.9141 15.194 36.689C15.1886 37.4585 15.8287 38.0971 16.6046 38.0971C17.3786 38.0971 18.0061 37.4747 18.0079 36.7051H18.0097ZM30.8858 34.0468C30.0973 34.0468 29.4698 34.6638 29.468 35.4423C29.468 36.2118 30.0919 36.8325 30.8677 36.8379C31.6507 36.8432 32.2855 36.2172 32.2855 35.4405C32.2855 34.6692 31.6598 34.0468 30.8858 34.0468ZM19.8453 41.7187C19.055 41.7151 18.4347 42.3304 18.4329 43.1143C18.4329 43.8856 19.0514 44.5026 19.8326 44.508C20.6157 44.5134 21.2522 43.8856 21.2486 43.1107C21.2468 42.3411 20.6229 41.7223 19.8453 41.7187ZM41.2119 13.8973C41.2119 14.6705 41.8322 15.2857 42.6135 15.2893C43.3965 15.2911 44.0331 14.6615 44.0277 13.8884C44.0222 13.1188 43.3965 12.4982 42.6225 12.4964C41.8358 12.4964 41.2101 13.1171 41.2119 13.8973ZM20.7513 34.0432C20.7513 34.8217 21.3788 35.4477 22.1619 35.4441C22.9377 35.4423 23.5634 34.8217 23.5652 34.0521C23.567 33.2808 22.9467 32.6566 22.1709 32.6512C21.3879 32.644 20.7531 33.2683 20.7513 34.0432ZM9.91878 29.7937C10.6928 29.7973 11.3257 29.1803 11.3348 28.4125C11.3438 27.6412 10.7109 27.0044 9.92963 27.0008C9.14839 26.9972 8.51543 27.6233 8.51724 28.4018C8.51724 29.1713 9.14296 29.7919 9.91878 29.7937ZM34.8933 28.0502C34.112 28.0466 33.4845 28.6565 33.4773 29.426C33.47 30.2081 34.0885 30.8341 34.8752 30.8395C35.6582 30.8449 36.293 30.2189 36.293 29.4439C36.293 28.6726 35.6709 28.0538 34.8933 28.0502ZM35.0289 21.076C35.8047 21.076 36.4304 20.4536 36.434 19.6858C36.4377 18.9145 35.7975 18.2795 35.0198 18.2831C34.244 18.2867 33.6201 18.9073 33.6183 19.6769C33.6183 20.459 34.2404 21.0778 35.0289 21.076ZM41.7816 37.3921C42.561 37.3921 43.1831 36.7751 43.1831 36.002C43.1831 35.2217 42.5556 34.6028 41.7671 34.6064C40.9877 34.61 40.3638 35.2289 40.362 35.9984C40.362 36.7715 40.9949 37.3921 41.7816 37.3903V37.3921ZM21.6591 6.01193C22.4404 6.01552 23.0697 5.40564 23.0751 4.63611C23.0824 3.85403 22.4639 3.22441 21.6826 3.21724C20.9032 3.21006 20.2648 3.83788 20.2612 4.61279C20.2576 5.37873 20.8851 6.00655 21.6591 6.01014V6.01193ZM38.3872 31.0494C39.1467 31.0655 39.7905 30.4538 39.8104 29.6951C39.8321 28.913 39.2245 28.2762 38.4378 28.2565C37.6565 28.2367 37.0073 28.852 36.9947 29.6269C36.982 30.4054 37.5969 31.0332 38.3872 31.0494ZM40.3674 13.6857C40.3674 12.9108 39.7507 12.2865 38.9785 12.283C38.1882 12.2794 37.5643 12.8946 37.5625 13.6767C37.5625 14.4624 38.181 15.0794 38.9695 15.0776C39.7489 15.0776 40.3656 14.4624 40.3674 13.6857ZM1.98518 12.0139C1.98699 12.787 2.60547 13.3987 3.38852 13.4005C4.17519 13.4023 4.80453 12.7798 4.80091 12.0013C4.79729 11.221 4.17157 10.6112 3.37767 10.6165C2.59824 10.6201 1.98337 11.2372 1.98699 12.0139H1.98518ZM20.2757 35.5123C19.4818 35.5105 18.8633 36.1204 18.8633 36.9042C18.8633 37.6809 19.4782 38.298 20.2576 38.3016C21.0461 38.3052 21.67 37.6881 21.67 36.906C21.67 36.1275 21.0569 35.5141 20.2775 35.5123H20.2757ZM42.0601 16.9683C42.0619 16.1826 41.4452 15.5673 40.6549 15.5673C39.8719 15.5673 39.2516 16.1772 39.2462 16.9503C39.2407 17.7306 39.8646 18.3495 40.6549 18.3495C41.4398 18.3495 42.0583 17.7414 42.0601 16.9665V16.9683ZM37.8392 32.6512C37.8392 31.8745 37.2261 31.2592 36.4467 31.2539C35.6582 31.2503 35.0343 31.8655 35.0343 32.6494C35.0343 33.4261 35.651 34.0432 36.4268 34.045C37.2171 34.0468 37.8374 33.4351 37.8392 32.6512ZM13.5827 30C14.3621 30.0018 14.9842 29.3919 14.9932 28.6188C15.0023 27.8403 14.3766 27.2125 13.5899 27.2107C12.805 27.2089 12.1793 27.8296 12.1811 28.6116C12.1811 29.3848 12.8014 29.9982 13.5827 30ZM26.5944 4.82625C26.5944 4.05852 25.9723 3.43428 25.1964 3.42711C24.4188 3.41993 23.7786 4.05134 23.7786 4.82446C23.7786 5.60116 24.408 6.22001 25.1964 6.22001C25.9741 6.22001 26.5944 5.60116 26.5944 4.82625ZM27.4389 5.03074C27.4371 5.80744 28.052 6.42629 28.8296 6.42988C29.6199 6.43347 30.2438 5.82179 30.2456 5.03791C30.2456 4.26121 29.6361 3.64416 28.8567 3.63698C28.0682 3.62981 27.4425 4.24686 27.4407 5.02895L27.4389 5.03074ZM33.4194 17.8687C34.2024 17.8634 34.83 17.232 34.8209 16.4553C34.8119 15.6857 34.1789 15.0687 33.4049 15.0741C32.6219 15.0794 31.9925 15.7126 32.0034 16.4875C32.0142 17.2571 32.6454 17.8741 33.4194 17.8687ZM9.99473 15.431C9.99654 14.6471 9.37806 14.0301 8.58958 14.0301C7.81014 14.0301 7.19166 14.6453 7.18985 15.4203C7.18804 16.2023 7.81195 16.8248 8.59681 16.823C9.37444 16.8212 9.99292 16.2059 9.99473 15.431ZM6.63104 19.8168C7.41048 19.815 8.02896 19.2015 8.03077 18.4266C8.03077 17.6463 7.40506 17.0275 6.61658 17.0311C5.83714 17.0346 5.21504 17.6517 5.21504 18.423C5.21504 19.2015 5.84076 19.8186 6.63104 19.8168ZM9.71443 33.2127C8.92956 33.2127 8.3147 33.8207 8.31108 34.5974C8.30927 35.3813 8.92956 35.9984 9.71985 35.9966C10.4993 35.9966 11.1232 35.3813 11.1268 34.61C11.1322 33.8333 10.5029 33.2109 9.71443 33.2127ZM19.064 10.6112C19.064 9.83625 18.4474 9.22099 17.6679 9.2174C16.8849 9.21381 16.2555 9.83804 16.2573 10.6183C16.2591 11.3897 16.8813 12.0121 17.6553 12.0157C18.4329 12.0211 19.064 11.3914 19.064 10.6112ZM34.2513 32.4395C34.2513 31.6664 33.6328 31.0494 32.8533 31.044C32.0703 31.0404 31.4428 31.6646 31.4428 32.4449C31.4428 33.2198 32.0613 33.8333 32.8425 33.8351C33.6346 33.8369 34.2513 33.2252 34.2513 32.4377V32.4395ZM31.441 20.8625C32.224 20.8625 32.8407 20.258 32.8461 19.4813C32.8515 18.6975 32.2331 18.0804 31.4428 18.0804C30.6579 18.0804 30.0412 18.6867 30.0394 19.4634C30.0358 20.2527 30.6471 20.8626 31.4428 20.8643L31.441 20.8625ZM25.1802 37.1141C25.1802 36.332 24.5707 35.7257 23.784 35.7257C22.9883 35.7257 22.3735 36.332 22.3735 37.1195C22.3735 37.9034 22.9956 38.515 23.7877 38.5097C24.5707 38.5043 25.1802 37.8926 25.1783 37.1141H25.1802ZM19.8435 10.8246C19.8435 11.6013 20.4583 12.2166 21.2378 12.2202C22.0281 12.2238 22.6502 11.6085 22.6483 10.8246C22.6483 10.0479 22.0371 9.43444 21.2559 9.42727C20.4728 9.42009 19.8435 10.0425 19.8435 10.8246ZM35.4448 14.866C36.2315 14.866 36.8482 14.2633 36.8518 13.4866C36.8554 12.6955 36.246 12.0838 35.4521 12.0838C34.6636 12.0838 34.0505 12.683 34.0451 13.4615C34.0397 14.2489 34.6527 14.8642 35.4448 14.866ZM21.0388 1.90061C21.0406 1.35889 20.6012 0.917626 20.0587 0.915832C19.5161 0.914038 19.0676 1.35351 19.0658 1.88985C19.064 2.42977 19.5017 2.86745 20.0478 2.87283C20.5922 2.87822 21.037 2.44054 21.0388 1.90061ZM33.8299 11.7305C34.376 11.7341 34.8173 11.2982 34.8191 10.7547C34.8209 10.2147 34.3779 9.77347 33.8353 9.77167C33.2946 9.77167 32.8461 10.2129 32.8425 10.7475C32.8389 11.282 33.2856 11.7251 33.8299 11.7287V11.7305ZM15.3387 16.6813C15.8848 16.6813 16.3279 16.2472 16.3297 15.7073C16.3315 15.1691 15.892 14.7279 15.3459 14.7243C14.7997 14.7207 14.3585 15.1566 14.3567 15.6983C14.3549 16.2418 14.7907 16.6777 15.3387 16.6795V16.6813ZM40.6513 10.1233C40.1034 10.1233 39.6657 10.5573 39.6675 11.1026C39.6675 11.6426 40.1142 12.0838 40.6549 12.082C41.1975 12.0785 41.6405 11.6372 41.6405 11.0991C41.6405 10.5609 41.1957 10.1233 40.6513 10.1233ZM30.8098 32.2279C30.8098 31.6826 30.3704 31.2521 29.8224 31.2539C29.2745 31.2557 28.8386 31.6933 28.8404 32.2351C28.8422 32.775 29.2871 33.2127 29.8296 33.2109C30.374 33.2091 30.8116 32.7696 30.8098 32.2279ZM30.3848 15.2821C29.8387 15.2821 29.401 15.7216 29.4029 16.2633C29.4029 16.805 29.8459 17.2391 30.3921 17.2373C30.9382 17.2355 31.3795 16.7961 31.3759 16.2561C31.3722 15.7162 30.9292 15.2803 30.3848 15.2821ZM4.78825 26.4448C5.33801 26.4483 5.77746 26.0178 5.78108 25.4761C5.7847 24.9326 5.34887 24.4949 4.80272 24.4913C4.25657 24.4878 3.8135 24.9183 3.80808 25.4618C3.80265 26.0035 4.23849 26.4412 4.78644 26.4466L4.78825 26.4448ZM26.4551 34.5329C26.4551 33.9929 26.003 33.5499 25.4605 33.5553C24.9125 33.5589 24.4749 34.0001 24.4803 34.5454C24.4857 35.0818 24.9234 35.5123 25.4623 35.5123C26.0084 35.5123 26.4551 35.0728 26.4533 34.5329H26.4551ZM26.3719 14.796C26.9235 14.7978 27.3666 14.3673 27.3702 13.8256C27.372 13.2857 26.9271 12.8444 26.3828 12.8444C25.8348 12.8444 25.3936 13.2821 25.3972 13.8256C25.399 14.3691 25.8276 14.7924 26.3737 14.796H26.3719ZM12.5989 25.8134C12.5971 25.2663 12.1576 24.834 11.6079 24.8375C11.0617 24.8411 10.6277 25.2824 10.6313 25.8295C10.6349 26.364 11.0726 26.7945 11.6133 26.7963C12.1649 26.7963 12.5989 26.3622 12.5971 25.8151L12.5989 25.8134ZM15.2012 40.6765C15.7401 40.6765 16.1922 40.2299 16.1904 39.6935C16.1904 39.159 15.7528 38.7249 15.2139 38.7159C14.6695 38.7088 14.2192 39.1464 14.2174 39.6882C14.2156 40.2281 14.6587 40.6747 15.2012 40.6765ZM32.4302 22.2581C32.4302 22.807 32.866 23.2393 33.4158 23.2393C33.9583 23.2393 34.3923 22.8106 34.3959 22.2725C34.4014 21.7218 33.9692 21.2859 33.4194 21.2841C32.8678 21.2823 32.4302 21.711 32.4302 22.2581ZM44.7348 16.9521C44.7311 16.4122 44.2826 15.9745 43.7401 15.9817C43.1922 15.9889 42.7581 16.4284 42.7636 16.9701C42.769 17.5136 43.2103 17.9441 43.7582 17.9387C44.3044 17.9333 44.7402 17.4939 44.7366 16.9521H44.7348ZM32.8425 39.211C33.3886 39.2146 33.8299 38.7823 33.8353 38.2406C33.8389 37.6953 33.4085 37.2594 32.8588 37.2558C32.3126 37.2522 31.8659 37.6863 31.8623 38.2262C31.8587 38.7626 32.3018 39.2092 32.8425 39.2128V39.211ZM25.8891 2.24322C25.8891 2.78853 26.3267 3.22262 26.8765 3.22262C27.4172 3.22262 27.853 2.79212 27.8584 2.25398C27.8639 1.71406 27.4226 1.26741 26.8783 1.26562C26.3303 1.26562 25.8891 1.69971 25.8891 2.24322ZM30.9527 8.11064C30.9545 7.56534 30.5223 7.13124 29.9743 7.12766C29.4227 7.12227 28.9887 7.54919 28.9869 8.09809C28.9851 8.64698 29.4137 9.08107 29.9617 9.08286C30.506 9.08466 30.9509 8.64877 30.9527 8.11064ZM0.364819 30.9722C0.363011 31.5122 0.800652 31.9498 1.3468 31.9534C1.89295 31.957 2.3342 31.5247 2.33601 30.9812C2.33782 30.4395 1.89837 29.9982 1.35403 29.9964C0.813311 29.9964 0.364819 30.4359 0.363011 30.9722H0.364819ZM6.41042 9.49543C6.41042 8.94295 5.97639 8.51603 5.4212 8.52141C4.87686 8.5268 4.44646 8.95551 4.44465 9.49184C4.44284 10.0354 4.8841 10.4766 5.42844 10.4784C5.97277 10.4784 6.41222 10.0407 6.41042 9.49543ZM20.6157 13.4005C20.6139 12.857 20.169 12.4193 19.6246 12.4229C19.0821 12.4265 18.6427 12.8731 18.6481 13.4148C18.6517 13.9494 19.0893 14.3799 19.6319 14.3799C20.1835 14.3799 20.6193 13.9458 20.6175 13.3987L20.6157 13.4005ZM11.125 36.4145C10.5807 36.4145 10.134 36.8594 10.1376 37.3975C10.1412 37.9339 10.5752 38.3644 11.116 38.3697C11.6639 38.3751 12.1088 37.941 12.1106 37.3957C12.1106 36.8522 11.6712 36.4127 11.125 36.4127V36.4145ZM18.6517 33.2127C18.1019 33.2127 17.6607 33.6432 17.6571 34.1813C17.6553 34.7158 18.1001 35.1589 18.6427 35.1625C19.1888 35.1661 19.6301 34.732 19.6337 34.1903C19.6373 33.645 19.2033 33.2145 18.6517 33.2127ZM5.35791 36.9742C5.35791 36.4325 4.91484 35.9912 4.37412 35.993C3.8334 35.993 3.39033 36.4361 3.38852 36.976C3.38852 37.5159 3.82978 37.9536 4.37412 37.9536C4.92388 37.9536 5.35791 37.5213 5.3561 36.9742H5.35791ZM25.9632 46.1081C25.9632 45.5663 25.5165 45.1305 24.9686 45.1323C24.426 45.1358 23.9938 45.5646 23.9902 46.1027C23.9866 46.6462 24.426 47.0875 24.974 47.0893C25.5183 47.0893 25.9632 46.6462 25.9632 46.1063V46.1081ZM11.2679 9.83087C11.2606 10.3851 11.682 10.8156 12.239 10.8192C12.7851 10.8228 13.2282 10.4013 13.2354 9.86854C13.2427 9.32144 12.8123 8.87479 12.2697 8.86761C11.7164 8.86044 11.2769 9.28197 11.2697 9.83087H11.2679ZM43.1994 31.9534C42.6496 31.9463 42.2084 32.3714 42.1993 32.9149C42.1921 33.4602 42.6225 33.8997 43.1705 33.9051C43.7184 33.9104 44.1651 33.4817 44.1723 32.9436C44.1796 32.4037 43.7437 31.9606 43.1976 31.9534H43.1994ZM40.1685 23.6555C40.7146 23.6519 41.1523 23.2124 41.1504 22.6725C41.1486 22.1307 40.7074 21.7002 40.1576 21.702C39.6078 21.702 39.1738 22.1379 39.1774 22.6832C39.1811 23.2285 39.6205 23.659 40.1685 23.6555ZM32.2873 26.7192C32.2873 27.2627 32.7231 27.6986 33.2693 27.7004C33.819 27.7004 34.2531 27.2735 34.2531 26.7246C34.2531 26.1757 33.8245 25.7452 33.2747 25.7452C32.7249 25.7452 32.2891 26.1757 32.2873 26.721V26.7192ZM28.5674 41.3653C29.1171 41.3635 29.5511 40.9277 29.5493 40.3841C29.5457 39.8424 29.1045 39.4083 28.5583 39.4119C28.0104 39.4137 27.5763 39.8496 27.5781 40.3949C27.58 40.9402 28.0158 41.3671 28.5692 41.3653H28.5674ZM40.5844 38.6388C40.5808 38.0953 40.1341 37.6594 39.588 37.6684C39.0436 37.6773 38.6168 38.1078 38.6168 38.646C38.6168 39.1895 39.0617 39.6326 39.6042 39.629C40.1486 39.6254 40.5862 39.1823 40.5844 38.6388ZM39.1105 27.069C39.1105 27.6161 39.55 28.0538 40.0961 28.052C40.6387 28.0502 41.0817 27.6053 41.0799 27.0654C41.0781 26.5309 40.6423 26.1004 40.0997 26.095C39.5464 26.0896 39.1105 26.5201 39.1105 27.069ZM5.99086 21.0132C5.99628 20.4679 5.55864 20.0284 5.01069 20.0267C4.46454 20.0267 4.01786 20.4643 4.01786 21.0043C4.01786 21.5406 4.46816 21.9855 5.01069 21.9837C5.5496 21.9819 5.98543 21.5496 5.99086 21.0132ZM11.758 20.4482C11.2046 20.4482 10.7706 20.8787 10.7724 21.4258C10.7724 21.9675 11.1992 22.3926 11.7453 22.3962C12.3023 22.3998 12.7381 21.9747 12.7399 21.4276C12.7399 20.8805 12.3077 20.4482 11.758 20.4482ZM17.5883 7.4039C17.5883 6.85142 17.1579 6.42629 16.6009 6.42988C16.0548 6.43167 15.6172 6.87115 15.6208 7.41645C15.6244 7.951 16.0584 8.37791 16.6028 8.3815C17.1597 8.3833 17.5884 7.95817 17.5865 7.40569L17.5883 7.4039ZM14.7184 30.7014C14.1596 30.6978 13.7291 31.1193 13.7273 31.67C13.7255 32.2171 14.1596 32.6512 14.7111 32.6512C15.2519 32.6512 15.6913 32.2225 15.6949 31.688C15.6985 31.1355 15.2736 30.705 14.7202 30.7014H14.7184ZM17.2429 45.674C17.2357 46.2229 17.6643 46.6641 18.2123 46.6695C18.7638 46.6749 19.2051 46.2462 19.2087 45.7009C19.2123 45.1556 18.7964 44.7287 18.2484 44.7197C17.6878 44.7107 17.2502 45.1251 17.2429 45.674ZM2.96897 14.9987C2.96535 14.4552 2.52228 14.0247 1.97252 14.0301C1.4318 14.0355 0.99958 14.4696 0.99958 15.0059C0.99958 15.5476 1.44265 15.9853 1.98879 15.9835C2.53675 15.9835 2.97258 15.544 2.96897 14.9969V14.9987Z" fill="white"/>
</svg>
