<svg xmlns="http://www.w3.org/2000/svg" width="261" height="113" viewBox="0 0 261 113" fill="none" class="order-1 h-24 md:h-auto md:order-2"><path d="M51.2211 1.03165V15.3451C51.2211 15.6375 50.9917 15.8714 50.705 15.8714H20.0832C17.4071 15.8714 15.2408 18.0805 15.2408 20.8093V52.2886C15.2408 52.581 15.0114 52.8149 14.7247 52.8149H0.516097C0.229377 52.8149 0 52.581 0 52.2886V35.2463C0 32.8488 0.936621 30.5423 2.5996 28.8465L27.7673 3.18875C29.4239 1.49945 31.6731 0.544355 34.0242 0.537857L50.6986 0.505371C50.9853 0.505371 51.2211 0.739273 51.2211 1.03165Z" fill="#FD8B0E"></path><path d="M58.5229 1.03165V15.3451C58.5229 15.6375 58.7523 15.8714 59.039 15.8714H89.6544C92.3305 15.8714 94.4968 18.0805 94.4968 20.8093V52.2886C94.4968 52.581 94.7262 52.8149 95.0129 52.8149H109.215C109.502 52.8149 109.731 52.581 109.731 52.2886V35.2463C109.731 32.8488 108.795 30.5423 107.132 28.8465L81.9766 3.18875C80.32 1.49945 78.0709 0.544355 75.7198 0.537857L59.0454 0.505371C58.7586 0.505371 58.5229 0.739273 58.5229 1.03165Z" fill="#081224"></path><path d="M51.2211 111.973V97.6591C51.2211 97.3667 50.9917 97.1328 50.705 97.1328H20.0832C17.4071 97.1328 15.2408 94.9237 15.2408 92.1949V60.7156C15.2408 60.4232 15.0114 60.1893 14.7247 60.1893H0.516097C0.229377 60.1893 0 60.4232 0 60.7156V77.758C0 80.1554 0.936621 82.462 2.5996 84.1578L27.7673 109.822C29.4303 111.518 31.6795 112.466 34.0242 112.473L50.705 112.505C50.9917 112.505 51.2274 112.271 51.2274 111.979L51.2211 111.973Z" fill="#081224"></path><path d="M58.5229 111.973V97.6591C58.5229 97.3667 58.7523 97.1328 59.039 97.1328H89.6544C92.3305 97.1328 94.4968 94.9237 94.4968 92.1949V60.7156C94.4968 60.4232 94.7262 60.1893 95.0129 60.1893H109.215C109.502 60.1893 109.731 60.4232 109.731 60.7156V77.758C109.731 80.1554 108.795 82.462 107.132 84.1578L81.9639 109.822C80.3009 111.518 78.0518 112.466 75.707 112.473L59.0262 112.505C58.7395 112.505 58.5038 112.271 58.5038 111.979L58.5229 111.973Z" fill="#009A08"></path><path d="M127.016 59.7556C126.75 59.7556 126.501 59.6543 126.269 59.4517C126.069 59.249 125.97 58.9957 125.97 58.6917C125.97 58.5567 126.003 58.4047 126.069 58.2358L138.074 25.5594C138.174 25.2217 138.357 24.9346 138.622 24.6982C138.921 24.428 139.32 24.2929 139.818 24.2929H145.248C145.746 24.2929 146.128 24.428 146.393 24.6982C146.659 24.9346 146.858 25.2217 146.991 25.5594L158.996 58.2358C159.029 58.4047 159.046 58.5567 159.046 58.6917C159.046 58.9957 158.946 59.249 158.747 59.4517C158.548 59.6543 158.315 59.7556 158.05 59.7556H153.716C153.251 59.7556 152.902 59.6543 152.67 59.4517C152.471 59.2152 152.338 58.9957 152.271 58.7931L149.93 52.6124H135.135L132.794 58.7931C132.728 58.9957 132.578 59.2152 132.346 59.4517C132.147 59.6543 131.815 59.7556 131.35 59.7556H127.016ZM136.879 46.7864H148.187L142.508 31.1321L136.879 46.7864Z" fill="#081224"></path><path d="M164.892 59.7556C164.56 59.7556 164.278 59.6374 164.045 59.401C163.813 59.1646 163.697 58.8775 163.697 58.5398V25.5594C163.697 25.1879 163.813 24.8839 164.045 24.6475C164.278 24.4111 164.56 24.2929 164.892 24.2929H168.728C169.193 24.2929 169.525 24.4111 169.724 24.6475C169.957 24.8502 170.106 25.0021 170.172 25.1035L184.519 47.7996V25.5594C184.519 25.1879 184.618 24.8839 184.818 24.6475C185.05 24.4111 185.349 24.2929 185.714 24.2929H189.899C190.264 24.2929 190.563 24.4111 190.795 24.6475C191.028 24.8839 191.144 25.1879 191.144 25.5594V58.4891C191.144 58.8606 191.028 59.1646 190.795 59.401C190.563 59.6374 190.281 59.7556 189.948 59.7556H186.063C185.598 59.7556 185.266 59.6374 185.067 59.401C184.867 59.1646 184.718 59.0126 184.618 58.9451L170.322 36.7555V58.5398C170.322 58.8775 170.206 59.1646 169.973 59.401C169.741 59.6374 169.442 59.7556 169.077 59.7556H164.892Z" fill="#081224"></path><path d="M212.316 60.2622C209.361 60.2622 206.82 59.7725 204.695 58.7931C202.57 57.7799 200.909 56.2431 199.714 54.1829C198.518 52.0889 197.87 49.4883 197.771 46.3811C197.738 44.9288 197.721 43.4934 197.721 42.0749C197.721 40.6564 197.738 39.2041 197.771 37.7181C197.87 34.6446 198.535 32.0778 199.763 30.0176C200.992 27.9574 202.669 26.4038 204.795 25.3568C206.953 24.3098 209.46 23.7863 212.316 23.7863C215.172 23.7863 217.68 24.3098 219.838 25.3568C221.997 26.4038 223.691 27.9574 224.919 30.0176C226.148 32.0778 226.812 34.6446 226.912 37.7181C226.978 39.2041 227.011 40.6564 227.011 42.0749C227.011 43.4934 226.978 44.9288 226.912 46.3811C226.812 49.4883 226.165 52.0889 224.969 54.1829C223.774 56.2431 222.097 57.7799 219.938 58.7931C217.813 59.7725 215.272 60.2622 212.316 60.2622ZM212.316 54.4362C214.475 54.4362 216.235 53.7945 217.597 52.5111C218.958 51.1939 219.689 49.0661 219.788 46.1278C219.855 44.6417 219.888 43.2739 219.888 42.0243C219.888 40.7408 219.855 39.373 219.788 37.9207C219.722 35.9618 219.357 34.3744 218.693 33.1586C218.062 31.9089 217.198 31.0139 216.102 30.4735C215.006 29.8994 213.744 29.6123 212.316 29.6123C210.922 29.6123 209.676 29.8994 208.58 30.4735C207.485 31.0139 206.604 31.9089 205.94 33.1586C205.309 34.3744 204.961 35.9618 204.894 37.9207C204.861 39.373 204.844 40.7408 204.844 42.0243C204.844 43.2739 204.861 44.6417 204.894 46.1278C204.994 49.0661 205.724 51.1939 207.086 52.5111C208.448 53.7945 210.191 54.4362 212.316 54.4362Z" fill="#081224"></path><path d="M234.748 59.7556C234.416 59.7556 234.134 59.6374 233.901 59.401C233.669 59.1646 233.553 58.8775 233.553 58.5398V25.5594C233.553 25.1879 233.669 24.8839 233.901 24.6475C234.134 24.4111 234.416 24.2929 234.748 24.2929H238.584C239.049 24.2929 239.381 24.4111 239.58 24.6475C239.813 24.8502 239.962 25.0021 240.028 25.1035L254.375 47.7996V25.5594C254.375 25.1879 254.474 24.8839 254.674 24.6475C254.906 24.4111 255.205 24.2929 255.57 24.2929H259.755C260.12 24.2929 260.419 24.4111 260.651 24.6475C260.884 24.8839 261 25.1879 261 25.5594V58.4891C261 58.8606 260.884 59.1646 260.651 59.401C260.419 59.6374 260.137 59.7556 259.805 59.7556H255.919C255.454 59.7556 255.122 59.6374 254.923 59.401C254.723 59.1646 254.574 59.0126 254.474 58.9451L240.178 36.7555V58.5398C240.178 58.8775 240.062 59.1646 239.829 59.401C239.597 59.6374 239.298 59.7556 238.933 59.7556H234.748Z" fill="#081224"></path><path d="M126.428 88.9566C126.273 88.9566 126.139 88.8978 126.023 88.7804C125.908 88.6629 125.85 88.5258 125.85 88.3692C125.85 88.2713 125.86 88.1636 125.879 88.0461L133.041 69.043C133.118 68.8472 133.224 68.6905 133.359 68.5731C133.493 68.4556 133.696 68.3968 133.965 68.3968H135.929C136.199 68.3968 136.401 68.4556 136.535 68.5731C136.67 68.6905 136.776 68.8472 136.853 69.043L143.986 88.0461C144.025 88.1636 144.044 88.2713 144.044 88.3692C144.044 88.5258 143.986 88.6629 143.871 88.7804C143.755 88.8978 143.621 88.9566 143.467 88.9566H141.994C141.763 88.9566 141.589 88.8978 141.474 88.7804C141.378 88.6629 141.31 88.5552 141.272 88.4573L139.683 84.2866H130.211L128.622 88.4573C128.603 88.5552 128.536 88.6629 128.42 88.7804C128.305 88.8978 128.131 88.9566 127.9 88.9566H126.428ZM131.048 81.7607H138.846L134.947 71.3339L131.048 81.7607Z" fill="#081224"></path><path d="M145.775 88.9566C145.621 88.9566 145.486 88.8978 145.37 88.7804C145.255 88.6629 145.197 88.5258 145.197 88.3692C145.197 88.2713 145.207 88.1636 145.226 88.0461L152.388 69.043C152.465 68.8472 152.571 68.6905 152.706 68.5731C152.841 68.4556 153.043 68.3968 153.312 68.3968H155.276C155.546 68.3968 155.748 68.4556 155.883 68.5731C156.017 68.6905 156.123 68.8472 156.2 69.043L163.334 88.0461C163.372 88.1636 163.391 88.2713 163.391 88.3692C163.391 88.5258 163.334 88.6629 163.218 88.7804C163.103 88.8978 162.968 88.9566 162.814 88.9566H161.341C161.11 88.9566 160.937 88.8978 160.821 88.7804C160.725 88.6629 160.657 88.5552 160.619 88.4573L159.031 84.2866H149.558L147.97 88.4573C147.95 88.5552 147.883 88.6629 147.767 88.7804C147.652 88.8978 147.479 88.9566 147.248 88.9566H145.775ZM150.396 81.7607H158.193L154.294 71.3339L150.396 81.7607Z" fill="#081224"></path><path d="M167.144 88.9566C166.932 88.9566 166.768 88.8978 166.653 88.7804C166.537 88.6433 166.479 88.4769 166.479 88.2811V69.1017C166.479 68.8863 166.537 68.7199 166.653 68.6024C166.768 68.4654 166.932 68.3968 167.144 68.3968H173.699C175.682 68.3968 177.28 68.7003 178.493 69.3073C179.706 69.9143 180.592 70.815 181.15 72.0095C181.709 73.1843 181.997 74.6333 182.017 76.3564C182.036 77.2375 182.046 78.011 182.046 78.6767C182.046 79.3425 182.036 80.1061 182.017 80.9677C181.978 82.7691 181.68 84.267 181.121 85.4614C180.582 86.6363 179.716 87.5174 178.522 88.1048C177.348 88.6727 175.788 88.9566 173.844 88.9566H167.144ZM169.31 86.4601H173.699C175.028 86.4601 176.087 86.274 176.876 85.902C177.665 85.53 178.233 84.9327 178.58 84.1104C178.946 83.288 179.138 82.2012 179.158 80.8502C179.196 80.2627 179.215 79.7536 179.215 79.3229C179.215 78.8725 179.215 78.432 179.215 78.0012C179.215 77.5508 179.196 77.0417 179.158 76.4739C179.119 74.5746 178.676 73.1745 177.829 72.2738C176.982 71.3535 175.557 70.8934 173.555 70.8934H169.31V86.4601Z" fill="#081224"></path><path d="M187.055 88.9566C186.843 88.9566 186.679 88.8978 186.564 88.7804C186.448 88.6433 186.391 88.4769 186.391 88.2811V69.1017C186.391 68.8863 186.448 68.7199 186.564 68.6024C186.679 68.4654 186.843 68.3968 187.055 68.3968H188.528C188.74 68.3968 188.903 68.4654 189.019 68.6024C189.153 68.7199 189.221 68.8863 189.221 69.1017V77.2082H199.156V69.1017C199.156 68.8863 199.213 68.7199 199.329 68.6024C199.464 68.4654 199.627 68.3968 199.82 68.3968H201.293C201.504 68.3968 201.668 68.4654 201.784 68.6024C201.918 68.7199 201.986 68.8863 201.986 69.1017V88.2811C201.986 88.4769 201.918 88.6433 201.784 88.7804C201.668 88.8978 201.504 88.9566 201.293 88.9566H199.82C199.627 88.9566 199.464 88.8978 199.329 88.7804C199.213 88.6433 199.156 88.4769 199.156 88.2811V79.8515H189.221V88.2811C189.221 88.4769 189.153 88.6433 189.019 88.7804C188.903 88.8978 188.74 88.9566 188.528 88.9566H187.055Z" fill="#081224"></path><path d="M205.65 88.9566C205.496 88.9566 205.361 88.8978 205.245 88.7804C205.13 88.6629 205.072 88.5258 205.072 88.3692C205.072 88.2713 205.082 88.1636 205.101 88.0461L212.263 69.043C212.34 68.8472 212.446 68.6905 212.581 68.5731C212.716 68.4556 212.918 68.3968 213.187 68.3968H215.151C215.421 68.3968 215.623 68.4556 215.758 68.5731C215.892 68.6905 215.998 68.8472 216.075 69.043L223.209 88.0461C223.247 88.1636 223.266 88.2713 223.266 88.3692C223.266 88.5258 223.209 88.6629 223.093 88.7804C222.978 88.8978 222.843 88.9566 222.689 88.9566H221.216C220.985 88.9566 220.812 88.8978 220.696 88.7804C220.6 88.6629 220.532 88.5552 220.494 88.4573L218.906 84.2866H209.433L207.845 88.4573C207.825 88.5552 207.758 88.6629 207.642 88.7804C207.527 88.8978 207.354 88.9566 207.123 88.9566H205.65ZM210.27 81.7607H218.068L214.169 71.3339L210.27 81.7607Z" fill="#081224"></path><path d="M224.997 88.9566C224.843 88.9566 224.708 88.8978 224.593 88.7804C224.477 88.6629 224.419 88.5258 224.419 88.3692C224.419 88.2713 224.429 88.1636 224.448 88.0461L231.61 69.043C231.687 68.8472 231.793 68.6905 231.928 68.5731C232.063 68.4556 232.265 68.3968 232.535 68.3968H234.498C234.768 68.3968 234.97 68.4556 235.105 68.5731C235.24 68.6905 235.346 68.8472 235.423 69.043L242.556 88.0461C242.594 88.1636 242.614 88.2713 242.614 88.3692C242.614 88.5258 242.556 88.6629 242.44 88.7804C242.325 88.8978 242.19 88.9566 242.036 88.9566H240.563C240.332 88.9566 240.159 88.8978 240.043 88.7804C239.947 88.6629 239.88 88.5552 239.841 88.4573L238.253 84.2866H228.78L227.192 88.4573C227.173 88.5552 227.105 88.6629 226.99 88.7804C226.874 88.8978 226.701 88.9566 226.47 88.9566H224.997ZM229.618 81.7607H237.415L233.516 71.3339L229.618 81.7607Z" fill="#081224"></path><path d="M246.366 88.9566C246.154 88.9566 245.99 88.8978 245.875 88.7804C245.759 88.6433 245.702 88.4769 245.702 88.2811V69.1017C245.702 68.8863 245.759 68.7199 245.875 68.6024C245.99 68.4654 246.154 68.3968 246.366 68.3968H253.412C255.588 68.3968 257.311 68.9157 258.582 69.9535C259.853 70.9913 260.488 72.5284 260.488 74.5648C260.488 76.0725 260.113 77.3061 259.362 78.2655C258.63 79.2054 257.629 79.8613 256.358 80.2334L260.806 88.0461C260.863 88.1636 260.892 88.2713 260.892 88.3692C260.892 88.5258 260.825 88.6629 260.69 88.7804C260.575 88.8978 260.44 88.9566 260.286 88.9566H258.9C258.572 88.9566 258.332 88.8685 258.178 88.6923C258.024 88.516 257.889 88.3398 257.773 88.1636L253.586 80.7033H248.532V88.2811C248.532 88.4769 248.464 88.6433 248.33 88.7804C248.214 88.8978 248.05 88.9566 247.839 88.9566H246.366ZM248.532 78.2068H253.297C254.741 78.2068 255.819 77.9033 256.531 77.2963C257.244 76.6697 257.6 75.7494 257.6 74.5354C257.6 73.341 257.244 72.4305 256.531 71.8039C255.838 71.1773 254.76 70.864 253.297 70.864H248.532V78.2068Z" fill="#081224"></path></svg>