<svg width="241" height="70" viewBox="0 0 241 70" fill="none" xmlns="http://www.w3.org/2000/svg">
<rect x="0.530729" y="0.53073" width="68.9385" height="68.9385" rx="34.4693" stroke="#131313" stroke-width="1.06146" stroke-dasharray="2.12 2.12"/>
<path d="M18.9336 14.3534C19.7169 13.3469 20.7578 13.094 21.6547 13.6824C22.4202 14.1857 22.88 15.3474 22.064 16.4742C22.1549 16.5768 22.2408 16.692 22.3495 16.7796C22.4 16.8197 22.5061 16.8372 22.5693 16.8147C23.2464 16.5868 23.8931 16.6644 24.5273 16.9674C24.6157 17.01 24.742 16.9749 24.8507 16.9724C24.8658 16.9724 24.881 16.9574 24.8962 16.9499C25.4116 16.7571 25.7728 16.5067 25.7678 15.8457C25.7627 15.2949 26.1114 14.8066 26.5611 14.4736C26.8668 14.2483 26.8794 14.0279 26.7455 13.7125C26.2882 13.7075 25.8638 13.5773 25.5 13.2718C24.8734 12.746 24.6561 11.9298 24.9442 11.1636C25.217 10.4425 25.9371 9.95926 26.7329 9.96427C26.8441 9.96427 26.9856 10.0419 27.0487 9.8566C27.1043 9.68635 27.1144 9.56366 26.9603 9.41844C26.0912 8.58717 25.9472 7.27518 26.599 6.30621C27.2635 5.31471 28.5065 4.94164 29.6283 5.38481C29.7091 5.41736 29.8178 5.3773 29.9138 5.37229C29.9037 5.27715 29.9239 5.16948 29.8834 5.09187C29.3655 4.13792 29.6864 3.01121 30.6262 2.50043C31.5459 1.99967 32.6828 2.35271 33.1931 3.30666C33.2664 3.44186 33.3245 3.47441 33.4812 3.44186C33.8475 3.36925 34.0724 3.21151 34.2391 2.83845C34.6358 1.94459 35.6135 1.43632 36.6165 1.50642C37.6069 1.57653 38.4634 2.24254 38.7716 3.17896C38.85 3.41682 39.143 3.63966 39.378 3.61212C39.4513 3.60461 39.5245 3.51698 39.5801 3.45188C40.3911 2.49292 41.8641 2.543 42.5866 3.56705C42.9959 4.14794 43.0313 4.77889 42.7483 5.42237C42.6776 5.58011 42.6852 5.66524 42.8014 5.80796C43.0288 6.08337 43.2688 6.12844 43.6225 6.08838C44.6255 5.97571 45.6108 6.58414 46.0454 7.51555C46.4724 8.42944 46.2905 9.53612 45.5502 10.2397C45.3304 10.45 45.4011 10.6378 45.4567 10.8456C45.4694 10.8982 45.5805 10.9458 45.6513 10.9608C46.6315 11.1561 47.2733 11.9172 47.248 12.8637C47.2227 13.8126 46.5229 14.5437 45.5224 14.6789C45.434 14.6914 45.2925 14.754 45.2799 14.8116C45.2394 15.022 45.0171 15.2172 45.2344 15.4576C45.7953 16.0685 45.9746 16.7946 45.813 17.5959C45.7473 17.9138 46.0252 17.9063 46.154 18.0415C46.2677 18.1642 46.3637 18.1016 46.4799 18.024C47.1874 17.5383 47.9529 17.4431 48.7614 17.716C48.9458 17.7786 49.0848 17.7912 49.2035 17.5858C48.8574 17.0275 48.774 16.4191 49.0292 15.7881C49.201 15.36 49.5092 15.047 49.9236 14.8417C50.6714 14.4711 51.8816 14.5437 52.5435 15.8107C52.7583 15.7581 52.9831 15.723 53.1928 15.6429C53.2737 15.6129 53.3343 15.4927 53.3773 15.4025C53.784 14.5062 54.4712 13.9628 55.4616 13.8802C56.4823 13.7951 57.2782 14.2132 57.8138 15.0845C57.9174 15.2523 57.9856 15.4451 58.0563 15.6329C58.122 15.8056 58.4555 16.0485 58.6324 16.0135C58.693 16.0009 58.7435 15.9258 58.789 15.8707C59.2867 15.2723 59.9209 15.0044 60.6914 15.1747C61.4544 15.3449 61.9496 15.8257 62.1265 16.5918C62.2276 17.0275 62.1846 17.4607 61.9623 17.8538C61.8688 18.0215 61.9143 18.1066 62.0254 18.2368C62.2099 18.4572 62.3943 18.5198 62.6924 18.4722C63.7788 18.2994 64.8096 18.8628 65.2871 19.8468C65.7495 20.8007 65.5271 21.9475 64.7187 22.6886C64.5721 22.8238 64.5418 22.9415 64.5797 23.1218C64.61 23.2645 64.6782 23.3045 64.8147 23.3196C65.8076 23.4347 66.5125 24.2284 66.4998 25.2124C66.4872 26.1639 65.7368 26.9476 64.7616 27.0402C64.6454 27.0502 64.4711 26.9676 64.4256 27.1679C64.3776 27.3807 64.2361 27.566 64.466 27.8014C65.2442 28.6026 65.3377 29.8395 64.7313 30.7834C64.1325 31.7198 62.9552 32.1329 61.8789 31.7899C61.6793 31.7273 61.2877 31.8926 61.222 32.0829C61.2018 32.138 61.2447 32.2231 61.2776 32.2857C61.846 33.4349 61.2296 34.7294 59.9638 34.9773C59.2185 35.125 58.5843 34.8846 58.1094 34.2812C58.0007 34.1435 57.9224 33.9858 57.8213 33.8255C57.5738 33.838 57.4045 33.9056 57.2984 34.1936C56.9826 35.0624 56.3332 35.5757 55.4212 35.761C55.3656 35.7735 55.3075 35.7885 55.2595 35.7985C55.1711 36.0564 55.2469 36.1666 55.5172 36.2367C56.3863 36.4645 56.9649 37.0204 57.2504 37.8667C57.3161 38.0569 57.6773 38.3073 57.8668 38.2673C57.935 38.2522 57.9906 38.1671 58.0437 38.1045C58.5439 37.5311 59.173 37.2908 59.9209 37.461C60.6409 37.6263 61.1184 38.082 61.3231 38.7931C61.4494 39.2362 61.409 39.6719 61.2043 40.085C61.1285 40.2403 61.1336 40.3479 61.2725 40.4481C61.318 40.4831 61.3584 40.5282 61.3938 40.5758C61.5201 40.741 61.6616 40.7936 61.889 40.7585C62.9855 40.5958 63.986 41.1266 64.4812 42.0981C64.9536 43.0245 64.7616 44.1412 63.9986 44.9149C63.8571 45.0601 63.8116 45.4031 63.9354 45.5458C63.9759 45.5909 64.0668 45.6009 64.1376 45.6134C65.4337 45.8688 66.1032 47.2184 65.4791 48.3501C65.1633 48.9234 64.6631 49.2514 64.0062 49.3165C63.8293 49.3341 63.7561 49.3867 63.6929 49.5569C63.5918 49.8348 63.6272 50.0251 63.8243 50.268C64.4761 51.0717 64.4989 52.256 63.9228 53.0998C63.3316 53.9686 62.2579 54.3918 61.2523 54.1138C60.9896 54.0412 60.8077 54.0663 60.6359 54.2641C60.5828 54.3267 60.5095 54.3717 60.4792 54.3993C60.555 54.7573 60.6687 55.0853 60.6813 55.4183C60.7142 56.2871 60.1432 57.0258 59.3196 57.2436C58.4681 57.4689 57.6192 57.1209 57.1695 56.3698C57.1165 56.2821 57.0179 56.1494 56.9497 56.1544C56.7804 56.1669 56.6112 56.1895 56.5303 56.4248C56.1564 57.5065 55.1862 58.1399 54.0417 58.0849C52.9654 58.0348 52.0534 57.2636 51.7755 56.182C51.7527 56.0918 51.6491 56.0142 51.5708 55.9441C51.5304 55.9091 51.4571 55.9141 51.4066 55.884C51.1615 55.7413 51.0099 55.8039 50.8331 56.0342C50.2444 56.7979 49.1226 56.9481 48.3167 56.3998C47.5133 55.854 47.2631 54.7773 47.7432 53.9336C47.7887 53.8534 47.8367 53.7783 47.8948 53.6832C47.7962 53.578 47.7078 53.4628 47.5992 53.3777C47.5411 53.3301 47.4324 53.2951 47.3642 53.3151C46.5027 53.5555 45.7372 53.3777 45.0348 52.8469C44.9716 52.7993 44.8377 52.7993 44.7543 52.8269C44.3905 52.942 44.2364 53.1499 44.2768 53.578C44.3451 54.3216 44.0116 54.9426 43.4532 55.4333C43.294 55.5735 43.2283 55.6912 43.2991 55.899C43.3673 56.1018 43.5214 56.0067 43.6351 56.0192C44.5724 56.1294 45.29 56.9481 45.2799 57.9071C45.2698 58.836 44.5244 59.6472 43.6023 59.7399C43.5012 59.7499 43.3269 59.805 43.3193 59.855C43.289 60.0829 43.0692 60.2932 43.294 60.5486C44.0065 61.3548 44.105 62.489 43.5593 63.4129C43.0389 64.2968 41.9676 64.77 40.9419 64.5597C40.7827 64.5271 40.6816 64.5722 40.5604 64.6674C40.2622 64.9002 40.1056 65.1105 40.2193 65.5512C40.4315 66.3674 39.9565 67.1937 39.191 67.5492C38.4154 67.9098 37.4882 67.717 36.95 67.0535C36.8136 66.8832 36.6974 66.8807 36.5054 66.9133C36.182 66.9684 35.9975 67.1336 35.8182 67.4065C35.3027 68.1877 34.5398 68.5558 33.5999 68.4932C32.6474 68.4306 31.9602 67.9373 31.5358 67.0985C31.4524 66.9333 31.3614 66.8206 31.177 66.7931C31.1593 66.7906 31.1442 66.7856 31.129 66.7781C30.6944 66.5527 30.3382 66.5252 29.8834 66.8732C29.267 67.3439 28.3246 67.2012 27.7485 66.708C27.122 66.1696 26.9022 65.3484 27.2028 64.5972C27.266 64.4395 27.2331 64.3569 27.1371 64.2267C26.8996 63.9112 26.6445 63.7935 26.215 63.8186C25.1917 63.8787 24.2696 63.2101 23.8931 62.2437C23.5268 61.3073 23.7895 60.2431 24.5626 59.5496C24.7142 59.4144 24.7723 58.9512 24.6435 58.8085C24.6056 58.7659 24.5248 58.7559 24.4616 58.7459C23.4712 58.5881 22.7688 57.7243 22.8522 56.7628C22.9406 55.7588 23.7719 55.0152 24.79 55.0277C24.9189 55.0277 25.0477 55.0703 25.1159 54.885C25.1791 54.7147 25.1412 54.6196 25.0124 54.5019C24.5424 54.0713 24.2822 53.5354 24.2266 52.897C24.2165 52.7868 24.1079 52.6842 24.0422 52.5815C24.0346 52.569 24.0144 52.564 23.9992 52.554C23.6076 52.256 23.2337 52.1083 22.7057 52.3411C22.1903 52.5665 21.6117 52.4613 21.0837 52.2385C20.8378 52.135 20.6239 52.1942 20.4419 52.4162C21.1772 53.5329 21.0281 54.6421 20.0604 55.2581C19.0574 55.8965 18.0292 55.566 17.2358 54.3467C16.9958 54.3792 16.824 54.4468 16.7331 54.7298C16.4324 55.6436 15.5178 56.2996 14.5603 56.3372C13.5269 56.3773 12.582 55.8214 12.1803 54.915C12.0995 54.7323 11.9984 54.6271 11.8014 54.6121C11.7862 54.6121 11.7685 54.6021 11.7534 54.5971C11.3112 54.4393 10.9398 54.4118 10.4901 54.7273C9.87112 55.1604 9.1536 55.0678 8.52703 54.6296C7.87772 54.1764 7.64276 53.5354 7.7615 52.7693C7.78677 52.6065 7.77666 52.4939 7.63518 52.4062C7.62002 52.3962 7.60991 52.3837 7.59728 52.3712C7.21578 51.928 6.76859 51.6801 6.15971 51.5399C4.6135 51.1844 3.8985 49.3165 4.72466 47.9695C4.81562 47.8218 4.84088 47.6941 4.80298 47.5288C4.73729 47.2459 4.71203 46.9529 4.64129 46.67C4.6135 46.5573 4.53518 46.4246 4.4417 46.3646C3.78734 45.9489 3.44626 45.3605 3.5069 44.5994C3.57006 43.7931 4.01725 43.2423 4.79035 42.9594C4.83078 42.9444 4.89394 42.9419 4.90404 42.9168C4.98994 42.7215 5.07332 42.5212 5.14153 42.3184C5.2047 42.1306 5.31334 41.9679 5.18448 41.7325C4.44422 40.3704 5.08848 38.728 6.53868 38.2272C6.99598 38.0695 7.4659 38.0394 7.93078 38.1671C8.17585 38.2347 8.29459 38.0695 8.4285 37.9518C8.4765 37.9092 8.44113 37.744 8.40576 37.6463C8.095 36.7524 8.53461 35.7359 9.4113 35.3403C10.2804 34.9472 11.3441 35.2702 11.8039 36.0889C11.9277 36.3093 12.0338 36.3569 12.2864 36.3193C12.5896 36.2717 12.7437 36.1641 12.8448 35.8711C13.009 35.3904 13.3728 35.0499 13.7897 34.7594C13.8706 34.7043 13.9312 34.5867 13.9514 34.4865C14.0525 33.9983 13.9741 33.6077 13.5219 33.2621C13.2415 33.0468 13.1 32.6362 12.9358 32.2932C12.865 32.1455 12.7917 32.0678 12.6402 32.0027C12.2688 31.8375 12.0186 31.8926 11.718 32.203C11.1369 32.804 10.1314 32.839 9.43657 32.3683C8.69125 31.865 8.39565 30.9386 8.74431 30.1149C8.82768 29.9146 8.81 29.7919 8.64578 29.6742C8.6382 29.6692 8.63314 29.6642 8.62809 29.6567C8.44366 29.3737 8.19101 29.3337 7.86004 29.3512C6.80649 29.4088 6.01065 28.9481 5.53314 28.0242C5.05816 27.1078 5.16428 26.2014 5.81358 25.4002C6.01823 25.1498 6.05865 24.9395 6.00054 24.6416C5.95254 24.3912 5.86664 24.271 5.60894 24.1884C4.80299 23.928 4.32548 23.1393 4.38864 22.2629C4.44675 21.4818 5.06322 20.7782 5.86159 20.6255C6.09655 20.5804 6.23045 20.5078 6.28098 20.2574C6.32141 20.0546 6.39215 19.8994 6.22793 19.6865C5.60389 18.8853 5.59883 17.7261 6.17235 16.8973C6.78881 16.0084 7.86509 15.6103 8.8959 15.8983C9.03738 15.9383 9.13844 15.9383 9.26224 15.8382C9.39867 15.728 9.40878 15.6354 9.34562 15.4776C8.96412 14.5312 9.34814 13.5197 10.2476 13.074C11.1293 12.6383 12.1728 12.9488 12.7008 13.8176C12.7867 13.9603 12.8675 13.9729 13.0242 13.9503C13.4107 13.8927 13.6457 13.7325 13.8503 13.3619C14.3556 12.443 15.197 12.0149 16.2505 12.1276C17.3041 12.2402 18.0216 12.8336 18.3349 13.8376C18.4359 14.1631 18.6027 14.3059 18.9235 14.3509L18.9336 14.3534ZM22.9811 29.6542C24.07 29.6492 24.9467 28.7653 24.9366 27.6862C24.9265 26.6171 24.0422 25.7482 22.971 25.7482C21.8896 25.7482 20.9978 26.6346 21.0003 27.7087C21.0003 28.7828 21.8947 29.6592 22.9811 29.6542ZM9.60331 46.978C10.6922 46.983 11.5714 46.1267 11.5765 45.0526C11.5841 43.9634 10.7099 43.0846 9.61847 43.0821C8.53461 43.0796 7.65034 43.9434 7.64276 45.01C7.63518 46.0991 8.50429 46.973 9.60079 46.9755L9.60331 46.978ZM30.9168 14.078C32.0107 14.0805 32.895 13.2092 32.8925 12.125C32.8925 11.0459 32.0208 10.1821 30.9345 10.1796C29.8455 10.1796 28.9663 11.0359 28.9613 12.1075C28.9562 13.2017 29.8228 14.0755 30.9168 14.078ZM41.0404 57.872C41.0404 56.7954 40.1662 55.9316 39.0824 55.9291C37.9884 55.9291 37.1092 56.8004 37.1092 57.8871C37.1092 58.9587 37.9884 59.8275 39.0723 59.8275C40.1713 59.8275 41.0429 58.9637 41.0404 57.872ZM43.4002 19.0406C44.4891 19.0406 45.3784 18.1592 45.3733 17.0851C45.3683 16.021 44.484 15.1446 43.4128 15.1396C42.3213 15.1346 41.4371 16.0034 41.432 17.0851C41.427 18.1642 42.3087 19.0406 43.4002 19.0406ZM13.1429 36.8526C13.1429 37.9342 14.0221 38.8031 15.1161 38.8031C16.1924 38.8031 17.0767 37.9317 17.0842 36.8676C17.0918 35.7935 16.2025 34.9071 15.1186 34.9046C14.0272 34.9046 13.1429 35.7735 13.1429 36.8526ZM57.1518 24.7768C57.1518 23.7001 56.2777 22.8338 55.1938 22.8338C54.0973 22.8338 53.2156 23.7076 53.2206 24.7918C53.2257 25.8634 54.1049 26.7347 55.1812 26.7397C56.2701 26.7448 57.1544 25.8634 57.1518 24.7793L57.1518 24.7768ZM22.0816 51.943C23.1655 51.943 24.0472 51.0817 24.0548 50.0101C24.0624 48.9309 23.1756 48.0446 22.0867 48.0421C21.0054 48.0421 20.1236 48.9084 20.1186 49.98C20.1135 51.0717 20.9826 51.9405 22.0816 51.943ZM34.4589 61.9607C34.4539 63.0424 35.3331 63.9212 36.422 63.9212C37.4957 63.9212 38.3851 63.0524 38.3926 61.9908C38.4002 60.9091 37.5286 60.0278 36.4397 60.0203C35.3482 60.0103 34.464 60.8791 34.4589 61.9607ZM64.6176 29.4614C64.6176 28.3747 63.7384 27.5009 62.6444 27.5059C61.5606 27.5109 60.6864 28.3797 60.6839 29.4514C60.6839 30.538 61.5606 31.4068 62.6596 31.4043C63.746 31.4018 64.6151 30.5405 64.6176 29.4639L64.6176 29.4614ZM9.31782 40.5482C9.31782 39.4741 8.44366 38.6078 7.35979 38.6053C6.2633 38.6053 5.38155 39.4716 5.38155 40.5582C5.38155 41.6274 6.25824 42.4962 7.34463 42.5037C8.43355 42.5112 9.32035 41.6349 9.31782 40.5482ZM23.3676 21.0862C24.4515 21.0862 25.3231 20.2173 25.3257 19.1432C25.3257 18.0515 24.454 17.1852 23.355 17.1877C22.2686 17.1902 21.3995 18.049 21.3944 19.1282C21.3869 20.2073 22.2737 21.0862 23.3676 21.0837L23.3676 21.0862ZM16.584 45.3355C16.5891 44.2463 15.7098 43.3675 14.6209 43.3675C13.5472 43.3675 12.6578 44.2413 12.6477 45.3054C12.6376 46.3846 13.5244 47.2659 14.6159 47.2659C15.7073 47.2659 16.5789 46.4121 16.5815 45.333L16.584 45.3355ZM54.9917 35.2952C56.0831 35.2952 56.9497 34.4389 56.9522 33.3573C56.9548 32.2656 56.0831 31.3943 54.9866 31.3968C53.8952 31.3968 53.0084 32.2832 53.0185 33.3623C53.0286 34.4364 53.9053 35.2977 54.9917 35.2952ZM15.3157 29.6467C14.2268 29.6417 13.3501 30.498 13.3425 31.5721C13.3349 32.6662 14.199 33.5376 15.2955 33.5426C16.3794 33.5476 17.2636 32.6863 17.2737 31.6172C17.2838 30.528 16.4122 29.6517 15.3157 29.6467ZM55.6738 29.2586C55.6738 30.3352 56.5379 31.2015 57.6268 31.2065C58.7258 31.2115 59.6101 30.3452 59.6101 29.2611C59.6101 28.192 58.7359 27.3181 57.6546 27.3081C56.5657 27.2981 55.6764 28.1744 55.6738 29.2586ZM14.4239 40.8362C14.4188 39.762 13.5446 38.8957 12.4608 38.8932C11.3719 38.8907 10.475 39.7745 10.48 40.8512C10.4851 41.9103 11.3794 42.7966 12.4481 42.8016C13.532 42.8067 14.4264 41.9178 14.4213 40.8387L14.4239 40.8362ZM33.7666 67.9999C34.8682 67.9999 35.7373 67.1411 35.7348 66.0469C35.7348 64.9703 34.8606 64.104 33.7768 64.104C32.6828 64.104 31.7985 64.9803 31.801 66.062C31.8036 67.1361 32.6803 67.9974 33.7666 67.9999ZM41.0303 10.8581C39.9465 10.8631 39.0748 11.7294 39.0723 12.8061C39.0698 13.8827 39.9667 14.7716 41.0505 14.7641C42.142 14.7565 43.0136 13.8727 43.006 12.7861C42.9984 11.7119 42.1167 10.8531 41.0328 10.8581L41.0303 10.8581ZM16.392 53.8985C16.3945 52.8093 15.5203 51.9405 14.4213 51.943C13.3349 51.9455 12.4608 52.8093 12.4557 53.8835C12.4507 54.9576 13.3223 55.8289 14.4062 55.8364C15.5102 55.844 16.3895 54.9851 16.392 53.8985ZM52.2429 55.6386C52.2429 56.7278 53.1145 57.5941 54.2161 57.5916C55.2999 57.5891 56.1741 56.7203 56.1741 55.6487C56.1741 54.5745 55.2999 53.6982 54.2236 53.6932C53.1271 53.6882 52.2429 54.5545 52.2429 55.6411L52.2429 55.6386ZM19.9265 27.5209C19.9316 26.4443 19.0675 25.5705 17.9837 25.5605C16.8897 25.5504 15.9928 26.4218 15.9903 27.4984C15.9852 28.5725 16.8569 29.4489 17.9357 29.4564C19.0423 29.4639 19.9215 28.6101 19.9265 27.5209ZM28.9613 59.149C30.0451 59.149 30.9218 58.2877 30.9294 57.211C30.937 56.1344 30.0451 55.2405 28.9638 55.2405C27.8799 55.2405 26.9906 56.1294 26.9957 57.2085C27.0007 58.2827 27.8774 59.1465 28.9613 59.1465L28.9613 59.149ZM45.1712 42.2884C45.1636 43.3775 46.0403 44.2589 47.1292 44.2614C48.2055 44.2639 49.0923 43.3925 49.1024 42.3234C49.1125 41.2418 48.2308 40.3579 47.1394 40.3554C46.053 40.3554 45.1763 41.2142 45.1712 42.2884ZM64.226 43.1722C64.2209 42.0981 63.3417 41.2268 62.2654 41.2243C61.1791 41.2243 60.2872 42.1131 60.2948 43.1897C60.2998 44.2639 61.174 45.1277 62.2604 45.1302C63.3569 45.1302 64.2336 44.2589 64.2285 43.1697L64.226 43.1722ZM58.8244 51.565C58.8294 50.4783 57.9578 49.607 56.8638 49.607C55.7698 49.607 54.8906 50.4733 54.8881 51.5549C54.8881 52.6291 55.7774 53.5079 56.8638 53.5054C57.9426 53.5029 58.8193 52.6341 58.8218 51.565L58.8244 51.565ZM34.4614 3.94763C34.4614 5.02176 35.328 5.89309 36.4094 5.9031C37.5033 5.91061 38.3952 5.03678 38.3952 3.95765C38.3952 2.88351 37.5235 2.01219 36.4422 2.00718C35.3356 2.00218 34.4614 2.85848 34.4589 3.94763L34.4614 3.94763ZM56.8613 38.6028C56.8588 37.5261 55.9871 36.6623 54.9007 36.6598C53.8093 36.6573 52.9149 37.5387 52.92 38.6128C52.925 39.6919 53.8194 40.5632 54.9108 40.5582C55.9922 40.5507 56.8638 39.6769 56.8613 38.6053L56.8613 38.6028ZM37.9025 12.4305C37.905 11.3514 37.0359 10.4801 35.9571 10.475C34.8505 10.4725 33.9738 11.3288 33.9688 12.4155C33.9637 13.4996 34.8455 14.3735 35.942 14.371C37.0284 14.371 37.9 13.5071 37.9025 12.4305ZM37.708 20.996C37.708 19.9219 36.8389 19.0481 35.7601 19.0406C34.6711 19.033 33.7717 19.9069 33.7692 20.9835C33.7641 22.0576 34.661 22.944 35.7474 22.939C36.8313 22.9365 37.708 22.0677 37.7105 20.996L37.708 20.996ZM35.9369 57.4864C35.9318 56.4098 35.0577 55.5435 33.9763 55.546C32.8824 55.546 31.9981 56.4248 32.0057 57.504C32.0133 58.5906 32.895 59.4494 33.994 59.4419C35.0779 59.4344 35.942 58.5656 35.9369 57.4864ZM51.6542 49.319C50.5552 49.319 49.6759 50.1929 49.6861 51.277C49.6962 52.3511 50.5729 53.215 51.6542 53.2175C52.7355 53.2175 53.6147 52.3512 53.6198 51.2795C53.6249 50.1879 52.7557 49.3215 51.6542 49.3215L51.6542 49.319ZM6.86965 47.2734C5.77063 47.2734 4.89141 48.1448 4.89646 49.2264C4.90152 50.298 5.78073 51.1694 6.85954 51.1719C7.95099 51.1719 8.83526 50.2955 8.83021 49.2114C8.82768 48.1322 7.95857 47.2709 6.86965 47.2709L6.86965 47.2734ZM9.71448 26.925C9.71448 25.8534 8.83779 24.9821 7.75645 24.9771C6.66248 24.9721 5.77569 25.8484 5.77821 26.93C5.78074 28.0017 6.65996 28.8755 7.73624 28.8805C8.82263 28.8855 9.71448 28.0042 9.71448 26.925ZM15.9903 12.6208C14.9039 12.6258 14.0272 13.4896 14.0247 14.5612C14.0221 15.6379 14.9165 16.5192 16.008 16.5142C17.0969 16.5092 17.966 15.6454 17.9685 14.5713C17.971 13.4846 17.0918 12.6158 15.9928 12.6208L15.9903 12.6208ZM21.6951 45.7136C21.6951 44.6319 20.831 43.7731 19.7421 43.7706C18.6406 43.7681 17.7664 44.6294 17.7664 45.7211C17.7664 46.7902 18.6456 47.669 19.7219 47.6715C20.8159 47.674 21.6951 46.8027 21.6951 45.7161L21.6951 45.7136ZM18.6507 23.4322C18.6507 24.5064 19.5274 25.3752 20.6087 25.3777C21.6951 25.3802 22.5895 24.4938 22.5844 23.4172C22.5794 22.3456 21.7027 21.4768 20.6213 21.4742C19.5248 21.4717 18.6507 22.3406 18.6507 23.4297L18.6507 23.4322ZM41.8438 55.551C42.9252 55.5435 43.8019 54.6722 43.8019 53.6005C43.8019 52.5239 42.9075 51.6426 41.8186 51.6476C40.7271 51.6526 39.8605 52.5339 39.8681 53.6256C39.8757 54.6997 40.7574 55.556 41.8438 55.551ZM18.2641 20.7907C19.353 20.7882 20.2171 19.9269 20.2196 18.8478C20.2196 17.7611 19.3404 16.8898 18.2439 16.8973C17.155 16.9048 16.2884 17.7661 16.2859 18.8427C16.2859 19.9294 17.1626 20.7932 18.2616 20.7907L18.2641 20.7907ZM53.7133 16.3164C53.7133 17.3855 54.5874 18.2619 55.6663 18.2719C56.7476 18.2819 57.6445 17.3931 57.6445 16.3139C57.6445 15.2373 56.7754 14.371 55.689 14.366C54.595 14.3609 53.7133 15.2298 53.7133 16.3189L53.7133 16.3164ZM28.6657 9.5937C29.7571 9.5937 30.6262 8.74241 30.6338 7.66327C30.6414 6.57412 29.7672 5.7078 28.6657 5.7078C27.5768 5.7078 26.7001 6.56661 26.695 7.63823C26.6874 8.71737 27.5692 9.5912 28.6682 9.5912L28.6657 9.5937ZM57.5434 47.4687C57.5434 48.5504 58.4075 49.4092 59.4964 49.4142C60.5904 49.4192 61.4797 48.5429 61.4772 47.4637C61.4721 46.3896 60.598 45.5208 59.5166 45.5183C58.4151 45.5183 57.5409 46.3771 57.5434 47.4687ZM38.3826 18.8453C39.4715 18.8478 40.3482 17.994 40.3608 16.9173C40.376 15.8457 39.4841 14.9543 38.3927 14.9518C37.2962 14.9468 36.4169 15.8207 36.4195 16.9073C36.4195 17.9814 37.2936 18.8428 38.3826 18.8453ZM12.4507 22.7337C12.4507 21.6545 11.5816 20.7907 10.4977 20.7907C9.4012 20.7907 8.52703 21.6595 8.52956 22.7487C8.53461 23.8278 9.4012 24.6916 10.4876 24.6941C11.5841 24.6941 12.4532 23.8278 12.4532 22.7362L12.4507 22.7337ZM13.3476 20.5053C14.4314 20.5003 15.3031 19.634 15.3081 18.5598C15.3107 17.4807 14.4188 16.5968 13.3324 16.6018C12.2384 16.6069 11.3668 17.4857 11.3744 18.5748C11.382 19.649 12.2612 20.5078 13.3476 20.5053ZM11.8772 47.5664C10.7705 47.5664 9.90396 48.4202 9.90396 49.5143C9.90396 50.591 10.7705 51.4573 11.8569 51.4623C12.9534 51.4673 13.8352 50.5985 13.8327 49.5118C13.8327 48.4352 12.961 47.5689 11.8772 47.5689L11.8772 47.5664ZM28.1679 61.3824C28.1654 60.2907 27.2913 59.4319 26.1897 59.4369C25.1084 59.4419 24.2468 60.3082 24.2468 61.3924C24.2468 62.4865 25.1159 63.3403 26.2251 63.3353C27.3089 63.3303 28.173 62.464 28.1705 61.3824L28.1679 61.3824ZM47.9125 18.0691C46.8261 18.0691 45.9544 18.9279 45.9443 20.0045C45.9342 21.0787 46.8261 21.9675 47.915 21.9675C48.9963 21.9675 49.873 21.0987 49.8755 20.0271C49.8781 18.9329 49.0115 18.0691 47.9125 18.0691ZM43.3976 62.1686C43.3976 61.0819 42.5108 60.2081 41.4219 60.2181C40.338 60.2256 39.4664 61.0944 39.4664 62.1661C39.4664 63.2402 40.3355 64.109 41.4194 64.1165C42.5184 64.124 43.4001 63.2577 43.4001 62.1711L43.3976 62.1686ZM28.6606 52.7342C28.6631 51.6476 27.8092 50.7838 26.7203 50.7763C25.6212 50.7687 24.7345 51.6301 24.7269 52.7117C24.7193 53.7858 25.6137 54.6772 26.6975 54.6772C27.7789 54.6772 28.6556 53.8084 28.6581 52.7342L28.6606 52.7342ZM46.6492 49.0236C45.5477 49.0236 44.671 49.8849 44.6684 50.9716C44.6684 52.0457 45.5401 52.912 46.6239 52.9195C47.7179 52.927 48.6047 52.0532 48.6047 50.9691C48.6047 49.8924 47.7306 49.0236 46.6492 49.0236ZM31.225 59.7324C30.1209 59.7273 29.2543 60.5862 29.2518 61.6803C29.2518 62.7569 30.1159 63.6183 31.2073 63.6258C32.3013 63.6333 33.1906 62.7569 33.1856 61.6753C33.183 60.6012 32.3114 59.7374 31.225 59.7324ZM61.0755 20.8984C61.0755 21.9775 61.9421 22.8363 63.0335 22.8413C64.1275 22.8438 65.0168 21.965 65.0092 20.8859C65.0016 19.8117 64.1275 18.9454 63.0461 18.9429C61.9471 18.9429 61.0729 19.8092 61.0755 20.8984ZM32.4908 49.0186C32.4908 50.1052 33.3675 50.9791 34.4614 50.9741C35.5453 50.9716 36.4195 50.1052 36.422 49.0311C36.4245 47.9545 35.5579 47.0831 34.4741 47.0756C33.3801 47.0656 32.4933 47.9369 32.4908 49.0186ZM17.3571 43.0871C18.4384 43.0921 19.3227 42.2308 19.3353 41.1591C19.348 40.0825 18.4637 39.1937 17.3723 39.1887C16.2808 39.1836 15.3966 40.0575 15.3991 41.1441C15.3991 42.2183 16.2732 43.0846 17.3571 43.0871ZM52.2479 40.6534C51.1565 40.6484 50.2798 41.4997 50.2697 42.5738C50.2596 43.6655 51.1236 44.5393 52.2227 44.5468C53.3166 44.5543 54.2034 43.6805 54.2034 42.5988C54.2034 41.5222 53.3343 40.6584 52.2479 40.6534ZM52.4374 30.9186C53.5213 30.9186 54.3954 30.0498 54.4005 28.9782C54.4055 27.9015 53.5112 27.0152 52.4248 27.0202C51.3409 27.0252 50.4693 27.8915 50.4667 28.9656C50.4667 30.0573 51.3359 30.9211 52.4374 30.9186ZM61.8713 53.6932C62.9602 53.6932 63.8293 52.8319 63.8293 51.7527C63.8293 50.6636 62.9526 49.7998 61.8511 49.8048C60.7622 49.8098 59.8905 50.6736 59.888 51.7477C59.888 52.8269 60.7723 53.6932 61.8713 53.6907L61.8713 53.6932ZM33.7591 9.89166C34.8505 9.89667 35.7297 9.04537 35.7373 7.97124C35.7474 6.87958 34.8834 6.00075 33.7919 5.99073C32.703 5.98072 31.8112 6.85705 31.8061 7.93869C31.801 9.00781 32.6777 9.88415 33.7591 9.88915L33.7591 9.89166ZM57.1291 44.8397C58.1902 44.8623 59.0896 44.0085 59.1174 42.9494C59.1478 41.8577 58.2989 40.9689 57.1998 40.9413C56.1084 40.9138 55.2014 41.7726 55.1837 42.8542C55.166 43.9409 56.025 44.8172 57.1291 44.8397ZM59.8956 20.6029C59.8956 19.5213 59.0341 18.65 57.9553 18.645C56.8512 18.6399 55.9795 19.4988 55.977 20.5904C55.977 21.6871 56.8411 22.5484 57.9426 22.5459C59.0315 22.5459 59.8931 21.6871 59.8956 20.6029ZM6.2734 18.2694C6.27593 19.3485 7.13999 20.2023 8.23396 20.2048C9.33298 20.2073 10.2122 19.3385 10.2071 18.2519C10.2021 17.1627 9.32793 16.3114 8.2188 16.3189C7.12989 16.3239 6.27088 17.1852 6.27593 18.2694L6.2734 18.2694ZM31.8263 51.0692C30.7172 51.0667 29.8531 51.918 29.8531 53.0122C29.8531 54.0963 30.7121 54.9576 31.801 54.9626C32.9026 54.9676 33.7742 54.1063 33.7742 53.0147C33.7742 51.928 32.9177 51.0717 31.8288 51.0692L31.8263 51.0692ZM62.2604 25.1849C62.2629 24.0882 61.4014 23.2294 60.2973 23.2294C59.2033 23.2294 58.3368 24.0807 58.3292 25.1599C58.3216 26.249 59.1932 27.1128 60.2973 27.1128C61.3938 27.1128 62.2579 26.264 62.2604 25.1824L62.2604 25.1849ZM56.3636 47.0756C56.3636 45.9915 55.5071 45.1327 54.4182 45.1252C53.3166 45.1202 52.445 45.979 52.445 47.0731C52.445 48.1573 53.3065 49.0186 54.3904 49.0211C55.4945 49.0236 56.361 48.1698 56.3636 47.0756ZM22.4758 43.375C23.5647 43.3775 24.4338 42.5262 24.4464 41.4471C24.4591 40.3604 23.5849 39.4841 22.4859 39.4816C21.3894 39.4791 20.5152 40.3454 20.5177 41.4371C20.5177 42.5162 21.3843 43.3725 22.4758 43.375ZM40.6539 8.23665C40.6539 7.16502 39.7848 6.29369 38.7009 6.28368C37.6145 6.27366 36.7201 7.155 36.7201 8.23414C36.7201 9.31829 37.5993 10.1821 38.7009 10.1821C39.7873 10.1821 40.6539 9.31829 40.6539 8.23665ZM41.8337 8.52208C41.8312 9.60623 42.6902 10.47 43.7766 10.475C44.8807 10.4801 45.7523 9.62626 45.7548 8.53209C45.7548 7.44795 44.9034 6.58664 43.8145 6.57662C42.713 6.56661 41.8388 7.42792 41.8363 8.51958L41.8337 8.52208ZM50.1888 26.4418C51.2828 26.4343 52.1595 25.5529 52.1469 24.4688C52.1342 23.3947 51.25 22.5334 50.1686 22.5409C49.0746 22.5484 48.1954 23.4322 48.2106 24.5139C48.2257 25.588 49.1075 26.4493 50.1888 26.4418ZM17.4632 23.0391C17.4657 21.945 16.6017 21.0837 15.5001 21.0837C14.4112 21.0837 13.5472 21.9425 13.5446 23.0241C13.5421 24.1158 14.4137 24.9846 15.5102 24.9821C16.5966 24.9796 17.4607 24.1208 17.4632 23.0391ZM12.764 29.1609C13.8529 29.1584 14.7169 28.3021 14.7195 27.2205C14.7195 26.1313 13.8453 25.2675 12.7437 25.2725C11.6548 25.2775 10.7857 26.1388 10.7857 27.2155C10.7857 28.3021 11.6599 29.1634 12.764 29.1609ZM17.0716 47.8593C15.9751 47.8593 15.1161 48.7081 15.1111 49.7923C15.1085 50.8864 15.9751 51.7477 17.0792 51.7452C18.1681 51.7452 19.0397 50.8864 19.0448 49.8098C19.0524 48.7256 18.1732 47.8568 17.0716 47.8593ZM30.1336 16.3114C30.1336 15.2298 29.272 14.371 28.1831 14.366C27.0891 14.3609 26.2099 15.2323 26.2125 16.3214C26.215 17.3981 27.0841 18.2669 28.1654 18.2719C29.2518 18.2794 30.1336 17.4006 30.1336 16.3114ZM51.351 46.7802C51.351 45.7011 50.487 44.8397 49.398 44.8322C48.3041 44.8272 47.4274 45.6985 47.4274 46.7877C47.4274 47.8693 48.2914 48.7256 49.3829 48.7281C50.4895 48.7307 51.351 47.8769 51.351 46.7777L51.351 46.7802ZM47.4249 30.6206C48.5188 30.6206 49.3804 29.7769 49.3879 28.6927C49.3955 27.5986 48.5315 26.7372 47.4274 26.7372C46.3309 26.7372 45.4693 27.5835 45.4668 28.6677C45.4618 29.7693 46.3157 30.6206 47.4274 30.6231L47.4249 30.6206ZM38.6781 53.3051C38.6781 52.2134 37.8267 51.3672 36.7277 51.3672C35.616 51.3672 34.757 52.2134 34.757 53.3126C34.757 54.4068 35.6261 55.2606 36.7327 55.2531C37.8267 55.2455 38.6781 54.3917 38.6756 53.3051L38.6781 53.3051ZM31.2225 16.6094C31.2225 17.6935 32.0815 18.5523 33.1704 18.5573C34.2745 18.5623 35.1436 17.7035 35.1411 16.6094C35.1411 15.5252 34.2871 14.6689 33.1957 14.6589C32.1017 14.6489 31.2225 15.5177 31.2225 16.6094ZM53.0185 22.2504C54.1175 22.2504 54.9791 21.4092 54.9841 20.325C54.9892 19.2208 54.1377 18.367 53.0286 18.367C51.9271 18.367 51.0706 19.2033 51.063 20.29C51.0554 21.3891 51.9119 22.2479 53.0185 22.2504ZM32.8925 4.15294C32.895 3.39679 32.2811 2.78086 31.5231 2.77835C30.7652 2.77585 30.1386 3.38928 30.1361 4.13792C30.1336 4.89156 30.745 5.50249 31.508 5.51C32.2684 5.51751 32.89 4.90659 32.8925 4.15294ZM50.7623 17.8738C51.5253 17.8788 52.1418 17.2704 52.1443 16.5117C52.1469 15.7581 51.5279 15.1421 50.7699 15.1396C50.0145 15.1396 49.3879 15.7556 49.3829 16.5017C49.3778 17.2478 50.0019 17.8663 50.7623 17.8713L50.7623 17.8738ZM24.929 24.7843C25.692 24.7843 26.311 24.1784 26.3135 23.4247C26.316 22.6736 25.7021 22.0576 24.9391 22.0526C24.1761 22.0476 23.5596 22.656 23.5571 23.4122C23.5546 24.1708 24.1635 24.7793 24.929 24.7818L24.929 24.7843ZM60.2923 15.6304C59.5267 15.6304 58.9153 16.2363 58.9179 16.9975C58.9179 17.7511 59.5419 18.367 60.2973 18.3645C61.0553 18.3595 61.6742 17.7436 61.6742 16.9924C61.6742 16.2413 61.0527 15.6304 60.2923 15.6304ZM46.5431 46.4847C46.5431 45.7236 45.9292 45.1227 45.1636 45.1252C44.3981 45.1277 43.7892 45.7386 43.7918 46.4948C43.7943 47.2484 44.4158 47.8593 45.1737 47.8568C45.9342 47.8543 46.5456 47.2409 46.5431 46.4847ZM45.9494 22.8313C45.1864 22.8313 44.575 23.4447 44.5775 24.2009C44.5775 24.957 45.1965 25.563 45.9595 25.5605C46.7225 25.558 47.339 24.9445 47.3339 24.1909C47.3288 23.4372 46.7099 22.8288 45.9494 22.8313ZM10.1895 38.4125C10.9575 38.4175 11.5714 37.8166 11.5765 37.0604C11.5816 36.3018 10.9727 35.6908 10.2097 35.6858C9.44667 35.6808 8.82768 36.2817 8.8201 37.0404C8.81252 37.7965 9.42141 38.4075 10.1869 38.415L10.1895 38.4125ZM40.4593 49.7021C40.4593 48.9485 39.8277 48.33 39.0697 48.3376C38.3042 48.3426 37.6928 48.9585 37.7004 49.7196C37.708 50.4683 38.3194 51.0692 39.0723 51.0692C39.8353 51.0692 40.4593 50.4558 40.4568 49.7021L40.4593 49.7021ZM40.3431 22.1528C41.1137 22.1553 41.7327 21.5544 41.7377 20.7982C41.7403 20.0446 41.1187 19.4286 40.3583 19.4286C39.5927 19.4286 38.9763 20.0396 38.9813 20.7982C38.9839 21.5569 39.5826 22.1478 40.3456 22.1528L40.3431 22.1528ZM21.1014 37.5311C21.0988 36.7675 20.4849 36.1641 19.7168 36.1691C18.9538 36.1741 18.3475 36.79 18.3525 37.5537C18.3576 38.2998 18.969 38.9007 19.7244 38.9032C20.495 38.9032 21.1014 38.2973 21.0988 37.5336L21.1014 37.5311ZM24.737 58.2776C25.4899 58.2776 26.1215 57.6542 26.119 56.9056C26.119 56.1594 25.5076 55.5535 24.7547 55.541C23.9942 55.531 23.3651 56.1419 23.3626 56.898C23.36 57.6517 23.979 58.2751 24.737 58.2776ZM48.8068 32.5686C48.8068 33.3348 49.4157 33.9382 50.1838 33.9382C50.9417 33.9382 51.5481 33.3398 51.5531 32.5886C51.5607 31.82 50.9569 31.2115 50.1888 31.209C49.4182 31.2065 48.8068 31.8049 48.8068 32.5686ZM65.9971 25.1624C65.992 24.4087 65.3654 23.7978 64.6075 23.8078C63.842 23.8178 63.2356 24.4312 63.2432 25.1874C63.2508 25.946 63.8672 26.547 64.6328 26.5394C65.3958 26.5319 66.0047 25.9185 65.9996 25.1624L65.9971 25.1624ZM49.3829 56.232C50.1459 56.2371 50.7623 55.6336 50.7699 54.8775C50.775 54.1163 50.1737 53.5079 49.4056 53.5029C48.6426 53.4979 48.0186 54.1038 48.0135 54.8575C48.0085 55.6061 48.6275 56.2295 49.3829 56.2345L49.3829 56.232ZM39.6685 4.63117C39.6685 5.39233 40.2799 5.99825 41.048 5.99825C41.8034 5.99825 42.4123 5.39733 42.4199 4.64619C42.4275 3.89255 41.811 3.2691 41.0505 3.2666C40.285 3.2666 39.6685 3.87252 39.6685 4.63117ZM46.7427 12.8211C46.7452 12.06 46.1414 11.454 45.3759 11.449C44.6053 11.4415 43.9989 12.0374 43.9964 12.8036C43.9939 13.5697 44.5927 14.1757 45.3582 14.1782C46.1187 14.1807 46.7402 13.5723 46.7427 12.8211ZM4.00967 44.7321C4.00714 45.4857 4.61855 46.0966 5.38155 46.1017C6.14455 46.1067 6.76101 45.5032 6.76354 44.7446C6.76607 43.9884 6.15213 43.3725 5.39166 43.37C4.63624 43.37 4.00967 43.9834 4.00714 44.7321L4.00967 44.7321ZM12.4557 14.754C12.4557 13.9829 11.8494 13.387 11.0737 13.3945C10.3133 13.402 9.71196 14.0004 9.70943 14.749C9.7069 15.5077 10.3234 16.1236 11.0838 16.1261C11.8443 16.1261 12.4582 15.5152 12.4557 14.754ZM32.3013 20.2048C32.2988 19.4462 31.6772 18.8352 30.9168 18.8402C30.1588 18.8453 29.5449 19.4687 29.5525 20.2249C29.5575 20.971 30.1689 21.5719 30.9269 21.5719C31.6975 21.5719 32.3063 20.966 32.3038 20.2023L32.3013 20.2048ZM19.0423 52.3286C18.2818 52.3286 17.6578 52.9496 17.6628 53.7007C17.6679 54.4493 18.2742 55.0502 19.0296 55.0578C19.7952 55.0653 20.4167 54.4593 20.4192 53.6982C20.4192 52.9395 19.8053 52.3261 19.0423 52.3261L19.0423 52.3286ZM29.5575 47.8593C28.7895 47.8593 28.173 48.4602 28.1679 49.2114C28.1654 49.9575 28.7869 50.5759 29.5449 50.581C30.3079 50.586 30.9243 49.98 30.9294 49.2239C30.9345 48.4627 30.3281 47.8618 29.5575 47.8593ZM10.9853 53.1098C10.9853 52.3536 10.3663 51.7377 9.61089 51.7402C8.85547 51.7402 8.23648 52.3587 8.23395 53.1123C8.23395 53.8659 8.85042 54.4769 9.61089 54.4769C10.3789 54.4769 10.9853 53.8735 10.9828 53.1098L10.9853 53.1098ZM39.7721 65.8592C39.7721 65.103 39.1481 64.4946 38.3825 64.4971C37.6246 64.5021 37.0208 65.1005 37.0157 65.8517C37.0107 66.6103 37.6246 67.2262 38.3901 67.2287C39.1506 67.2287 39.7721 66.6103 39.7721 65.8567L39.7721 65.8592ZM19.2419 15.2223C19.2318 15.9959 19.8204 16.5968 20.5986 16.6018C21.3616 16.6069 21.9806 16.0185 21.9907 15.2748C22.0008 14.5112 21.3995 13.8877 20.6415 13.8777C19.8684 13.8677 19.2545 14.4561 19.2444 15.2223L19.2419 15.2223ZM63.8521 46.1017C63.084 46.0916 62.4676 46.685 62.4549 47.4437C62.4448 48.2049 63.0461 48.8183 63.8117 48.8258C64.5772 48.8333 65.2012 48.2349 65.2113 47.4838C65.2214 46.7301 64.6125 46.1117 63.8495 46.1017L63.8521 46.1017ZM59.6177 34.5191C60.3807 34.5141 60.9921 33.9006 60.9896 33.147C60.987 32.3908 60.3706 31.7899 59.6025 31.7924C58.8345 31.7924 58.2281 32.4008 58.2332 33.162C58.2382 33.9232 58.8522 34.5241 59.6177 34.5191ZM48.6072 38.7956C48.6072 39.5542 49.2161 40.1626 49.9791 40.1651C50.7472 40.1651 51.3535 39.5692 51.3535 38.8031C51.3535 38.0369 50.7548 37.436 49.9867 37.436C49.2187 37.436 48.6098 38.0369 48.6072 38.7981L48.6072 38.7956ZM43.4103 59.2391C44.1783 59.2366 44.7847 58.6282 44.7821 57.8695C44.7771 57.1134 44.1606 56.5075 43.3976 56.5125C42.6321 56.515 42.0257 57.1234 42.0283 57.8846C42.0308 58.6457 42.6397 59.2416 43.4128 59.2391L43.4103 59.2391ZM60.1988 55.4333C60.1937 54.6747 59.5697 54.0663 58.8067 54.0788C58.0462 54.0913 57.45 54.6922 57.45 55.4433C57.45 56.202 58.0715 56.8204 58.8294 56.8154C59.5899 56.8104 60.2013 56.192 60.1988 55.4333ZM58.1397 39.2838C58.1397 40.0475 58.7536 40.6584 59.5166 40.6559C60.2746 40.6534 60.8936 40.0324 60.891 39.2788C60.8885 38.5327 60.2796 37.9317 59.5217 37.9242C58.7486 37.9167 58.1397 38.5176 58.1397 39.2838ZM11.8696 30.831C11.8772 30.0698 11.2657 29.4564 10.5002 29.4539C9.73722 29.4539 9.11318 30.0648 9.11318 30.8184C9.11318 31.5671 9.74227 32.188 10.5002 32.1855C11.2531 32.183 11.862 31.5796 11.8696 30.831ZM19.9265 30.0423C19.1534 30.0423 18.5471 30.6432 18.5496 31.4068C18.5496 32.163 19.1459 32.7564 19.9089 32.7614C20.687 32.7664 21.2959 32.173 21.2984 31.4093C21.2984 30.6457 20.6946 30.0423 19.9265 30.0423ZM28.072 11.8346C28.072 11.0634 27.4706 10.47 26.6925 10.475C25.9295 10.4775 25.3181 11.091 25.3231 11.8521C25.3282 12.5983 25.9345 13.1942 26.695 13.1992C27.4732 13.2017 28.072 12.6083 28.0694 11.8371L28.072 11.8346ZM24.0624 44.354C23.2817 44.349 22.6804 44.9374 22.6779 45.7061C22.6754 46.4697 23.2817 47.0756 24.0523 47.0756C24.8077 47.0756 25.4217 46.4772 25.4267 45.7311C25.4318 44.9599 24.838 44.359 24.0649 44.354L24.0624 44.354ZM27.5894 65.2532C27.5793 66.0194 28.1781 66.6353 28.9436 66.6428C29.7142 66.6504 30.3306 66.052 30.3357 65.2908C30.3407 64.5296 29.7596 63.9337 28.9941 63.9212C28.2109 63.9087 27.5995 64.4871 27.5894 65.2532ZM7.64781 22.4357C7.64276 21.6771 7.02377 21.0761 6.25572 21.0837C5.5003 21.0912 4.89647 21.6971 4.89647 22.4457C4.89647 23.2019 5.51546 23.8128 6.27846 23.8103C7.04398 23.8103 7.65287 23.1969 7.64781 22.4332L7.64781 22.4357Z" fill="#131313"/>
<rect x="70.5307" y="0.53073" width="68.9385" height="68.9385" rx="34.4693" stroke="#131313" stroke-width="1.06146"/>
</svg>
