<svg fill="none" height="698" viewBox="0 0 695 698" width="695" xmlns="http://www.w3.org/2000/svg" xmlns:xlink="http://www.w3.org/1999/xlink"><clipPath id="a"><path d="m0 0h694.989v697.962h-694.989z"/></clipPath><g clip-path="url(#a)"><path d="m253.124 570.284c8.413 0 15.246 2.79 20.527 8.999 3.839 4.514 5.69 9.848 5.581 15.756-.136 7.961-3.376 14.498-9.692 19.367s-13.584 5.526-21.779 3.912c4.982 8.316 5.881 16.413 1.988 24.701-2.559 5.443-6.67 9.41-12.169 11.762-6.861 2.927-13.749 2.763-20.473-.547-6.643-3.282-10.672-8.781-13.067-16.412-5.282 9.245-12.632 14.279-22.868 14.169-5.527-.055-10.454-1.997-14.729-5.525-5.581-4.596-8.439-10.559-8.766-17.808-.326-7.222 2.423-13.24 7.677-19.011-10.454 0-18.321-3.666-23.412-12.255-3.267-5.526-3.948-11.516-2.559-17.698 2.314-10.231 12.441-21.856 30.436-17.89-7.432-16.714-4.601-29.898 13.204-37.339 6.37-2.653 12.958-1.395 18.975 1.97 5.989 3.364 9.746 8.589 11.924 15.893 5.281-9.219 12.55-14.115 22.541-14.225 5.608-.054 10.699 1.861 15.028 5.471 5.581 4.651 8.684 10.668 8.929 17.999.245 7.167-2.341 13.322-7.241 18.711zm-66.263 19.804c.136 12.31 10.1 22.239 22.215 22.185 12.006-.055 22.079-10.039 21.997-21.856-.082-12.83-9.91-22.65-22.541-22.54-11.87.109-21.834 10.285-21.698 22.184zm-2.695-4.896c-.163-12.036-9.746-21.555-21.588-21.446-11.707.11-21.099 9.848-21.017 21.747.109 11.79 9.882 21.391 21.588 21.172 11.788-.219 21.153-9.793 21.017-21.473zm51.862-11.352c11.652.055 21.507-9.684 21.507-21.309 0-11.708-9.747-21.637-21.262-21.637-11.652 0-21.398 9.71-21.48 21.391-.082 11.68 9.583 21.5 21.235 21.555zm13.176 58.921c.109-11.817-9.447-21.61-21.126-21.692-11.543-.082-21.425 9.601-21.534 21.09-.109 11.845 9.311 21.61 21.072 21.747 11.76.137 21.506-9.41 21.615-21.172zm-37.868-85.181c.054-11.681-9.42-21.337-21.072-21.473-11.597-.137-21.479 9.683-21.534 21.363-.054 11.653 9.61 21.528 21.044 21.555 12.06 0 21.507-9.355 21.562-21.418zm-29.838 101.512c11.734.164 21.371-9.301 21.562-21.2.19-11.516-9.42-21.446-20.963-21.665-11.652-.218-21.588 9.465-21.725 21.145-.108 11.79 9.338 21.555 21.099 21.72zm94.848-54.135c.109-11.516-9.392-21.336-20.799-21.527-11.76-.192-21.697 9.382-21.806 21.008-.109 12.118 9.419 21.828 21.452 21.856 11.571.027 21.072-9.547 21.181-21.364zm-73.913 19.641c1.144 2.708 2.097 4.924 3.186 7.522 1.66-2.352 3.076-4.349 4.764-6.756-2.804-.274-5.146-.493-7.95-.766zm-19.601-43.521c1.307 2.653 2.396 4.896 3.675 7.522 1.607-2.297 2.941-4.239 4.465-6.428-2.913-.383-5.281-.684-8.167-1.067zm48.704 30.445c-1.661 2.326-2.995 4.24-4.601 6.511 2.831.355 5.2.656 8.031 1.012-1.171-2.571-2.178-4.787-3.43-7.495zm1.878-17.917c1.797-2.462 3.24-4.404 4.901-6.647-2.832-.191-5.255-.328-8.113-.519 1.116 2.516 2.042 4.595 3.212 7.166zm-53.767 19.641c2.913.246 5.39.437 8.276.684-1.334-2.681-2.341-4.787-3.485-7.058-1.687 2.243-3.103 4.131-4.791 6.374zm35.718-37.667c-1.008-2.517-1.906-4.76-3.022-7.523-1.661 2.38-3.049 4.404-4.71 6.757 2.777.273 5.037.492 7.732.766z" fill="#131313"/><path d="m607.607 254.098c-.082 8.753-3.104 15.838-9.774 21.144-4.492 3.556-9.719 5.252-15.409 5.061-7.813-.301-14.238-3.638-18.893-10.012-4.601-6.319-5.635-13.485-3.675-21.774-8.712 5.225-17.015 5.963-25.427 1.641-5.391-2.762-9.202-7.084-11.434-12.774-4.247-10.887-.327-27.135 17.096-32.634-9.909-5.936-15-14.251-13.639-25.767.653-5.526 3.158-10.258 7.187-14.061 4.819-4.54 10.536-6.811 17.206-6.729 6.642.082 12.169 2.736 17.396 7.687.109-10.258 3.675-18.218 12.251-23.333 5.227-3.119 10.889-4.021 16.878-2.818 6.997 1.395 12.278 5.225 16.008 11.297 3.675 5.991 4.274 12.474 2.505 19.969 9.093-5.443 17.804-6.1 26.543-1.121 4.982 2.844 8.467 7.057 10.4 12.446 2.45 6.784 2.041 13.485-1.28 19.886-3.267 6.292-8.548 10.258-15.518 12.31 14.565 10.942 18.54 23.689 7.188 38.788-4.22 5.608-10.563 7.906-17.587 8.015-6.915.109-12.768-2.462-18.022-7.221zm2.423-44.342c0-12.446-9.883-22.266-22.324-22.212-11.979.028-22.024 10.176-21.97 22.185.027 12.282 9.937 22.212 22.133 22.212 12.224 0 22.188-9.957 22.161-22.157zm-85.729 18.847c0 11.79 9.42 21.446 21.017 21.501 11.897.054 21.48-9.492 21.562-21.501.081-11.379-9.529-21.281-20.691-21.336-12.332-.055-21.86 9.246-21.888 21.336zm68.36-43.739c11.897-.055 21.316-9.547 21.289-21.446 0-11.626-9.692-21.336-21.235-21.336-11.842 0-21.425 9.601-21.398 21.391 0 11.953 9.501 21.445 21.344 21.391zm-9.447 49.757c-11.679-.054-21.452 9.547-21.507 21.036-.027 11.981 9.474 21.692 21.316 21.774 11.625.082 21.29-9.629 21.317-21.473.054-11.653-9.529-21.309-21.126-21.364zm20.908 2.243c-.136 11.872 9.202 21.446 21.071 21.583 11.57.164 21.289-9.355 21.48-21.063.191-11.817-9.311-21.61-21.044-21.692-11.897-.082-21.398 9.246-21.534 21.145zm26.189-24.673c11.652 0 21.208-9.574 21.181-21.309 0-11.927-9.583-21.501-21.562-21.528-11.597-.028-21.098 9.793-21.044 21.747.055 11.68 9.61 21.09 21.398 21.09zm-101.218-29.789c-.027 11.872 9.392 21.364 21.289 21.446 11.652.082 21.262-9.602 21.289-21.474.027-11.57-9.474-21.226-20.935-21.281-12.115-.055-21.589 9.3-21.616 21.309zm65.31 51.918c2.423 1.806 4.41 3.283 6.697 4.979.191-3.009.327-5.416.517-8.261-2.504 1.149-4.573 2.079-7.187 3.282zm12.387-50.742c-2.614 1.286-4.791 2.353-7.323 3.611 2.232 1.614 4.11 2.981 6.288 4.568.354-2.845.654-5.197 1.035-8.179zm-37.841 52.466c2.722-1.368 4.927-2.462 7.35-3.693-2.232-1.641-4.056-2.982-6.261-4.596-.382 2.818-.708 5.28-1.117 8.289zm12.25-50.688c-2.286-1.751-4.138-3.2-6.397-4.924-.272 2.955-.463 5.389-.708 8.207 2.586-1.204 4.655-2.134 7.133-3.283zm31.008 30.993c2.696-1.122 4.928-2.052 7.678-3.201-2.451-1.669-4.438-3.009-6.752-4.568-.327 2.708-.599 4.924-.926 7.769zm-49.574-5.28c.299-2.845.517-5.142.816-7.878-2.722 1.204-4.954 2.216-7.486 3.337 2.368 1.614 4.247 2.9 6.67 4.569z" fill="#131313"/><path d="m164.809 127.639c-8.711 0-15.789-2.927-21.071-9.711-3.757-4.815-5.363-10.395-4.927-16.468.517-7.6861 4.056-13.8134 10.29-18.2722 6.18-4.4587 13.122-5.1699 20.745-3.5287-7.106-15.4552-5.336-28.9408 10.454-36.0803 15.899-7.1942 27.142.4376 33.948 16.1117 4.519-8.1243 11.107-12.9113 20.146-13.7319 5.853-.5197 11.243 1.0395 16.007 4.5408 3.893 2.8722 6.725 6.5377 8.44 11.1059 1.688 4.5408 1.96 9.191.98 13.9507-.98 4.7323-3.43 8.6986-7.269 12.7471 11.38-.0547 19.656 4.2399 24.42 14.1149 2.641 5.471 2.94 11.215 1.416 17.151-3.104 12.009-14.211 18.273-30.409 16.741 5.145 9.164 5.934 18.273.217 27.3-3.103 4.923-7.568 8.206-13.122 9.902-6.588 1.997-12.985 1.395-19.029-2.024-6.017-3.392-9.746-8.644-11.924-15.866-5.118 9-12.251 13.978-22.133 14.224-5.418.137-10.4-1.586-14.701-4.923-5.853-4.514-9.093-10.477-9.529-17.918-.435-7.385 2.206-13.649 7.079-19.339zm44.13-41.9619c-12.223.0547-22.133 10.0116-22.105 22.2119.027 12.391 10.181 22.348 22.677 22.239 11.679-.082 21.616-10.34 21.616-22.294 0-12.1726-10.046-22.2116-22.188-22.1843zm-18.675-41.6607c-11.924 0-21.48 9.4646-21.507 21.227-.027 11.8991 9.637 21.692 21.425 21.6373 11.597-.0274 21.316-9.9023 21.289-21.5826s-9.61-21.309-21.207-21.2817zm-8.222 80.0666c-11.897-.055-21.507 9.574-21.534 21.527 0 11.626 9.719 21.419 21.235 21.364 11.706-.055 21.507-9.793 21.479-21.418 0-11.599-9.691-21.419-21.18-21.446zm94.358-11.353c0-11.844-9.528-21.4453-21.343-21.4727-11.734-.0547-21.371 9.7657-21.371 21.7737 0 11.517 9.828 21.118 21.534 21.063s21.18-9.629 21.18-21.336zm-40.155-63.9813c-11.706 0-21.425 9.7108-21.452 21.3911 0 11.5982 9.746 21.5279 21.098 21.4731 12.06-.0547 21.643-9.5192 21.616-21.3637 0-11.817-9.583-21.4731-21.289-21.4731zm12.931 101.6213c0-11.762-9.419-21.364-21.071-21.446-11.652-.054-21.534 9.574-21.561 21.008 0 12.064 9.583 21.939 21.234 21.856 11.897-.082 21.344-9.546 21.371-21.391zm-65.065-47.186c.164-11.6805-9.283-21.3912-20.935-21.5554-11.734-.1367-21.453 9.4099-21.589 21.1994-.136 11.79 9.257 21.501 20.881 21.61 12.142.11 21.48-9.054 21.643-21.254zm46.09-9.2459c.953 2.3524 1.743 4.404 2.641 6.4009.109.219 1.198.301 1.334.109 1.361-1.805 2.613-3.6924 4.056-5.7987-2.749-.2462-5.172-.465-8.031-.7112zm-39.175-3.9938c-2.886-.3829-5.363-.7112-8.222-1.0668 1.307 2.7081 2.396 4.9238 3.676 7.5225 1.606-2.2978 2.967-4.2126 4.546-6.4557zm21.235-14.0874c-1.661 2.3798-3.022 4.3767-4.683 6.7838 2.831.2189 5.146.4104 7.868.6292-1.143-2.626-2.069-4.787-3.185-7.413zm-1.96 57.2801c-2.723-.246-4.982-.438-7.759-.684 1.116 2.681 2.042 4.924 3.131 7.577 1.66-2.462 3.021-4.513 4.628-6.893zm21.125-13.841c-1.688 2.461-2.994 4.349-4.464 6.482 2.885.383 5.281.712 8.085 1.067-1.252-2.598-2.341-4.841-3.621-7.549zm-46.879-4.787c-1.77 2.379-3.213 4.294-4.901 6.565 2.941.191 5.309.355 8.113.574-1.089-2.435-2.042-4.541-3.185-7.139z" fill="#131313"/><path d="m127.267 254.234c-.217 9.082-3.375 16.386-10.617 21.665-4.873 3.529-10.318 5.033-16.28 4.349-7.4047-.848-13.3396-4.294-17.6137-10.476-4.3014-6.21-4.9276-13.076-3.3213-20.954-9.9912 5.581-19.4379 5.799-28.5307-.52-4.492-3.118-7.4866-7.467-8.875-12.747-3.5936-13.458 1.7967-22.977 17.2872-30.664-14.5376-10.723-18.7301-23.579-7.051-38.816 4.1652-5.416 10.454-7.713 17.3961-7.85 6.9148-.137 12.7135 2.462 18.2944 7.577.0545-11.133 4.3014-19.285 13.83-24.127 5.036-2.571 10.399-3.036 15.871-1.805 6.752 1.532 11.897 5.334 15.464 11.297 3.539 5.964 3.947 12.419 2.477 19.778 9.202-5.444 18.049-6.018 26.87-.766 5.009 2.981 8.439 7.358 10.318 12.856 2.287 6.757 1.688 13.322-1.797 19.558-3.403 6.1-8.575 10.012-16.062 12.091 9.474 5.334 14.374 12.802 14.156 23.087-.109 5.772-2.014 11.051-5.934 15.401-4.683 5.197-10.509 8.014-17.56 8.206-6.996.191-12.904-2.489-18.322-7.112zm-20.227-22.348c12.496.082 22.433-9.465 22.514-21.692.109-12.446-9.719-22.595-21.942-22.649-12.251-.055-22.215 9.765-22.3239 22.02-.1089 12.145 9.7189 22.239 21.7249 22.294zm-4.192 45.6c11.488-.055 21.37-9.93 21.261-21.337-.108-11.981-9.691-21.582-21.534-21.555-11.7332.027-21.2888 9.765-21.1799 21.583.0816 11.871 9.6645 21.363 21.4529 21.336zm-32.7509-116.393c-11.8968 0-21.4524 9.437-21.4796 21.227-.0273 11.735 9.61 21.5 21.2891 21.528 11.7607.027 21.4252-9.602 21.4524-21.337 0-11.926-9.4194-21.445-21.2619-21.445zm79.7659 51.098c11.707 0 21.317-9.684 21.344-21.473.027-11.653-9.692-21.227-21.562-21.255-11.57 0-21.261 9.739-21.18 21.337.082 11.872 9.61 21.391 21.398 21.391zm-105.9825 16.659c0 11.625 9.61 21.227 21.2619 21.254 11.8152.027 21.4252-9.684 21.398-21.665 0-11.461-9.8006-21.117-21.4252-21.145-11.6519-.027-21.2347 9.711-21.2347 21.556zm101.2735-13.213c-11.68-.136-21.426 9.492-21.507 21.282-.082 11.626 9.419 21.364 21.017 21.528 11.815.164 21.506-9.437 21.643-21.418.108-11.571-9.447-21.255-21.126-21.392zm-33.159-30.773c11.543.246 21.316-9.301 21.643-21.172.327-11.434-9.311-21.364-20.935-21.61-11.707-.246-21.4801 9.218-21.7251 21.035-.245 11.763 9.1741 21.501 21.0171 21.747zm13.367 6.975c.381-2.981.708-5.471 1.089-8.425-2.695 1.34-4.982 2.462-7.569 3.748 2.26 1.614 4.193 3.009 6.507 4.677zm14.156 21.2c-2.559-1.724-4.573-3.091-6.887-4.65-.218 2.817-.409 5.087-.627 7.823 2.587-1.094 4.819-2.024 7.541-3.173zm-56.5984-9.902c-2.6952 1.203-4.8731 2.188-7.3777 3.337 2.4502 1.641 4.4648 3.009 6.8332 4.623.1906-2.818.354-5.17.5445-7.96zm11.4613-22.978c-.2178 3.009-.3811 5.443-.5989 8.206 2.5862-1.176 4.6553-2.133 7.051-3.228-2.2324-1.723-4.1381-3.2-6.4521-5.005zm-4.737 47.596c-.3811 2.845-.6806 5.198-1.0617 8.043 2.6407-1.286 4.8459-2.353 7.3505-3.556-2.2324-1.587-4.0564-2.9-6.2888-4.459zm30.8991 11.434c.218-2.981.408-5.361.599-8.151-2.505 1.094-4.519 1.997-6.969 3.091 2.123 1.696 3.974 3.173 6.37 5.06z" fill="#131313"/><path d="m442.793 127.31c-9.828.219-17.314-3.036-22.569-10.668-3.267-4.732-4.519-10.039-4.029-15.756.654-7.6318 4.274-13.5677 10.454-17.8897 6.207-4.3219 13.149-5.0058 21.099-3.2551-4.819-7.9601-5.717-15.674-2.587-23.6889 2.097-5.3614 5.826-9.3825 10.863-12.0632 6.942-3.6928 14.102-3.9937 21.289-.7659 7.133 3.2004 11.461 8.9448 13.939 17.0144 4.519-8.2884 10.753-13.0481 19.383-14.1696 5.908-.7659 11.434.5745 16.416 3.9937 6.37 4.3494 9.801 10.5041 10.563 18.136.762 7.6865-2.341 14.0601-7.732 20.1874 10.291-.1641 18.023 3.4193 23.195 11.7079 3.294 5.252 4.165 11.078 3.131 17.151-1.797 10.477-12.496 22.841-31.063 18.929 5.146 8.972 5.908 17.835.708 26.725-2.804 4.815-6.969 8.097-12.114 10.094-4.329 1.696-8.821 1.97-13.395 1.094-4.573-.875-8.793-2.763-11.815-6.291-2.886-3.392-5.145-7.331-7.759-11.188-4.437 7.933-11.461 12.747-21.017 13.185-5.417.246-10.399-1.423-14.809-4.623-6.126-4.486-9.474-10.614-10.019-18.191-.544-7.468 2.341-13.759 7.813-19.668zm43.749-41.6056c-11.598-.3556-21.888 9.4646-22.324 21.2816-.435 12.173 9.256 22.759 21.235 23.142 12.278.383 22.759-9.41 23.059-21.555.299-12.4739-9.284-22.4583-21.97-22.8412zm-19.275-41.7427c-11.869.0821-21.153 9.7382-21.044 21.9382.109 11.6803 9.774 21.1722 21.807 20.926 11.134-.2188 20.853-9.3004 20.717-21.774-.109-11.5982-9.828-21.1722-21.48-21.0902zm25.019 26.0413c-.054 11.9812 9.392 21.5005 21.425 21.5552 11.407.0547 21.181-9.656 21.208-21.0901.027-11.9539-9.529-21.6373-21.371-21.692-11.625-.0547-21.207 9.5193-21.262 21.2269zm-54.448 75.607c.082 11.735 9.692 21.337 21.262 21.227 12.006-.082 21.507-9.683 21.425-21.61-.081-11.707-9.8-21.199-21.67-21.144-11.516.027-21.098 9.847-21.017 21.527zm2.369-21.199c11.543.164 21.234-9.383 21.425-21.118.19-11.7074-9.283-21.3908-21.18-21.637-11.353-.2462-21.371 9.5193-21.589 21.035-.218 11.79 9.365 21.583 21.344 21.72zm65.119 4.513c-11.515-.109-21.343 9.547-21.534 21.118-.163 11.543 9.529 21.582 20.963 21.664 12.087.11 21.615-9.191 21.779-21.227.136-11.762-9.365-21.445-21.208-21.582zm48.432-16.358c-.027-11.789-9.61-21.2539-21.507-21.2266-11.516.0274-21.208 9.8206-21.153 21.3906.054 11.763 9.692 21.337 21.48 21.337 11.76 0 21.234-9.629 21.18-21.528zm-46.281-18.6279c1.225 2.708 2.205 4.869 3.349 7.3579 1.769-2.3794 3.239-4.349 4.954-6.592-2.777-.2462-5.199-.465-8.276-.7386zm-17.804-18.2454c-1.688 2.5166-3.077 4.5682-4.656 6.948 2.859.2189 5.173.4104 7.814.6292-1.089-2.626-1.988-4.8144-3.158-7.5772zm19.192 43.5753c-1.66 2.407-2.967 4.267-4.464 6.456 2.831.383 5.227.711 8.031 1.067-1.225-2.599-2.287-4.815-3.567-7.523zm-43.639 2.462c-1.226-2.626-2.206-4.76-3.322-7.194-1.742 2.325-3.212 4.24-4.955 6.538 2.886.218 5.309.41 8.277.629zm17.804 18.327c1.661-2.489 3.022-4.54 4.601-6.92-2.831-.219-5.091-.356-7.677-.547 1.061 2.598 1.933 4.732 3.076 7.495zm-14.592-49.8938c-2.831-.4377-5.282-.8207-8.249-1.2857 1.334 2.6807 2.423 4.8417 3.675 7.3583 1.525-2.0516 2.832-3.7475 4.547-6.0726z" fill="#131313"/><path d="m568.323 444.427c.082-10.067 3.349-17.89 11.434-23.005 4.928-3.119 10.427-4.459 16.28-3.474 14.674 2.489 21.48 12.829 20.146 31.129 9.283-5.416 18.512-5.991 27.523-.055 5.064 3.337 8.276 8.179 9.937 14.033 3.457 12.309-2.586 22.759-17.451 30.035 14.62 10.887 18.567 23.825 6.725 39.034-4.22 5.417-10.618 7.496-17.533 7.578-6.833.054-12.55-2.599-17.75-7.468-1.442 17.096-9.746 27.874-27.087 25.987-17.206-1.861-23.059-14.115-21.181-30.966-8.031 4.842-16.143 5.608-24.338 1.669-5.853-2.817-9.964-7.44-12.169-13.65-4.165-11.817.871-27.081 17.015-31.922-14.919-10.86-18.866-23.853-6.915-39.144 4.247-5.444 10.645-7.55 17.532-7.605 6.779-.054 12.523 2.626 17.832 7.824zm19.52 65.923c12.25 0 22.187-9.902 22.187-22.102 0-12.309-9.882-22.348-21.97-22.321-12.305 0-22.269 9.848-22.323 21.993-.027 12.474 9.773 22.43 22.106 22.43zm21.071-41.277c.109 12.282 9.583 21.637 21.915 21.61 11.325-.055 20.935-10.149 20.772-21.856-.163-11.599-9.964-21.2-21.507-21.091-11.652.11-21.289 9.793-21.18 21.337zm16.362 67.811c11.869.055 21.615-9.629 21.588-21.5 0-11.735-9.664-21.145-21.806-21.282-11.271-.137-20.935 9.656-20.99 21.254-.054 11.899 9.392 21.473 21.208 21.528zm-96.101-75.963c0 11.981 9.474 21.309 21.616 21.337 11.407 0 20.935-9.793 20.935-21.556 0-11.598-9.637-21.199-21.262-21.227-11.706-.027-21.262 9.629-21.262 21.474zm63.105 2.38c12.006.082 21.589-9.328 21.67-21.309.082-11.571-9.392-21.391-20.744-21.528-11.924-.137-21.807 9.437-21.861 21.2-.055 11.625 9.528 21.555 20.935 21.637zm-67.924 43.658c.028 11.981 9.474 21.664 21.126 21.664 11.734 0 21.371-9.629 21.398-21.418 0-11.735-9.501-21.446-21.044-21.419-12.006 0-21.48 9.383-21.452 21.173zm58.859 6.154c-11.788-.109-21.317 9.191-21.453 20.981-.136 11.762 9.338 21.583 21.071 21.774 11.516.192 21.371-9.328 21.507-20.735.136-12.418-8.956-21.91-21.098-22.02zm-14.266 1.231c2.668-1.285 4.873-2.352 7.432-3.611-2.314-1.641-4.219-3.009-6.397-4.568-.381 2.927-.681 5.334-1.035 8.179zm32.614-4.924c-2.559 1.177-4.682 2.189-7.132 3.31 2.314 1.724 4.356 3.228 6.67 4.951.163-2.927.299-5.334.462-8.261zm-20.227-45.709c-2.314-1.778-4.247-3.255-6.588-5.06-.218 2.981-.408 5.416-.626 8.261 2.532-1.122 4.601-2.052 7.214-3.201zm-25.536 21.091c2.477 1.696 4.519 3.063 6.888 4.704.245-2.817.462-5.087.708-7.741-2.587 1.04-4.792 1.915-7.596 3.037zm57.361 2.133c-.3 2.681-.545 5.006-.844 7.769 2.695-1.149 4.955-2.107 7.595-3.228-2.423-1.641-4.437-3.009-6.724-4.568zm-7.323-16.741c.272-2.927.517-5.306.789-8.124-2.586 1.231-4.71 2.27-7.214 3.474 2.314 1.696 4.192 3.036 6.425 4.65z" fill="#131313"/><path d="m113.874 329.347c9.773.027 17.369 3.2 22.596 10.996 3.212 4.787 4.492 10.067 3.92 15.784-.762 7.577-4.274 13.622-10.536 17.862-6.152 4.185-13.013 4.951-20.771 3.091 4.655 8.124 5.771 16.002 2.232 24.127-2.314 5.334-6.126 9.328-11.3525 11.926-4.4103 2.216-9.12 2.9-13.9659 2.271-4.9275-.657-9.3106-2.681-13.0403-6.046-3.6208-3.255-5.8259-7.413-7.6227-12.61-5.0092 8.726-11.7607 13.759-21.3163 14.142-5.7715.219-11.0802-1.395-15.6538-5.033-5.7987-4.596-8.9567-10.641-9.365-18.054-.4084-7.276 2.2596-13.513 7.7316-19.285-10.699 0-18.7301-3.829-23.76653-12.801-2.613499-4.678-3.484665-9.821-2.667947-15.127 1.088957-7.222 4.736967-12.939 10.835177-16.933 6.0981-3.993 12.8224-4.623 20.4996-2.79-5.2815-9.191-6.071-17.917-1.0617-26.725 2.8857-5.088 7.1598-8.644 12.6319-10.531 6.6698-2.326 13.2308-1.943 19.5468 1.422 5.3358 2.845 6.6698 4.486 12.6591 15.701 5.1453-8.862 12.4958-13.841 22.7592-13.649 5.4443.109 10.3453 1.832 14.5653 5.361 5.608 4.678 8.657 10.668 8.929 17.999.272 7.194-2.505 13.24-7.786 18.902zm-21.507 19.695c0-12.091-9.8006-22.348-21.4525-22.43-12.4413-.083-22.5958 9.765-22.6775 21.965-.0817 12.72 9.8278 22.704 22.4325 22.649 11.7335-.054 21.6703-10.203 21.6975-22.184zm-27.9862 37.53c-.0817-12.09-9.5284-21.446-21.5342-21.364-11.7879.083-21.1802 9.875-21.0713 21.939.1089 11.352 9.9368 20.953 21.398 20.898 11.8697-.054 21.2892-9.601 21.1803-21.473zm-34.275-79.738c.2995 11.927 9.9912 21.337 21.6703 21.063 11.7063-.273 21.2891-10.066 21.0713-21.528-.245-11.981-10.1545-21.692-21.7519-21.309-11.9513.383-21.2619 10.039-20.9624 21.774zm88.7232 4.459c0-11.708-9.583-21.391-21.1261-21.391-11.9785 0-21.6158 9.601-21.5341 21.501.0544 11.625 9.6645 21.226 21.2891 21.309 11.6251.054 21.3981-9.711 21.3981-21.419zm-115.91988 32.689c-.05445 11.899 9.55558 21.555 21.45248 21.582 11.3524.027 21.0985-9.683 21.2074-21.145.1089-11.954-9.365-21.582-21.3435-21.692-11.4885-.109-21.26193 9.629-21.28915 21.255zm86.35438 68.768c11.6515.082 21.1805-9.41 21.2615-21.199.082-11.763-9.474-21.473-21.2071-21.583-11.6518-.109-21.3163 9.601-21.3708 21.419-.0544 11.817 9.4195 21.281 21.3436 21.363zm26.9515-80.394c-11.842.191-21.2889 9.984-21.0984 21.938.1634 11.626 9.9364 21.09 21.5884 20.953 11.543-.136 21.262-10.066 21.044-21.555-.217-11.899-9.909-21.528-21.507-21.363zm-21.4795 10.012c1.7968-2.38 3.2941-4.35 5.0909-6.73-2.9947-.164-5.4993-.273-8.3306-.437 1.1162 2.489 2.0691 4.595 3.2397 7.167zm-53.9034 19.804c2.8857.192 5.3631.356 8.2216.547-1.1162-2.571-2.069-4.732-3.158-7.221-1.7151 2.27-3.1579 4.158-5.0636 6.674zm26.1077 18.847c1.6607-2.352 3.0491-4.322 4.6826-6.647-2.6952-.328-5.0092-.629-7.7861-.985 1.089 2.681 1.9874 4.924 3.1035 7.632zm29.4019-13.157c-1.3067-2.626-2.3685-4.815-3.6208-7.358-1.6062 2.297-2.9946 4.239-4.5464 6.482 2.9402.329 5.3087.575 8.1944.903zm-19.4379-43.384c-1.2251-2.763-2.2051-5.006-3.3213-7.605-1.6062 2.38-2.9402 4.322-4.492 6.62 2.7224.328 4.982.629 7.8133.985zm-32.6143 5.635c1.3068 2.681 2.3413 4.814 3.5664 7.303 1.5789-2.297 2.8857-4.185 4.4647-6.455-2.8041-.301-5.1453-.547-8.0039-.848z" fill="#131313"/><path d="m375.686 31.707c9.664-5.5803 18.893-6.0453 27.932-.1641 4.873 3.1731 8.085 7.7686 9.664 13.3489 1.851 6.565 1.089 12.8838-2.287 18.8744-3.375 5.9906-8.63 9.5467-15.653 11.8171 9.147 5.1973 14.074 12.5556 14.02 22.7314-.027 5.7173-1.96 10.8593-5.663 15.2363-4.682 5.526-10.672 8.398-17.831 8.617-7.051.191-13.095-2.435-18.73-8.015.163 10.449-3.403 18.273-11.598 23.443-5.064 3.2-10.808 4.486-16.579 3.118-16.307-3.83-21.861-14.908-19.52-31.239-8.167 5.061-16.416 5.745-24.774 1.806-5.499-2.572-9.337-6.948-11.597-12.6107-2.695-6.8112-2.396-13.513.79-20.1054 2.531-5.252 5.308-7.5771 15.653-12.8565-14.755-10.6955-18.539-23.5794-7.024-38.8158 4.22-5.6076 10.645-7.796 17.642-7.878 6.86-.0547 12.686 2.6807 18.212 7.7686-.108-10.5314 3.594-18.4368 12.17-23.49735 4.818-2.844848 10.154-3.884312 15.708-2.954266 7.132 1.203586 12.849 4.787006 16.77 10.969116 3.865 6.1 4.464 12.7471 2.749 20.4063zm-28.068 61.0548c12.087.1368 22.079-9.8202 22.187-22.1296.109-12.1453-9.718-22.1023-22.051-22.2664-11.978-.1642-22.024 9.7654-22.16 21.8561-.136 12.3915 9.61 22.3758 22.024 22.5126zm42.497-62.5046c-11.952 0-21.48 9.6014-21.426 21.5552.055 11.6256 9.746 21.3364 21.262 21.3364 11.57 0 21.507-9.9023 21.507-21.4185 0-11.735-9.719-21.5005-21.343-21.4731zm-4.901 89.0378c11.598.083 21.289-9.464 21.398-21.117.136-11.8445-9.555-21.692-21.343-21.7194-11.897 0-21.317 9.492-21.371 21.6099-.055 11.4885 9.637 21.1445 21.316 21.2265zm-75.138-54.6808c11.87 0 21.507-9.4919 21.507-21.2269 0-11.8992-9.637-21.5005-21.561-21.5005-11.734 0-21.153 9.6287-21.126 21.5825 0 11.8171 9.311 21.1176 21.18 21.1449zm54.094 52.0828c-.19-12.091-9.719-21.3912-21.752-21.2271-11.379.1368-20.935 10.0121-20.826 21.5001.136 12.146 9.664 21.474 21.888 21.364 11.298-.082 20.853-10.094 20.663-21.637zm9.637-91.9107c.245-11.7623-9.011-21.50045-20.69-21.77399-11.624-.27355-21.643 9.05429-21.833 20.35159-.218 12.4189 8.847 22.1844 20.799 22.4306 11.76.2461 21.479-9.1637 21.724-21.0082zm-68.168 43.466c-12.088-.0547-21.453 9.2458-21.534 21.3911-.082 11.6256 9.528 21.3086 21.18 21.3086 11.733 0 21.507-9.656 21.534-21.3086 0-11.6256-9.583-21.3364-21.18-21.3637zm28.176-18.8197c2.668-1.2036 4.819-2.1337 7.378-3.2825-2.259-1.7234-4.22-3.2552-6.479-5.0059-.3 2.7902-.545 5.2247-.871 8.2884zm-11.134 22.6767c.19-2.9543.354-5.252.517-7.878-2.586 1.0121-4.846 1.8874-7.595 2.9816 2.45 1.6959 4.546 3.1457 7.078 4.9238zm43.966-27.6826c-2.613 1.2857-4.873 2.3799-7.486 3.6655 2.368 1.6413 4.274 2.9543 6.425 4.4314.381-2.8722.68-5.2794 1.061-8.1242zm-30.381 48.7454c-2.26-1.6139-4.166-2.9816-6.371-4.5681-.381 3.0089-.68 5.4161-1.034 8.2336 2.613-1.2857 4.791-2.3798 7.405-3.6655zm36.561-23.9624c-.19 2.8722-.354 5.2247-.544 7.8781 2.722-1.1762 4.9-2.1063 7.35-3.1731-2.368-1.6413-4.355-3.009-6.806-4.705zm-11.951 30.8833c.218-2.9545.381-5.389.599-8.2339-2.477 1.1489-4.574 2.1337-7.024 3.2825 2.205 1.7234 4.084 3.1731 6.398 4.9514z" fill="#131313"/><path d="m319.251 666.68c-8.221 4.596-16.416 5.389-24.801 1.231-5.199-2.571-9.038-6.565-11.298-11.954-2.885-6.92-2.722-13.814.572-20.57 3.267-6.675 8.793-10.641 16.389-12.966-8.821-5.061-13.721-12.063-14.102-21.801-.218-5.936 1.633-11.27 5.363-15.839 4.546-5.58 10.508-8.616 17.696-8.944 7.159-.356 13.285 2.243 19.029 7.604.218-11.926 4.873-20.488 15.627-24.865 5.444-2.216 11.08-2.243 16.661-.356 8.984 3.009 18.811 12.802 15.599 29.598 16.198-7.03 30.028-4.705 36.562 12.856 5.635 15.209-2.178 25.713-16.988 31.841 8.603 4.896 13.449 11.844 13.803 21.528.19 5.58-1.416 10.668-4.737 15.099-4.492 5.963-10.563 9.273-18.05 9.738-7.296.438-13.557-2.27-19.438-7.796.191 10.504-3.539 18.218-11.815 23.334-4.846 3.009-10.236 4.13-15.872 3.255-7.159-1.094-12.904-4.651-16.906-10.805-3.974-6.128-4.573-12.884-3.321-20.215zm28.558-61.547c-12.169-.082-22.242 9.957-22.242 22.075 0 12.474 9.719 22.239 22.242 22.348 11.979.11 21.915-9.847 21.997-22.074.082-12.2-9.8-22.267-21.97-22.349zm-26.216 68.55c.027 11.844 9.555 21.364 21.398 21.391 11.57 0 21.398-9.957 21.289-21.61-.109-11.707-9.883-21.309-21.616-21.254-11.625.055-21.099 9.711-21.071 21.473zm-32.642-73.72c-.082 11.817 9.42 21.473 21.207 21.583 11.435.109 21.262-9.711 21.344-21.309.109-12.036-9.283-21.501-21.398-21.583-11.625-.082-21.099 9.437-21.153 21.309zm-4.9 46.01c-.3 11.571 9.12 21.391 20.799 21.719 11.516.301 21.561-9.191 21.915-20.707.354-11.844-9.338-21.938-21.262-22.157-11.434-.219-21.126 9.355-21.425 21.145zm89.73-64.748c.054-11.899-9.392-21.418-21.262-21.473-11.842-.054-21.425 9.629-21.398 21.61.027 11.462 9.692 21.09 21.18 21.118 11.815.054 21.453-9.465 21.48-21.282zm-5.091 27.054c.027 11.926 9.474 21.446 21.289 21.446s21.425-9.574 21.398-21.364c-.027-11.653-9.882-21.446-21.507-21.391-11.706.027-21.207 9.601-21.18 21.309zm-4.846 46.174c-.027 11.735 9.61 21.555 21.235 21.637 11.597.082 21.479-9.793 21.479-21.418 0-11.872-9.528-21.309-21.643-21.391-11.325-.082-21.071 9.683-21.098 21.172zm-40.672-33.701c-2.723 1.204-4.982 2.189-7.541 3.31 2.477 1.669 4.519 3.091 6.914 4.705.218-2.845.409-5.224.627-8.015zm38.195 27.902c-2.478 1.094-4.601 2.051-7.078 3.173 2.259 1.778 4.192 3.31 6.56 5.17.191-2.954.354-5.444.518-8.343zm18.321-17.917c-2.477-1.751-4.519-3.228-6.914-4.924-.245 2.954-.463 5.307-.708 8.015 2.559-1.04 4.764-1.942 7.595-3.091zm-38.658-27.929c-2.368-1.778-4.247-3.201-6.479-4.896-.272 2.926-.49 5.416-.735 8.233 2.559-1.176 4.683-2.161 7.214-3.337zm25.509-1.614c-2.532 1.204-4.764 2.243-7.405 3.474 2.206 1.669 4.138 3.091 6.344 4.76.381-2.927.707-5.416 1.061-8.234zm-36.67 44.205c-.409 2.844-.763 5.252-1.171 8.206 2.722-1.34 4.928-2.435 7.487-3.693-2.233-1.586-4.084-2.927-6.316-4.513z" fill="#131313"/><path d="m135.626 449.213c8.684-5.06 17.015-5.908 25.373-1.531 5.254 2.762 9.12 6.975 11.27 12.637 2.614 6.839 2.314 13.568-1.061 20.078-3.322 6.401-8.63 10.395-16.171 12.638 8.82 5.115 13.802 12.118 14.074 21.884.164 5.525-1.388 10.668-4.791 15.072-4.519 5.799-10.372 9.191-17.832 9.628-7.323.438-13.557-2.188-19.465-7.549 0 10.34-3.648 18.081-11.951 23.196-4.574 2.818-9.61 3.884-14.919 3.283-7.432-.821-13.2852-4.404-17.5321-10.614-4.247-6.209-4.737-13.103-3.2124-20.899-8.9567 5.061-17.6139 5.936-26.3256 1.013-5.3087-3.009-8.875-7.523-10.8351-13.295-2.2596-6.701-1.579-13.184 1.6879-19.394 2.804-5.307 5.2814-7.194 15.2726-12.145-14.7554-11.188-18.7573-24.263-6.1798-39.554 4.2741-5.198 10.5356-7.14 17.2599-7.085 6.6155.054 12.278 2.516 17.2328 7.44 2.2596-19.121 11.8969-28.859 31.3348-25.467 6.452 1.122 11.271 5.553 14.538 11.38 3.266 5.799 3.62 12.008 2.232 19.23zm-6.044 39.062c.136-12.336-9.583-22.157-22.133-22.375-11.8423-.219-21.8607 9.738-22.1057 21.965-.245 12.145 9.6917 22.403 21.8067 22.485 12.387.11 22.296-9.628 22.432-22.075zm-17.45-25.001c11.869 0 21.588-9.547 21.534-21.227-.055-12.009-9.556-21.61-21.425-21.61-11.652 0-21.344 9.765-21.3168 21.5 0 11.653 9.6368 21.337 21.2078 21.337zm-47.1795 22.43c-11.6246.082-21.153 9.738-21.1257 21.419.0544 11.817 9.6645 21.391 21.4252 21.363 11.7607-.027 21.3164-9.711 21.2619-21.528-.0544-11.735-9.8006-21.363-21.5886-21.254zm79.9565 51.125c11.734.082 21.398-9.574 21.426-21.363.027-11.735-9.529-21.309-21.399-21.446-11.352-.11-21.207 9.629-21.316 21.035-.109 11.981 9.42 21.692 21.289 21.774zm4.982-89.065c-11.842-.028-21.371 9.546-21.479 21.61-.109 11.379 9.746 21.199 21.343 21.281 11.625.055 21.316-9.683 21.371-21.5.054-11.516-9.719-21.364-21.235-21.391zm-47.179 65.349c-11.8423 0-21.3706 9.519-21.3706 21.364 0 11.762 9.5283 21.281 21.4526 21.391 11.407.109 21.371-9.875 21.289-21.336-.082-11.9-9.583-21.446-21.371-21.419zm-32.723-30.965c12.0602-.191 21.5613-9.765 21.398-21.61-.1361-11.79-9.9912-21.199-21.997-21.008-11.6246.192-20.9624 9.957-20.7174 21.747.245 11.653 9.8551 21.063 21.3164 20.871zm5.4448 2.681c2.4773 1.668 4.4647 3.036 6.9148 4.677.2178-2.79.3812-5.115.599-7.85-2.6408 1.121-4.8459 2.051-7.5138 3.173zm64.0302 6.592c-2.45-1.668-4.491-3.009-6.833-4.595-.245 2.79-.435 5.142-.653 7.823 2.559-1.094 4.791-2.079 7.486-3.228zm-14.156-21.309c.381-2.899.708-5.225 1.089-8.124-2.641 1.286-4.846 2.352-7.378 3.583 2.233 1.614 4.029 2.9 6.289 4.541zm-29.2385 40.649c-2.314-1.642-4.1925-2.955-6.3976-4.514-.3812 2.845-.6806 5.252-1.0618 8.097 2.6135-1.258 4.8187-2.325 7.4594-3.583zm4.7095-47.077c-2.2049-1.723-4.0833-3.201-6.2613-4.897-.2722 2.845-.4628 5.198-.735 7.988 2.4229-1.067 4.4919-1.97 6.9963-3.064zm19.792 53.833c.245-2.981.436-5.334.626-8.042-2.423 1.094-4.546 2.079-7.051 3.228 2.233 1.696 4.111 3.091 6.398 4.814z" fill="#131313"/><path d="m442.058 610.002c-9.664-.301-17.341-3.966-22.459-12.145-3.158-5.033-4.057-10.641-3.104-16.44 1.171-7.222 4.9-12.857 11.053-16.796 6.071-3.884 12.686-4.294 20.146-2.653-4.819-8.288-5.826-16.412-1.96-24.728 2.368-5.115 6.125-9 11.216-11.407 6.915-3.31 13.911-3.365 20.908-.137 6.969 3.228 11.08 8.918 13.476 16.878 4.818-8.89 11.57-13.814 20.989-14.334 5.772-.301 11.081 1.286 15.736 4.787 6.016 4.514 9.283 10.641 9.746 18.109.463 7.331-2.396 13.622-7.813 19.476 10.127-.246 17.695 3.31 22.922 11.297 3.322 5.061 4.356 10.696 3.458 16.604-1.089 7.222-4.764 12.912-10.917 16.851-6.044 3.884-12.686 4.458-20.282 2.899 5.554 9.656 5.881 18.875.164 27.847-2.913 4.568-7.106 7.851-12.278 9.519-6.725 2.161-13.286 1.641-19.52-1.805-6.125-3.365-9.91-8.699-12.142-16.002-4.873 8.726-11.706 13.567-21.071 14.142-6.235.383-11.87-1.559-16.661-5.608-5.445-4.568-8.358-10.531-8.658-17.643-.299-7.085 2.26-13.185 7.079-18.711zm44.403-42.098c-12.197 0-22.269 9.984-22.242 22.102.027 12.282 9.855 22.239 22.024 22.267 12.115.027 22.242-10.012 22.269-22.103 0-12.172-9.964-22.266-22.051-22.266zm18.539 86.057c11.407.328 21.208-9.109 21.534-20.735.354-11.926-8.847-21.829-20.581-22.157-11.951-.356-21.834 9.136-22.16 21.227-.3 11.544 9.283 21.336 21.207 21.665zm-45.927-4.897c12.088-.109 21.535-9.738 21.453-21.801-.082-11.407-10.046-21.145-21.561-21.063-11.652.082-21.208 9.848-21.126 21.665.081 11.735 9.664 21.309 21.234 21.199zm33.241-96.506c.109 11.653 9.664 21.337 20.962 21.309 12.006-.054 21.807-9.847 21.671-21.719-.137-11.872-10.046-21.309-22.215-21.145-11.189.164-20.527 10.012-20.445 21.555zm61.472 42.071c-.164-11.817-9.91-21.391-21.589-21.227-11.652.164-21.18 9.902-21.071 21.528.109 11.899 9.691 21.418 21.479 21.309s21.371-9.848 21.181-21.61zm-113.334-30.828c-11.379-.274-21.289 9.464-21.507 21.09-.19 11.544 9.338 21.555 20.799 21.829 11.707.273 21.48-9.164 21.807-21.036.326-11.844-9.093-21.61-21.099-21.883zm48.323-16.249c-.027-11.926-9.529-21.418-21.344-21.363-11.597.054-21.262 9.792-21.207 21.363.081 12.036 9.446 21.528 21.234 21.473 11.761-.027 21.344-9.683 21.317-21.473zm-3.757 17.206c2.858.246 5.118.465 7.813.684-1.062-2.626-1.96-4.869-3.103-7.632-1.661 2.435-3.049 4.486-4.737 6.948zm2.749 50.496c-2.912-.219-5.172-.383-7.84-.601 1.089 2.598 2.015 4.814 3.103 7.44 1.661-2.407 3.05-4.404 4.737-6.839zm-23.929-36.655c1.633-2.297 2.994-4.212 4.6-6.455-2.912-.356-5.308-.657-8.112-1.012 1.198 2.544 2.232 4.732 3.512 7.467zm48.594 30.473c-1.306-2.708-2.368-4.951-3.593-7.522-1.634 2.325-2.968 4.185-4.492 6.319 2.749.41 5.091.738 8.085 1.176zm-47.206-5.142c-1.198-2.626-2.178-4.787-3.294-7.277-1.688 2.325-3.131 4.268-4.71 6.456 2.777.274 5.146.52 8.031.821zm45.546-20.489c1.769-2.325 3.239-4.24 4.982-6.565-2.941-.137-5.336-.273-8.14-.41 1.116 2.462 2.014 4.459 3.158 6.975z" fill="#131313"/><path d="m620.103 396.639c-4.873 8.37-11.189 13.349-20.255 14.087-6.125.492-11.788-.957-16.661-4.76-5.826-4.513-9.092-10.504-9.474-17.944-.381-7.276 2.124-13.54 7.433-19.066-17.832-1.887-27.687-10.613-25.836-29.105.708-7.167 4.928-12.638 11.08-16.413 6.017-3.72 12.523-4.458 20.119-2.434-5.309-9.027-6.235-17.534-1.498-26.178 2.832-5.17 7.024-8.972 12.551-10.997 6.724-2.461 13.339-2.133 19.764 1.177s10.264 8.698 12.578 16.248c5.608-9.765 13.394-14.689 24.147-14.087 5.636.328 10.536 2.516 14.647 6.373 5.063 4.733 7.595 10.614 7.677 17.589.082 6.866-2.614 12.638-7.296 17.862 17.097 1.778 26.87 10.121 25.835 27.984-.435 7.44-4.492 13.157-10.644 17.233-6.126 4.049-12.904 4.787-20.636 2.927 5.2 8.781 5.962 17.206 1.661 25.713-2.75 5.444-7.133 9.246-12.85 11.325-6.724 2.462-13.421 2.188-19.792-1.149-6.343-3.31-10.318-8.671-12.55-16.358zm26.979-47.624c.054-12.2-9.828-22.267-21.97-22.403-11.951-.11-22.024 9.902-22.106 21.992-.108 12.447 9.801 22.65 21.943 22.622 12.169-.027 22.079-9.984 22.133-22.239zm-46.798-4.951c-.054-11.79-9.692-21.391-21.425-21.364-11.652.027-21.344 9.875-21.289 21.555.054 11.845 9.827 21.446 21.724 21.364 11.516-.082 21.044-9.848 20.99-21.528zm73.26-33.236c-.545-12.2-10.373-21.555-22.025-20.953-11.951.629-21.071 10.394-20.662 22.129.435 11.763 10.59 21.282 22.078 20.708 11.843-.602 21.126-10.477 20.609-21.884zm-2.396 21.473c-11.842 0-21.262 9.656-21.289 21.747 0 11.598 9.692 21.254 21.343 21.2 11.434-.055 21.235-9.793 21.235-21.145 0-12.036-9.528-21.829-21.289-21.829zm-5.908 59.633c.436-11.544-9.011-21.473-20.88-21.938-11.162-.438-21.29 9.026-21.752 20.269-.49 12.227 8.602 22.212 20.554 22.595 11.869.383 21.616-8.863 22.051-20.926zm-37.759-85.455c.081-11.598-9.501-21.254-21.181-21.309-11.733-.082-21.452 9.546-21.506 21.281-.055 11.653 9.555 21.419 21.098 21.446 12.006.055 21.507-9.382 21.589-21.418zm-29.865 101.457c11.951.027 21.48-9.383 21.48-21.2 0-11.899-9.501-21.5-21.235-21.5-11.788 0-21.371 9.574-21.371 21.391s9.393 21.254 21.126 21.309zm20.799-34.494c1.144 2.708 2.124 5.033 3.267 7.714 1.661-2.434 3.022-4.459 4.628-6.784-2.804-.328-5.145-.602-7.868-.93zm27.959-37.968c1.035 2.353 1.96 4.404 3.076 6.866 1.77-2.352 3.295-4.349 5.2-6.866zm-22.623-11.899c2.831.301 5.118.547 7.841.848-1.226-2.735-2.206-4.896-3.322-7.385-1.606 2.352-2.886 4.185-4.519 6.565zm27.306 44.342c-1.225-2.572-2.287-4.815-3.539-7.441-1.634 2.298-3.022 4.24-4.656 6.538 2.94.328 5.363.574 8.167.903zm-55.374-5.663c2.995.192 5.363.328 8.14.493-1.143-2.572-2.096-4.733-3.185-7.195-1.715 2.326-3.185 4.295-4.955 6.702zm6.915-24.783c1.661-2.407 2.995-4.322 4.519-6.51-2.858-.301-5.2-.547-7.976-.848 1.197 2.571 2.232 4.76 3.457 7.358z" fill="#131313"/><path d="m380.042 454.411c8.712-3.775 16.58-3.884 24.094.629 5.689 3.392 9.365 8.507 10.889 14.963 1.634 7.003.599 13.622-3.512 19.586-4.029 5.853-9.828 8.999-17.069 10.203 12.795 12.254 15.545 25.193 2.858 38.788-4.846 5.197-11.488 6.784-18.539 6.1-6.97-.656-12.387-4.212-17.342-9.875-1.062 10.094-5.608 17.179-14.211 21.227-5.717 2.708-11.733 3.036-17.75 1.012-10.154-3.419-20.309-15.455-14.537-32.633-16.389 5.306-28.694 1.203-34.52-15.893-2.314-6.784-.681-13.568 3.375-19.559 4.03-5.963 9.801-9.218 17.478-10.613-8.412-6.483-12.387-14.416-10.944-24.482.844-5.827 3.567-10.832 8.086-14.635 5.281-4.431 11.434-6.428 18.294-5.635 6.725.794 12.224 3.967 16.688 9.629 4.111-17.589 14.184-25.987 32.098-21.856 6.833 1.586 11.488 6.51 14.455 12.856 2.968 6.374 2.641 12.912.055 20.188zm-54.23 34.931c.136 12.392 10.046 21.993 22.596 21.856 11.625-.136 21.344-10.312 21.262-22.266-.082-12.255-10.046-21.938-22.405-21.801-11.952.136-21.589 10.093-21.453 22.211zm65.828 7.577c11.815.055 21.262-9.327 21.289-21.09 0-11.762-9.365-21.281-21.071-21.391-11.625-.109-21.153 9.41-21.235 21.173-.082 11.844 9.174 21.226 21.017 21.308zm-88.179 26.917c11.434.137 21.235-9.437 21.398-20.926.191-11.981-9.201-21.446-21.37-21.582-11.434-.11-20.854 9.382-20.99 21.199-.136 11.489 9.365 21.145 20.962 21.282zm10.89-87.479c-10.999-.356-20.99 9-21.425 20.051-.463 12.036 8.766 22.102 20.527 22.458 11.869.328 21.561-9.055 21.833-21.145.245-11.325-9.174-20.954-20.935-21.337zm43.558 29.105c11.761.055 21.235-9.437 21.344-21.418.109-11.325-9.447-20.981-20.881-21.063-11.924-.082-21.48 9.355-21.452 21.199 0 11.571 9.528 21.227 20.989 21.255zm23.331 33.974c-11.461-.082-21.017 9.465-21.126 21.09-.108 11.763 9.447 21.364 21.344 21.391 11.461.028 21.017-9.601 21.017-21.199 0-11.681-9.474-21.2-21.235-21.282zm-44.13 13.623c-11.679-.055-20.908 9.191-21.017 21.062-.081 11.489 9.311 21.2 20.636 21.309 11.897.11 21.589-9.273 21.698-21.035.108-11.845-9.311-21.254-21.317-21.309zm35.555-22.075c-.626 2.708-1.144 4.923-1.77 7.631 2.695-.765 5.009-1.422 7.677-2.188-2.042-1.86-3.784-3.474-5.935-5.416zm-39.094 19.066c-1.987-1.915-3.648-3.502-5.635-5.389-.735 2.735-1.361 5.06-2.124 7.905 2.75-.875 5.009-1.614 7.759-2.516zm4.764-51.016c-.49 2.325-1.007 4.677-1.606 7.495 2.695-.875 4.9-1.587 6.615-2.161-1.66-1.778-3.239-3.447-5.009-5.334zm-15.626 28.257c.599-2.79 1.061-4.924 1.606-7.495-2.695.766-4.9 1.422-7.568 2.188 2.123 1.888 3.865 3.419 5.962 5.307zm35.963 24.591c-2.723.876-4.901 1.559-6.561 2.079 1.497 1.86 2.994 3.693 4.764 5.881.626-2.762 1.143-5.087 1.769-7.96zm10.78-46.092c-2.804.985-5.063 1.778-7.622 2.654 2.069 1.86 3.729 3.337 5.662 5.06.681-2.681 1.252-4.896 1.987-7.714z" fill="#131313"/><path d="m301.283 197.912c-8.14-6.046-12.06-13.732-11.08-23.416.599-5.935 3.185-11.105 7.677-15.099 5.227-4.65 11.38-6.702 18.376-6.128 7.024.575 12.523 3.967 17.478 9.903 1.443-11.079 6.697-18.629 16.77-22.185 5.118-1.805 10.372-1.75 15.518.055 4.246 1.45 7.758 3.994 10.617 7.468 2.886 3.474 4.955 7.44 5.145 11.899.191 4.295-.463 8.644-.735 13.157 9.147-3.857 18.186-3.173 26.326 3.584 4.356 3.611 7.023 8.37 7.976 13.896 1.171 6.756-.109 13.13-4.274 18.737-4.083 5.499-9.637 8.535-16.661 9.629 13.068 12.446 16.198 26.178 2.45 38.898-11.624 10.75-24.256 7.714-35.445-3.529-.953 9.492-5.309 16.331-13.367 20.571-4.928 2.598-10.264 3.228-15.627 2.106-7.35-1.559-12.931-5.744-16.47-12.528-3.458-6.647-3.376-13.541-.79-21.2-9.555 3.967-18.076 3.584-25.944-2.243-4.764-3.529-7.65-8.316-9.039-14.06-2.586-10.778 3.322-26.014 21.099-29.488zm46.471 32.852c12.006 0 21.97-9.957 21.888-21.883-.054-12.228-9.746-22.102-21.67-22.102-12.387 0-22.269 9.683-22.215 21.746.055 12.556 9.665 22.267 21.97 22.239zm-33.594-74.732c-11.652-.054-21.153 9.328-21.262 20.926-.109 11.653 9.338 21.446 20.745 21.501 11.897.055 21.561-9.246 21.615-20.844.055-12.009-9.228-21.528-21.098-21.583zm56.462 39.254c-.217 11.543 9.039 20.98 20.881 21.254 11.652.274 21.235-9.109 21.453-20.981.217-11.379-9.42-21.254-20.881-21.473-11.761-.219-21.235 9.136-21.48 21.227zm-12.659-10.34c11.598.219 21.017-9.109 21.344-21.09.299-11.27-9.256-21.118-20.69-21.282-11.816-.164-21.562 9.136-21.752 20.735-.191 11.817 9.147 21.418 21.071 21.664zm2.151 55.365c-.082 11.543 9.365 21.117 20.962 21.227 11.707.109 21.262-9.328 21.371-21.09.109-11.653-9.474-21.391-21.071-21.419-11.57-.054-21.18 9.574-21.262 21.282zm-22.759 34.548c11.842-.136 21.207-9.601 21.098-21.309-.109-12.036-9.746-21.199-22.133-21.035-11.08.137-20.336 10.012-20.173 21.446.164 11.762 9.583 21.035 21.18 20.871zm-33.241-73.829c-11.325-.41-21.098 8.781-21.588 20.352-.49 11.406 8.684 21.528 20.009 21.993 11.815.492 21.943-8.617 22.351-20.133.436-12.009-8.657-21.747-20.745-22.212zm34.357-22.978c-.626 2.873-1.116 5.253-1.742 8.043 2.722-.821 4.927-1.505 7.078-2.134-1.743-1.942-3.294-3.638-5.336-5.909zm34.248 32.525c-.654 2.763-1.198 5.033-1.824 7.741 2.804-.821 5.172-1.532 7.867-2.325-2.123-1.915-3.893-3.474-6.043-5.416zm-14.048 20.844c-2.695.82-4.927 1.504-6.751 2.079 1.633 1.832 3.212 3.583 5.036 5.607.572-2.544 1.089-4.841 1.715-7.686zm-25.073-1.888c-2.042-1.942-3.703-3.528-5.663-5.388-.708 2.79-1.307 5.197-1.987 7.987 2.722-.93 4.982-1.696 7.65-2.599zm-17.07-28.011c2.342 1.97 4.166 3.529 6.235 5.28.571-2.708 1.034-4.924 1.579-7.495-2.75.766-5.01 1.422-7.814 2.215zm50.991-8.37c.68-2.708 1.252-4.924 1.933-7.686-2.777.875-5.037 1.586-7.65 2.407 2.042 1.887 3.675 3.419 5.69 5.279z" fill="#131313"/><path d="m180.028 267.69c-7.024-5.17-10.998-11.899-10.862-20.707.081-5.99 2.014-11.407 6.043-15.838 5.091-5.608 11.571-8.234 19.139-7.905 7.432.355 13.394 3.774 18.512 9.984 1.198-9.574 5.336-16.577 13.367-20.871 5.064-2.681 10.536-3.31 16.089-2.079 7.296 1.614 12.741 5.853 16.226 12.501 3.457 6.647 3.321 13.54.708 21.117 9.719-3.994 18.458-3.556 26.434 2.599 4.982 3.829 7.868 9.081 8.848 15.236 1.661 10.559-4.138 24.619-20.881 27.847 13.095 12.665 15.463 25.932 1.634 39.499-4.873 4.787-11.38 5.991-18.132 5.252-6.697-.738-11.924-4.212-16.606-9.765-1.198 9.601-5.309 16.741-13.503 20.953-4.601 2.353-9.556 3.146-14.647 2.161-7.595-1.449-13.421-5.443-17.178-12.336-3.757-6.839-3.594-13.951-1.007-21.72-8.413 3.748-16.117 3.775-23.631-.52-5.39-3.091-9.147-7.686-10.78-13.595-.926-3.364-1.28-7.139-.817-10.586.463-3.337 1.769-6.838 3.648-9.656 1.906-2.899 4.655-5.471 7.541-7.385 2.804-1.861 6.289-2.736 9.855-4.213zm46.444 33.236c12.196 0 22.106-9.711 22.242-21.829.136-12.227-9.637-22.239-21.725-22.266-12.169-.028-22.187 9.656-22.214 21.5-.028 12.419 9.719 22.567 21.724 22.595zm-10.481-66.936c.054 11.79 9.637 21.227 21.534 21.172 11.38-.055 20.908-9.793 20.881-21.336 0-11.434-9.828-21.309-21.072-21.255-11.815.082-21.37 9.684-21.343 21.419zm.327 111.086c11.706 0 21.071-9.355 21.098-21.008.027-11.845-9.637-21.61-21.262-21.528-11.706.109-20.935 9.546-20.989 21.473-.055 11.516 9.555 21.063 21.18 21.035zm-54.857-53.177c-.19 11.598 9.229 21.446 20.827 21.719 11.597.274 21.452-9.355 21.643-21.145.19-11.434-9.338-21.199-20.854-21.363-11.706-.165-21.425 9.191-21.643 20.816zm119.949 18.491c-.054-11.926-9.528-21.281-21.452-21.199-11.68.055-20.827 9.601-20.745 21.61.054 11.543 9.501 20.898 20.99 20.844 11.706-.055 21.261-9.629 21.207-21.255zm-109.386-62.641c.327 12.036 10.019 21.364 22.079 20.789 11.978-.601 20.527-10.641 20.146-22.075-.354-11.242-10.237-20.762-21.29-20.461-12.033.329-21.262 9.93-20.935 21.747zm98.905-3.501c-11.516-.192-21.017 9.081-21.317 20.844-.299 11.434 9.066 21.309 20.391 21.528 12.115.218 21.779-9 21.915-20.981.164-11.735-9.12-21.2-20.989-21.391zm-33.35 57.334c-2.668.821-4.845 1.477-6.125 1.888 1.416 1.832 2.913 3.747 4.601 5.908.517-2.653.98-4.978 1.524-7.796zm-20.254-52.985c-.517 2.435-1.007 4.814-1.579 7.632 2.668-.848 4.846-1.559 6.316-2.024-1.525-1.833-3.077-3.638-4.737-5.635zm-13.912 20.871c-2.695.712-5.009 1.341-7.895 2.107 2.206 1.942 4.002 3.528 6.126 5.416.626-2.681 1.143-4.897 1.769-7.495zm1.552 32.743c2.723-.902 5.037-1.641 7.623-2.489-2.015-1.86-3.675-3.392-5.69-5.224-.708 2.762-1.279 5.033-1.96 7.713zm41.571-38.897c.626-2.736 1.144-5.006 1.77-7.687-2.696.903-4.846 1.614-7.405 2.462 2.014 1.86 3.648 3.392 5.635 5.225zm5.2 17.452c-.626 2.708-1.116 4.978-1.715 7.577 2.749-.793 4.982-1.45 7.677-2.243-2.096-1.888-3.839-3.447-5.962-5.334z" fill="#131313"/><path d="m482.432 324.533c-1.307 10.23-5.853 17.561-14.919 21.5-5.091 2.216-10.345 2.571-15.708 1.067-4.547-1.286-8.467-3.666-11.625-7.222-3.076-3.501-4.791-7.632-5.717-12.2-.953-4.705.3-9.109 1.633-14.142-8.629 3.939-16.661 3.857-24.338-.875-4.628-2.872-7.922-7.003-9.691-12.173-2.478-7.249-1.906-14.334 2.123-20.899 3.975-6.51 10.018-10.093 18.213-11.461-7.895-5.936-11.924-13.13-11.325-22.403.381-6.046 2.722-11.352 7.105-15.647 5.173-5.06 11.434-7.303 18.594-6.811s12.877 3.857 17.913 9.957c1.525-11.462 6.997-19.121 17.451-22.485 5.254-1.669 10.59-1.341 15.735.738 9.665 3.912 18.948 15.291 13.476 31.977 17.179-5.17 29.674-.629 34.711 17.644 1.851 6.647-.055 13.103-4.138 18.738-4.002 5.525-9.556 8.562-16.58 9.738 12.796 11.981 15.273 24.728 3.431 38.186-4.71 5.362-11.353 7.249-18.567 6.73-7.214-.52-12.795-4.076-17.832-9.957zm-13.993-67.702c-11.925 0-21.834 9.984-21.78 21.965.055 12.255 9.828 22.102 21.916 22.102 12.196 0 21.997-9.929 21.997-22.266 0-12.145-9.801-21.801-22.133-21.801zm54.992 53.669c0-11.763-9.61-21.364-21.371-21.337-11.352.028-20.935 9.602-20.99 20.981-.054 11.735 9.42 21.583 20.854 21.665 11.652.109 21.507-9.656 21.507-21.309zm-109.495-63.161c0 11.735 9.583 21.309 21.235 21.254 11.461-.055 21.071-9.711 21.098-21.227.028-11.68-9.718-21.418-21.452-21.418-11.38 0-20.881 9.738-20.881 21.391zm65.447 7.768c11.515-.109 20.962-9.765 20.853-21.336-.082-11.598-9.882-21.309-21.371-21.172-11.597.136-21.098 9.765-20.989 21.254.136 11.899 9.719 21.391 21.507 21.254zm-21.262 89.941c11.869-.054 21.452-9.711 21.289-21.445-.164-11.708-9.719-21.063-21.507-21.009-11.407.055-20.908 9.739-20.881 21.337 0 11.571 9.61 21.172 21.099 21.117zm33.376-79.628c-.054 11.844 9.474 21.172 21.725 21.254 11.026.082 20.581-9.711 20.636-21.09.054-11.653-9.556-21.418-21.126-21.446-11.625-.027-21.18 9.547-21.235 21.282zm-87.988 26.807c-.108 11.489 9.393 21.172 20.936 21.309 11.488.164 21.234-9.492 21.343-21.172.109-11.598-9.392-21.227-21.098-21.419-11.543-.164-21.072 9.41-21.181 21.282zm76.146 9.191c-2.723.875-4.982 1.614-7.596 2.435 2.124 2.024 3.839 3.693 5.908 5.662.599-2.845 1.089-5.17 1.688-8.124zm10.753-45.955c-2.722.903-5.036 1.696-7.65 2.571 2.069 1.915 3.73 3.447 5.717 5.28.681-2.791 1.28-5.143 1.933-7.851zm-35.881 44.232c-2.042-1.86-3.73-3.419-5.69-5.225-.735 2.763-1.334 5.061-2.069 7.823 2.723-.902 5.037-1.668 7.786-2.598zm-9.038-30.363c-2.886.793-5.2 1.449-7.922 2.215 2.123 1.942 3.92 3.556 5.989 5.416.68-2.626 1.225-4.869 1.933-7.631zm12.223-13.131c2.75-.902 4.928-1.613 6.371-2.078-1.47-1.833-2.94-3.721-4.71-5.964-.545 2.736-1.035 5.061-1.633 8.042zm42.061 29.844c-2.205-1.915-4.029-3.474-6.098-5.279-.626 2.68-1.116 4.896-1.715 7.467 2.695-.766 4.955-1.395 7.813-2.215z" fill="#131313"/><g fill="#eaece1"><path d="m371.902 339.687c-1.442-2.544-2.668-4.678-4.083-7.14h8.439c-1.415 2.325-2.749 4.486-4.356 7.14z"/><path d="m327.527 332.547c-1.388 2.435-2.613 4.541-4.029 7.03-1.551-2.434-2.913-4.568-4.492-7.03z"/><path d="m347.728 315.67c1.442 2.708 2.613 4.924 3.974 7.495h-8.085c1.388-2.544 2.695-4.869 4.138-7.495z"/><path d="m479.6 441.746c-.599 2.845-1.061 5.115-1.606 7.632-1.688-2.107-3.212-3.967-4.628-5.717 1.361-.411 3.594-1.095 6.234-1.915z"/><path d="m186.861 590.088c-.136-11.899 9.828-22.075 21.698-22.184 12.632-.109 22.459 9.711 22.541 22.54.082 11.79-9.991 21.801-21.997 21.856-12.114.055-22.078-9.875-22.215-22.184z"/><path d="m184.193 585.192c.164 11.653-9.229 21.254-21.017 21.473-11.706.219-21.479-9.355-21.588-21.172-.109-11.899 9.31-21.638 21.017-21.747 11.842-.109 21.425 9.437 21.588 21.446z"/><path d="m236.055 573.84c-11.679-.055-21.344-9.875-21.235-21.555.082-11.681 9.855-21.391 21.48-21.391 11.516 0 21.262 9.929 21.262 21.637 0 11.625-9.855 21.391-21.507 21.309z"/><path d="m249.231 632.761c-.109 11.762-9.855 21.309-21.616 21.172-11.733-.137-21.18-9.902-21.071-21.746.109-11.517 9.991-21.2 21.534-21.091 11.679.082 21.235 9.875 21.126 21.692z"/><path d="m211.363 547.58c-.082 12.063-9.501 21.446-21.562 21.418-11.434 0-21.098-9.902-21.044-21.555.055-11.653 9.964-21.473 21.534-21.364 11.652.137 21.126 9.793 21.072 21.473z"/><path d="m181.553 649.092c-11.761-.165-21.208-9.93-21.099-21.72.109-11.653 10.073-21.336 21.725-21.145 11.543.219 21.153 10.149 20.962 21.665-.19 11.899-9.828 21.364-21.561 21.2z"/><path d="m276.401 594.93c-.109 11.817-9.61 21.391-21.18 21.364-12.033-.028-21.562-9.738-21.453-21.856.109-11.626 10.046-21.2 21.807-21.008 11.406.191 20.908 10.011 20.799 21.527z"/><path d="m202.488 614.57c2.804.274 5.145.493 7.949.766-1.688 2.407-3.103 4.404-4.764 6.757-1.089-2.572-2.042-4.815-3.185-7.523z"/><path d="m182.859 571.05c2.886.383 5.227.683 8.168 1.066-1.525 2.189-2.859 4.131-4.465 6.429-1.28-2.626-2.396-4.869-3.675-7.523z"/><path d="m231.563 601.495c1.252 2.708 2.26 4.924 3.43 7.495-2.804-.355-5.2-.656-8.031-1.012 1.606-2.243 2.94-4.158 4.601-6.51z"/><path d="m233.441 583.551c-1.17-2.599-2.096-4.651-3.212-7.167 2.859.191 5.281.328 8.113.52-1.661 2.243-3.104 4.212-4.901 6.647z"/><path d="m179.701 603.191c1.688-2.243 3.104-4.131 4.792-6.374 1.116 2.271 2.151 4.377 3.484 7.058-2.885-.246-5.363-.438-8.276-.684z"/><path d="m215.392 565.524c-2.695-.273-4.955-.492-7.732-.766 1.634-2.352 3.049-4.376 4.71-6.756 1.116 2.762 2.015 5.006 3.022 7.522z"/><path d="m610.03 209.784c0 12.2-9.937 22.157-22.161 22.157-12.196 0-22.105-9.93-22.133-22.212-.027-12.009 9.992-22.13 21.97-22.184 12.441-.055 22.297 9.765 22.324 22.211z"/><path d="m524.302 228.628c0-12.09 9.556-21.363 21.888-21.336 11.162.055 20.799 9.957 20.69 21.336-.081 12.009-9.664 21.556-21.561 21.501-11.57-.055-21.044-9.738-21.017-21.501z"/><path d="m592.661 184.891c-11.843.055-21.317-9.437-21.344-21.391 0-11.79 9.556-21.391 21.398-21.391 11.543 0 21.208 9.711 21.235 21.336 0 11.927-9.392 21.391-21.289 21.446z"/><path d="m583.215 234.646c11.624.055 21.18 9.711 21.125 21.364-.054 11.817-9.718 21.555-21.316 21.473-11.842-.082-21.343-9.82-21.316-21.774.027-11.516 9.828-21.09 21.507-21.035z"/><path d="m604.123 236.889c.136-11.926 9.61-21.254 21.534-21.145 11.733.083 21.234 9.903 21.044 21.692-.191 11.681-9.91 21.2-21.48 21.063-11.87-.164-21.207-9.71-21.071-21.582z"/><path d="m630.311 212.191c-11.788 0-21.343-9.41-21.398-21.09-.054-11.954 9.447-21.802 21.044-21.747 11.979.027 21.562 9.601 21.562 21.528 0 11.707-9.529 21.309-21.18 21.309z"/><path d="m529.12 182.402c.027-12.009 9.528-21.364 21.616-21.309 11.461.055 20.99 9.711 20.935 21.282-.027 11.871-9.637 21.555-21.289 21.473-11.897-.082-21.316-9.574-21.289-21.446z"/><path d="m594.431 234.291c2.614-1.204 4.683-2.134 7.187-3.283-.163 2.845-.327 5.252-.517 8.261-2.287-1.696-4.247-3.173-6.697-4.978z"/><path d="m606.79 183.551c-.381 2.954-.681 5.334-1.034 8.179-2.178-1.587-4.057-2.955-6.289-4.568 2.532-1.259 4.682-2.326 7.323-3.611z"/><path d="m568.977 236.014c.408-2.982.735-5.443 1.116-8.288 2.178 1.614 4.029 2.954 6.261 4.595-2.45 1.231-4.628 2.325-7.35 3.693z"/><path d="m581.2 185.329c-2.478 1.149-4.547 2.106-7.133 3.282.245-2.817.463-5.252.708-8.206 2.259 1.723 4.111 3.173 6.397 4.924z"/><path d="m612.208 216.319c.354-2.845.599-5.061.926-7.769 2.314 1.559 4.301 2.927 6.751 4.568-2.749 1.149-4.982 2.079-7.677 3.201z"/><path d="m562.633 211.04c-2.423-1.642-4.328-2.955-6.67-4.569 2.505-1.121 4.737-2.106 7.487-3.337-.272 2.736-.517 5.033-.817 7.878z"/><path d="m208.967 85.677c12.114-.0547 22.187 10.0117 22.187 22.184 0 11.954-9.937 22.212-21.616 22.294-12.496.11-22.623-9.847-22.677-22.239-.028-12.2 9.882-22.157 22.106-22.2117z"/><path d="m190.291 44.0165c11.57 0 21.18 9.6013 21.207 21.2816.028 11.6803-9.691 21.5552-21.289 21.5826-11.788.0273-21.452-9.7381-21.425-21.6373.027-11.7623 9.583-21.1996 21.507-21.2269z"/><path d="m182.042 124.083c11.488.054 21.18 9.847 21.18 21.445 0 11.626-9.773 21.391-21.48 21.419-11.515.054-21.234-9.738-21.234-21.364 0-11.954 9.637-21.583 21.534-21.528z"/><path d="m276.428 112.758c0 11.707-9.474 21.281-21.181 21.336-11.706.055-21.534-9.546-21.534-21.063 0-12.008 9.637-21.8284 21.371-21.7737 11.815.0547 21.344 9.6287 21.344 21.4727z"/><path d="m236.245 48.7761c11.679 0 21.262 9.6561 21.289 21.4732 0 11.8717-9.556 21.309-21.616 21.3637-11.352.0547-21.098-9.8749-21.098-21.4731 0-11.653 9.746-21.3638 21.452-21.3911z"/><path d="m249.176 150.397c0 11.872-9.474 21.309-21.37 21.391-11.652.082-21.262-9.792-21.235-21.856 0-11.434 9.909-21.063 21.561-21.008s21.072 9.656 21.072 21.446z"/><path d="m184.111 103.184c-.163 12.2-9.501 21.363-21.643 21.254-11.625-.109-21.017-9.82-20.881-21.61.136-11.8169 9.855-21.3636 21.589-21.1995 11.652.1368 21.071 9.875 20.935 21.5555z"/><path d="m230.229 93.938c2.858.2462 5.281.465 8.031.7112-1.443 2.0789-2.696 3.9937-4.057 5.7988-.163.219-1.252.11-1.334-.109-.898-1.997-1.688-4.0485-2.64-6.401z"/><path d="m191.053 89.9443c-1.579 2.243-2.94 4.1578-4.546 6.4556-1.253-2.5987-2.369-4.8417-3.675-7.5225 2.858.383 5.335.6839 8.221 1.0669z"/><path d="m212.315 75.8568c1.116 2.5987 2.042 4.787 3.185 7.413-2.722-.2188-5.036-.4103-7.867-.6291 1.66-2.4072 3.021-4.3767 4.682-6.7839z"/><path d="m210.355 133.137c-1.606 2.38-2.967 4.404-4.628 6.893-1.089-2.626-2.042-4.896-3.131-7.577 2.777.246 5.037.438 7.759.684z"/><path d="m231.453 119.296c1.307 2.708 2.369 4.951 3.621 7.549-2.804-.383-5.199-.684-8.085-1.066 1.47-2.107 2.777-4.022 4.464-6.483z"/><path d="m184.601 114.509c1.171 2.598 2.096 4.677 3.185 7.139-2.777-.191-5.145-.356-8.112-.574 1.687-2.271 3.13-4.186 4.9-6.565z"/><path d="m107.04 231.859c-12.0329-.083-21.8335-10.149-21.7246-22.294.1088-12.255 10.0728-22.075 22.3236-22.02 12.224.054 22.051 10.175 21.942 22.649-.108 12.2-10.018 21.774-22.514 21.692z"/><path d="m102.848 277.483c-11.7877.055-21.3433-9.464-21.4522-21.336-.0817-11.817 9.4467-21.528 21.1802-21.583 11.842-.027 21.452 9.574 21.534 21.555.082 11.407-9.773 21.309-21.262 21.337z"/><path d="m70.0972 161.093c11.8424 0 21.2891 9.519 21.2619 21.446 0 11.762-9.6917 21.363-21.4525 21.336-11.6791-.027-21.3163-9.793-21.2891-21.528.0272-11.79 9.5828-21.227 21.4797-21.227z"/><path d="m149.863 212.218c-11.788 0-21.343-9.519-21.398-21.391-.081-11.598 9.61-21.364 21.181-21.336 11.869 0 21.588 9.628 21.561 21.254-.027 11.79-9.637 21.473-21.344 21.473z"/><path d="m43.8811 228.875c0-11.845 9.5828-21.583 21.2347-21.556 11.6518.028 21.4252 9.684 21.4252 21.145 0 11.954-9.5828 21.692-21.398 21.665-11.6518-.027-21.2619-9.629-21.2619-21.254z"/><path d="m145.181 215.662c11.679.137 21.262 9.821 21.126 21.392-.109 11.981-9.828 21.582-21.643 21.418-11.597-.164-21.098-9.902-21.017-21.528.082-11.79 9.828-21.418 21.507-21.282z"/><path d="m112.022 184.891c-11.87-.246-21.2618-9.984-21.0168-21.746.245-11.818 10.0188-21.31 21.7248-21.036 11.652.246 21.262 10.176 20.935 21.61-.327 11.872-10.1 21.418-21.643 21.172z"/><path d="m125.362 191.867c-2.314-1.669-4.247-3.037-6.507-4.678 2.586-1.286 4.873-2.407 7.568-3.748-.381 2.927-.707 5.417-1.088 8.426z"/><path d="m139.519 213.091c-2.723 1.149-4.928 2.079-7.541 3.173.218-2.708.408-5.006.626-7.823 2.314 1.559 4.329 2.899 6.888 4.65z"/><path d="m82.9202 203.189c-.1906 2.79-.3539 5.142-.5445 7.96-2.3685-1.614-4.3831-2.954-6.8332-4.623 2.5046-1.121 4.6825-2.106 7.3777-3.337z"/><path d="m94.3809 180.214c2.314 1.778 4.2197 3.255 6.4521 5.005-2.3957 1.095-4.4647 2.025-7.051 3.228.1906-2.79.3811-5.224.5989-8.206z"/><path d="m89.6445 227.808c2.2051 1.586 4.0291 2.872 6.2887 4.459-2.5046 1.23-4.7097 2.297-7.3504 3.556.3811-2.845.6806-5.198 1.0617-8.043z"/><path d="m120.544 239.242c-2.369-1.888-4.22-3.365-6.371-5.061 2.45-1.094 4.465-1.996 6.97-3.091-.218 2.79-.381 5.198-.599 8.152z"/><path d="m486.542 85.7044c12.686.383 22.269 10.3673 21.97 22.8406-.3 12.146-10.781 21.966-23.059 21.555-11.951-.382-21.67-10.969-21.235-23.141.436-11.79 10.726-21.6375 22.324-21.2819z"/><path d="m467.267 43.9617c11.652-.0821 21.371 9.492 21.48 21.0902.109 12.4735-9.583 21.5278-20.717 21.774-12.006.2462-21.698-9.2457-21.807-20.926-.109-12.1727 9.175-21.8561 21.044-21.9382z"/><path d="m492.286 70.0031c.055-11.7077 9.637-21.2817 21.262-21.227 11.842.0547 21.425 9.7381 21.371 21.692-.027 11.4341-9.801 21.1449-21.208 21.0902-12.033-.0548-21.479-9.5741-21.425-21.5552z"/><path d="m437.838 145.61c-.082-11.68 9.501-21.473 21.017-21.528 11.87-.027 21.589 9.438 21.67 21.145.082 11.927-9.419 21.501-21.425 21.61-11.57.082-21.18-9.492-21.262-21.227z"/><path d="m440.207 124.411c-11.979-.164-21.562-9.93-21.344-21.72.218-11.5431 10.236-21.3085 21.589-21.035 11.896.2735 21.37 9.957 21.18 21.637-.191 11.735-9.882 21.282-21.425 21.118z"/><path d="m505.326 128.897c11.815.109 21.344 9.793 21.208 21.582-.164 12.036-9.692 21.337-21.779 21.227-11.435-.109-21.126-10.121-20.963-21.664.163-11.571 10.018-21.227 21.534-21.118z"/><path d="m553.758 112.539c.027 11.899-9.447 21.5-21.18 21.528-11.788 0-21.426-9.574-21.48-21.337-.055-11.598 9.637-21.3632 21.153-21.3906 11.897-.0273 21.452 9.4376 21.507 21.2266z"/><path d="m507.504 93.938c3.077.2735 5.5.4924 8.276.7386-1.688 2.2704-3.158 4.2125-4.954 6.5924-1.117-2.4893-2.124-4.6503-3.349-7.3584z"/><path d="m489.673 75.6927c1.143 2.7628 2.069 4.9512 3.158 7.5772-2.641-.2188-4.955-.4103-7.814-.6292 1.607-2.3798 2.968-4.4314 4.656-6.948z"/><path d="m508.866 119.268c1.279 2.736 2.341 4.924 3.566 7.523-2.804-.383-5.2-.684-8.031-1.067 1.497-2.161 2.804-4.049 4.465-6.456z"/><path d="m465.226 121.703c-2.968-.219-5.391-.411-8.277-.629 1.743-2.298 3.213-4.24 4.955-6.538 1.116 2.434 2.096 4.541 3.322 7.194z"/><path d="m483.03 140.03c-1.143-2.763-2.015-4.896-3.076-7.495 2.586.192 4.845.356 7.677.547-1.579 2.38-2.94 4.432-4.601 6.921z"/><path d="m468.438 90.1357c-1.742 2.3252-3.022 4.0211-4.546 6.0727-1.253-2.5166-2.342-4.6776-3.676-7.3583 2.968.465 5.391.848 8.249 1.2856z"/><path d="m587.843 510.35c-12.333 0-22.133-9.957-22.106-22.43.027-12.118 10.018-21.966 22.323-21.993 12.088 0 21.97 9.984 21.97 22.321 0 12.2-9.909 22.102-22.187 22.102z"/><path d="m608.887 469.073c-.109-11.544 9.528-21.255 21.18-21.337 11.543-.109 21.344 9.52 21.507 21.091.163 11.68-9.447 21.801-20.772 21.856-12.332.054-21.806-9.301-21.915-21.61z"/><path d="m625.248 536.884c-11.815-.055-21.261-9.629-21.207-21.528.054-11.598 9.692-21.391 20.99-21.254 12.142.137 21.779 9.547 21.806 21.282 0 11.844-9.719 21.528-21.589 21.5z"/><path d="m529.148 460.921c0-11.844 9.555-21.5 21.262-21.473 11.652.027 21.262 9.629 21.262 21.227 0 11.79-9.502 21.583-20.936 21.555-12.141 0-21.588-9.355-21.615-21.336z"/><path d="m592.28 463.301c-11.379-.082-20.989-9.984-20.935-21.637.054-11.735 9.937-21.337 21.861-21.2 11.352.137 20.826 9.957 20.744 21.528-.081 11.954-9.664 21.364-21.67 21.309z"/><path d="m524.329 506.931c-.027-11.79 9.447-21.172 21.453-21.172 11.543 0 21.071 9.683 21.044 21.418 0 11.79-9.665 21.446-21.398 21.419-11.652 0-21.072-9.711-21.126-21.665z"/><path d="m583.215 513.113c12.141.137 21.234 9.629 21.098 22.02-.136 11.407-9.991 20.927-21.507 20.735-11.706-.191-21.207-10.012-21.071-21.774s9.692-21.09 21.452-20.981z"/><path d="m568.922 514.317c.354-2.845.654-5.252 1.035-8.179 2.205 1.559 4.083 2.927 6.397 4.568-2.559 1.231-4.764 2.325-7.432 3.611z"/><path d="m601.564 509.393c-.164 2.927-.3 5.307-.463 8.261-2.314-1.723-4.356-3.228-6.67-4.951 2.423-1.122 4.574-2.106 7.133-3.31z"/><path d="m581.309 463.684c-2.613 1.149-4.71 2.079-7.214 3.2.218-2.844.408-5.279.626-8.261 2.341 1.806 4.274 3.283 6.588 5.061z"/><path d="m555.773 484.774c2.831-1.121 5.009-1.997 7.595-3.036-.245 2.653-.462 4.924-.707 7.741-2.396-1.614-4.411-3.009-6.888-4.705z"/><path d="m613.134 486.908c2.287 1.559 4.328 2.927 6.724 4.568-2.613 1.121-4.9 2.079-7.595 3.228.299-2.763.544-5.088.844-7.769z"/><path d="m605.838 470.194c-2.233-1.614-4.111-2.981-6.425-4.65 2.504-1.204 4.655-2.243 7.214-3.474-.272 2.845-.517 5.197-.789 8.124z"/><path d="m92.3942 349.042c0 11.981-9.964 22.13-21.6975 22.184-12.6047.055-22.5142-9.929-22.4325-22.649.0816-12.2 10.2362-22.047 22.6775-21.965 11.6519.082 21.4797 10.34 21.4525 22.43z"/><path d="m64.408 386.572c.0817 11.872-9.3378 21.419-21.1802 21.473-11.4613.055-21.2891-9.546-21.398-20.898-.1089-12.064 9.2834-21.857 21.0713-21.939 12.0058-.082 21.4525 9.246 21.5342 21.364z"/><path d="m30.1058 306.834c-.2994-11.735 9.0384-21.391 20.9625-21.774 11.5974-.383 21.5069 9.356 21.7519 21.309.2178 11.462-9.365 21.255-21.0713 21.528-11.6791.274-21.3708-9.136-21.6703-21.063z"/><path d="m118.829 311.293c0 11.708-9.774 21.473-21.3983 21.419-11.6246-.055-21.2347-9.684-21.2891-21.309-.0545-11.9 9.5556-21.501 21.5341-21.501 11.5433 0 21.1263 9.684 21.1263 21.391z"/><path d="m2.90905 343.982c.02722-11.626 9.80065-21.364 21.28915-21.255 11.9785.11 21.4524 9.766 21.3435 21.692-.1089 11.462-9.855 21.172-21.2074 21.145-11.8969-.027-21.50693-9.683-21.45248-21.582z"/><path d="m89.2635 412.75c-11.9241-.082-21.398-9.546-21.3436-21.363.0545-11.818 9.719-21.528 21.3708-21.419 11.7603.109 21.3163 9.82 21.2073 21.583-.082 11.789-9.61 21.281-21.2617 21.199z"/><path d="m116.242 332.356c11.598-.164 21.29 9.437 21.507 21.364.218 11.488-9.474 21.418-21.044 21.555-11.652.137-21.3978-9.328-21.5884-20.954-.1906-11.953 9.2564-21.774 21.0984-21.938z"/><path d="m94.7355 342.395c-1.1706-2.571-2.1235-4.678-3.2397-7.167 2.8313.137 5.3359.274 8.3306.438-1.7968 2.38-3.2941 4.377-5.0909 6.729z"/><path d="m40.8594 362.199c1.9057-2.516 3.3485-4.404 5.0636-6.674 1.089 2.489 2.0418 4.65 3.158 7.222-2.8857-.192-5.3359-.356-8.2216-.548z"/><path d="m66.9671 381.047c-1.1162-2.708-2.0146-4.951-3.1036-7.632 2.7769.355 5.0909.656 7.7861.985-1.6335 2.325-3.0219 4.294-4.6825 6.647z"/><path d="m96.3961 367.862c-2.8858-.301-5.2543-.575-8.1944-.903 1.5789-2.243 2.9402-4.185 4.5464-6.483 1.2523 2.571 2.3412 4.732 3.6207 7.358z"/><path d="m76.9309 324.478c-2.8312-.356-5.0908-.629-7.8132-.985 1.5517-2.298 2.8857-4.267 4.4919-6.62 1.1434 2.599 2.1235 4.815 3.3213 7.605z"/><path d="m44.3168 330.113c2.8857.301 5.1997.547 8.0038.848-1.579 2.298-2.8585 4.158-4.4647 6.456-1.1979-2.49-2.2596-4.651-3.5663-7.304z"/><path d="m347.591 92.7345c-12.414-.1368-22.161-10.1211-22.024-22.5126.136-12.0906 10.181-22.0203 22.16-21.8561 12.305.1641 22.16 10.1211 22.051 22.2664-.109 12.3094-10.1 22.239-22.187 22.1296z"/><path d="m390.087 30.2299c11.625 0 21.344 9.7381 21.344 21.4731 0 11.5162-9.937 21.4184-21.507 21.4184-11.488 0-21.18-9.7381-21.262-21.3363-.082-11.9539 9.447-21.5279 21.425-21.5552z"/><path d="m385.187 119.268c-11.679-.082-21.398-9.738-21.316-21.2268.054-12.1179 9.474-21.6372 21.37-21.6099 11.788 0 21.453 9.8749 21.344 21.7194-.109 11.6533-9.801 21.1993-21.398 21.1173z"/><path d="m310.049 64.5595c-11.843 0-21.153-9.3279-21.18-21.1449 0-11.9538 9.392-21.5552 21.125-21.5826 11.925 0 21.562 9.6014 21.562 21.5005 0 11.735-9.637 21.2543-21.507 21.227z"/><path d="m364.143 116.642c.191 11.516-9.365 21.528-20.663 21.637-12.224.11-21.779-9.218-21.888-21.363-.109-11.489 9.447-21.3366 20.826-21.5008 12.033-.1641 21.534 9.1368 21.752 21.2268z"/><path d="m373.753 24.7317c-.245 11.8444-9.991 21.2543-21.725 21.0081-11.951-.2462-21.017-10.039-20.799-22.4305.191-11.27 10.209-20.59784 21.834-20.35165 11.679.27354 20.935 10.01165 20.69 21.77405z"/><path d="m305.612 68.1976c11.57.0547 21.207 9.7655 21.18 21.3637 0 11.6527-9.774 21.3367-21.534 21.3087-11.652 0-21.262-9.71-21.181-21.3087.082-12.1453 9.447-21.4184 21.535-21.3911z"/><path d="m333.761 49.3778c.327-3.0636.572-5.4982.871-8.2883 2.287 1.7507 4.247 3.2551 6.48 5.0058-2.559 1.1489-4.683 2.0789-7.378 3.2825z"/><path d="m322.627 72.0272c-2.559-1.778-4.629-3.2278-7.079-4.9238 2.75-1.0941 5.01-1.9695 7.596-2.9816-.164 2.6534-.327 4.9238-.517 7.8781z"/><path d="m366.593 44.3721c-.381 2.8448-.681 5.252-1.062 8.1242-2.15-1.4771-4.056-2.8175-6.425-4.4314 2.614-1.2856 4.874-2.3798 7.487-3.6655z"/><path d="m336.211 93.1174c-2.641 1.313-4.819 2.3798-7.405 3.6654.354-2.8175.654-5.2246 1.035-8.2336 2.205 1.5592 4.11 2.9269 6.37 4.5682z"/><path d="m372.773 69.155c2.45 1.696 4.437 3.0637 6.806 4.705-2.477 1.0668-4.628 1.9968-7.35 3.1731.19-2.6534.353-5.0059.544-7.8781z"/><path d="m360.822 100.038c-2.314-1.8053-4.193-3.2551-6.398-4.951 2.423-1.1216 4.546-2.1337 7.024-3.2826-.218 2.8449-.381 5.2794-.599 8.2336z"/><path d="m347.809 605.133c12.169.082 22.079 10.149 21.97 22.349-.082 12.2-10.018 22.184-21.997 22.074-12.523-.109-22.242-9.874-22.242-22.348 0-12.145 10.1-22.157 22.242-22.075z"/><path d="m321.593 673.683c-.028-11.762 9.446-21.418 21.071-21.473 11.761-.055 21.534 9.547 21.616 21.254.109 11.653-9.746 21.61-21.289 21.61-11.843 0-21.371-9.547-21.398-21.391z"/><path d="m288.951 599.963c.082-11.844 9.529-21.391 21.153-21.309 12.115.082 21.48 9.547 21.398 21.583-.109 11.598-9.937 21.391-21.343 21.309-11.788-.11-21.262-9.766-21.208-21.583z"/><path d="m284.051 645.973c.299-11.79 9.991-21.336 21.425-21.145 11.924.219 21.616 10.313 21.262 22.157-.327 11.489-10.4 21.008-21.915 20.708-11.679-.329-21.099-10.149-20.799-21.72z"/><path d="m373.781 581.225c-.054 11.818-9.665 21.337-21.48 21.282-11.488-.055-21.125-9.656-21.18-21.117-.054-11.982 9.556-21.665 21.398-21.61 11.87.054 21.289 9.574 21.262 21.473z"/><path d="m368.69 608.279c-.027-11.708 9.474-21.254 21.18-21.309 11.625-.027 21.48 9.738 21.507 21.391.027 11.79-9.555 21.391-21.398 21.364-11.815 0-21.235-9.52-21.289-21.446z"/><path d="m363.871 654.48c.028-11.488 9.774-21.254 21.099-21.172 12.087.082 21.643 9.519 21.643 21.391 0 11.626-9.91 21.501-21.48 21.419-11.624-.082-21.262-9.903-21.234-21.638z"/><path d="m323.199 620.78c-.218 2.79-.409 5.142-.626 8.015-2.396-1.614-4.438-3.037-6.915-4.705 2.559-1.122 4.818-2.107 7.541-3.31z"/><path d="m361.394 648.681c-.191 2.9-.327 5.389-.517 8.343-2.369-1.86-4.302-3.392-6.561-5.17 2.504-1.121 4.628-2.079 7.078-3.173z"/><path d="m379.743 630.737c-2.831 1.149-5.036 2.051-7.596 3.091.245-2.708.436-5.061.708-8.015 2.369 1.696 4.438 3.173 6.915 4.924z"/><path d="m341.085 602.808c-2.559 1.176-4.683 2.161-7.214 3.337.245-2.845.49-5.306.735-8.233 2.232 1.696 4.11 3.118 6.479 4.896z"/><path d="m366.594 601.221c-.354 2.818-.681 5.307-1.062 8.234-2.205-1.641-4.111-3.091-6.343-4.76 2.64-1.23 4.873-2.27 7.405-3.474z"/><path d="m329.923 645.399c2.232 1.586 4.084 2.899 6.316 4.513-2.559 1.258-4.791 2.353-7.487 3.693.436-2.954.763-5.361 1.171-8.206z"/><path d="m129.555 488.276c-.136 12.446-10.046 22.184-22.433 22.074-12.1143-.109-22.0782-10.367-21.806-22.485.2722-12.227 10.2634-22.157 22.106-21.965 12.55.219 22.269 10.039 22.133 22.376z"/><path d="m112.132 463.301c-11.571 0-21.1807-9.683-21.2079-21.336 0-11.735 9.6649-21.501 21.3159-21.501 11.843 0 21.371 9.601 21.426 21.61.054 11.68-9.665 21.227-21.534 21.227z"/><path d="m64.9525 485.704c11.7608-.082 21.5342 9.519 21.5886 21.254.0545 11.817-9.5011 21.474-21.2619 21.528-11.7607.028-21.3708-9.546-21.4252-21.363-.0545-11.681 9.4739-21.309 21.1258-21.419z"/><path d="m144.909 536.829c-11.869-.082-21.398-9.82-21.289-21.774.109-11.406 9.991-21.144 21.316-21.035 11.843.109 21.426 9.711 21.398 21.446-.027 11.817-9.691 21.446-21.425 21.363z"/><path d="m149.891 447.764c11.516.027 21.289 9.847 21.235 21.391-.055 11.79-9.746 21.555-21.371 21.5-11.597-.054-21.452-9.875-21.343-21.281.108-12.064 9.637-21.638 21.479-21.61z"/><path d="m102.739 513.113c11.788 0 21.289 9.547 21.371 21.419.055 11.461-9.882 21.446-21.289 21.336-11.9242-.109-21.4798-9.629-21.4525-21.391 0-11.872 9.5283-21.364 21.3705-21.364z"/><path d="m69.989 482.148c-11.4613.192-21.0713-9.246-21.3163-20.871-.245-11.763 9.0928-21.555 20.7174-21.747 12.0058-.191 21.8608 9.218 21.997 21.008.1361 11.845-9.3379 21.419-21.3981 21.61z"/><path d="m75.4336 484.829c2.6679-1.122 4.8731-2.079 7.5138-3.173-.2178 2.735-.3811 5.06-.5989 7.85-2.423-1.641-4.4375-3.009-6.9149-4.677z"/><path d="m139.464 491.449c-2.668 1.148-4.927 2.133-7.486 3.227.218-2.68.408-5.033.653-7.823 2.341 1.587 4.356 2.927 6.833 4.596z"/><path d="m125.308 470.112c-2.26-1.641-4.056-2.927-6.289-4.541 2.532-1.23 4.737-2.297 7.378-3.583-.381 2.9-.708 5.225-1.089 8.124z"/><path d="m96.0421 510.761c-2.6407 1.285-4.8458 2.325-7.4593 3.583.3811-2.872.6806-5.279 1.0617-8.097 2.2324 1.56 4.0836 2.873 6.3976 4.514z"/><path d="m100.752 463.684c-2.5047 1.094-4.5465 1.997-6.9966 3.064.245-2.79.4628-5.116.735-7.988 2.1779 1.724 4.0564 3.173 6.2616 4.897z"/><path d="m120.544 517.517c-2.287-1.723-4.165-3.145-6.398-4.814 2.505-1.149 4.628-2.134 7.051-3.228-.218 2.708-.408 5.088-.626 8.042z"/><path d="m486.461 567.904c12.087 0 22.078 10.066 22.051 22.266 0 12.064-10.154 22.13-22.269 22.103-12.169-.028-21.997-9.957-22.024-22.267-.027-12.09 10.018-22.102 22.242-22.102z"/><path d="m505 653.961c-11.924-.329-21.534-10.122-21.207-21.665.326-12.091 10.209-21.583 22.16-21.227 11.734.328 20.935 10.231 20.581 22.157-.326 11.626-10.127 21.035-21.534 20.735z"/><path d="m459.074 649.064c-11.598.11-21.181-9.464-21.235-21.199-.082-11.79 9.474-21.583 21.126-21.665 11.515-.082 21.479 9.656 21.561 21.063.082 12.09-9.365 21.719-21.452 21.801z"/><path d="m492.314 552.586c-.109-11.544 9.256-21.392 20.445-21.556 12.169-.164 22.079 9.273 22.215 21.145s-9.665 21.665-21.67 21.72c-11.326.027-20.881-9.657-20.963-21.309z"/><path d="m553.786 594.657c.163 11.735-9.393 21.5-21.181 21.609-11.76.11-21.343-9.409-21.479-21.309-.109-11.625 9.419-21.363 21.071-21.527 11.679-.165 21.425 9.409 21.589 21.227z"/><path d="m440.452 563.828c12.033.274 21.453 10.039 21.099 21.884-.354 11.871-10.127 21.281-21.806 21.035-11.462-.274-21.017-10.285-20.799-21.829.217-11.625 10.127-21.336 21.506-21.09z"/><path d="m488.748 547.58c.027 11.762-9.556 21.418-21.317 21.473-11.761.054-21.153-9.465-21.234-21.473-.082-11.544 9.582-21.282 21.207-21.364 11.815-.055 21.316 9.437 21.344 21.364z"/><path d="m484.991 564.786c1.688-2.462 3.076-4.514 4.737-6.948 1.116 2.762 2.041 5.005 3.103 7.631-2.695-.246-4.982-.437-7.813-.683z"/><path d="m487.768 615.254c-1.688 2.435-3.077 4.432-4.737 6.839-1.089-2.626-2.015-4.842-3.104-7.441 2.668.192 4.928.383 7.841.602z"/><path d="m463.838 578.6c-1.28-2.736-2.314-4.924-3.512-7.468 2.804.355 5.199.629 8.112 1.012-1.606 2.243-2.94 4.13-4.6 6.456z"/><path d="m512.405 609.072c-2.995-.437-5.336-.793-8.085-1.176 1.524-2.161 2.831-3.994 4.492-6.319 1.225 2.571 2.286 4.787 3.593 7.523z"/><path d="m465.199 603.93c-2.886-.301-5.254-.52-8.031-.821 1.606-2.188 3.022-4.131 4.709-6.456 1.144 2.49 2.097 4.623 3.295 7.277z"/><path d="m510.744 583.441c-1.143-2.516-2.041-4.513-3.158-6.975 2.777.137 5.2.273 8.14.41-1.742 2.298-3.212 4.24-4.982 6.565z"/><path d="m647.109 349.015c-.054 12.254-9.964 22.211-22.133 22.239-12.142.027-22.051-10.176-21.942-22.622.108-12.091 10.181-22.103 22.105-21.993 12.142.109 22.052 10.203 21.97 22.403z"/><path d="m600.284 344.064c.055 11.68-9.474 21.445-20.989 21.527-11.897.083-21.644-9.519-21.725-21.363-.055-11.681 9.637-21.528 21.289-21.555 11.733-.028 21.371 9.574 21.425 21.363z"/><path d="m673.544 310.828c.517 11.434-8.794 21.282-20.609 21.883-11.488.575-21.643-8.944-22.078-20.707-.436-11.735 8.684-21.5 20.662-22.129 11.652-.602 21.48 8.753 22.025 20.953z"/><path d="m671.175 332.301c11.761 0 21.289 9.766 21.289 21.829 0 11.352-9.8 21.09-21.234 21.145-11.625.055-21.344-9.601-21.344-21.2 0-12.118 9.447-21.746 21.289-21.746z"/><path d="m665.268 391.934c-.436 12.063-10.182 21.309-22.052 20.926-11.951-.383-21.044-10.368-20.554-22.595.436-11.243 10.59-20.707 21.752-20.27 11.843.465 21.289 10.395 20.881 21.939z"/><path d="m627.508 306.479c-.082 12.008-9.61 21.445-21.589 21.418-11.543-.055-21.153-9.82-21.098-21.446.054-11.735 9.773-21.363 21.507-21.281 11.679.082 21.262 9.738 21.18 21.309z"/><path d="m597.616 407.909c-11.734-.028-21.126-9.492-21.126-21.31 0-11.844 9.583-21.418 21.371-21.391 11.734 0 21.235 9.629 21.235 21.501 0 11.817-9.529 21.227-21.48 21.2z"/><path d="m618.415 373.442c2.723.328 5.064.602 7.868.93-1.579 2.325-2.94 4.35-4.628 6.784-1.144-2.708-2.124-5.006-3.267-7.714z"/><path d="m646.401 335.474h8.276c-1.905 2.517-3.403 4.514-5.199 6.866-1.089-2.462-2.015-4.541-3.077-6.866z"/><path d="m623.751 323.575c1.633-2.352 2.886-4.212 4.519-6.565 1.116 2.489 2.096 4.678 3.321 7.386-2.722-.301-5.009-.547-7.84-.848z"/><path d="m651.057 367.889c-2.804-.301-5.227-.574-8.167-.903 1.633-2.297 3.022-4.24 4.655-6.537 1.252 2.626 2.314 4.869 3.539 7.44z"/><path d="m595.683 362.227c1.797-2.407 3.24-4.377 4.955-6.702 1.089 2.462 2.042 4.623 3.185 7.194-2.777-.164-5.145-.301-8.14-.492z"/><path d="m602.598 337.444c-1.225-2.599-2.26-4.787-3.457-7.359 2.776.301 5.118.548 7.976.848-1.524 2.216-2.858 4.131-4.519 6.511z"/></g><path d="m324.002 489.69c-.146-12.924 10.181-23.543 22.988-23.688 13.245-.146 23.893 10.181 24.009 23.25.088 12.748-10.327 23.601-22.784 23.746-13.449.146-24.068-10.093-24.213-23.308z" fill="#131313"/><path d="m391.613 496.919c-11.816-.054-21.099-9.437-21.017-21.309.081-11.762 9.61-21.281 21.234-21.172 11.68.11 21.072 9.629 21.072 21.391 0 11.763-9.474 21.145-21.289 21.09z" fill="#eaece1"/><path d="m303.461 523.836c-11.597-.137-21.098-9.793-20.962-21.282.136-11.817 9.556-21.336 20.99-21.199 12.169.137 21.561 9.601 21.37 21.582-.19 11.489-9.964 21.063-21.398 20.926z" fill="#eaece1"/><path d="m314.351 436.357c11.761.383 21.18 10.012 20.935 21.336-.272 12.118-9.964 21.501-21.833 21.145-11.761-.328-20.99-10.422-20.527-22.458.408-11.051 10.399-20.433 21.425-20.05z" fill="#eaece1"/><path d="m357.909 465.462c-11.461-.055-20.989-9.683-20.989-21.254 0-11.845 9.555-21.255 21.452-21.2 11.434.055 20.99 9.711 20.881 21.063-.136 11.981-9.583 21.473-21.344 21.418z" fill="#eaece1"/><path d="m381.24 499.436c11.734.082 21.235 9.601 21.235 21.282 0 11.598-9.556 21.254-21.017 21.199-11.87-.027-21.452-9.656-21.344-21.391.109-11.625 9.665-21.172 21.126-21.09z" fill="#eaece1"/><path d="m337.138 513.059c12.005.054 21.398 9.464 21.316 21.309-.109 11.762-9.774 21.144-21.698 21.035-11.325-.109-20.717-9.82-20.635-21.309.081-11.844 9.337-21.09 21.017-21.063z" fill="#eaece1"/><path d="m372.665 490.956c2.15 1.97 3.893 3.556 5.934 5.416-2.695.766-4.981 1.423-7.677 2.189.627-2.681 1.144-4.924 1.77-7.632z" fill="#eaece1"/><path d="m333.571 510.05c-2.75.902-5.009 1.613-7.759 2.516.763-2.845 1.389-5.17 2.124-7.905 1.987 1.915 3.648 3.474 5.635 5.389z" fill="#eaece1"/><path d="m338.335 459.006c1.77 1.888 3.349 3.556 5.009 5.334-1.715.575-3.92 1.286-6.615 2.161.599-2.817 1.116-5.17 1.606-7.495z" fill="#eaece1"/><path d="m322.709 487.263c-2.097-1.887-3.839-3.419-5.962-5.306 2.668-.766 4.873-1.395 7.568-2.189-.545 2.544-1.007 4.705-1.606 7.495z" fill="#eaece1"/><path d="m358.672 511.855c-.654 2.9-1.171 5.197-1.77 7.96-1.769-2.188-3.267-4.048-4.764-5.881 1.661-.52 3.839-1.204 6.561-2.079z" fill="#eaece1"/><path d="m369.452 465.763c-.735 2.817-1.279 5.033-1.987 7.714-1.906-1.723-3.594-3.201-5.663-5.061 2.587-.902 4.819-1.696 7.623-2.653z" fill="#eaece1"/><path d="m501.135 384.356c8.711-3.774 16.579-3.884 24.093.63 5.69 3.392 9.365 8.507 10.889 14.962 1.634 7.003.599 13.623-3.511 19.586-4.03 5.854-9.828 9-17.07 10.203 12.795 12.255 15.545 25.194 2.859 38.789-4.846 5.197-11.489 6.784-18.54 6.1-6.969-.657-12.387-4.213-17.342-9.875-1.061 10.094-5.608 17.178-14.21 21.227-5.717 2.708-11.734 3.036-17.75 1.012-10.155-3.419-20.31-15.455-14.538-32.634-16.389 5.307-28.694 1.204-34.52-15.893-2.314-6.784-.681-13.567 3.376-19.558 4.029-5.963 9.8-9.218 17.478-10.614-8.413-6.482-12.387-14.415-10.944-24.482.843-5.826 3.566-10.832 8.085-14.634 5.281-4.432 11.434-6.428 18.295-5.635 6.724.793 12.223 3.966 16.688 9.629 4.111-17.589 14.183-25.987 32.097-21.857 6.833 1.587 11.488 6.511 14.456 12.857 2.967 6.374 2.64 12.911.054 20.187zm-54.23 34.932c.136 12.391 10.045 21.993 22.595 21.856 11.625-.137 21.344-10.313 21.262-22.266-.081-12.255-10.045-21.939-22.405-21.802-11.951.137-21.589 10.094-21.452 22.212zm65.827 7.577c11.815.055 21.262-9.328 21.289-21.09 0-11.762-9.365-21.282-21.071-21.391-11.625-.11-21.153 9.41-21.235 21.172-.082 11.844 9.175 21.227 21.017 21.309zm-88.178 26.917c11.434.136 21.234-9.438 21.398-20.926.19-11.982-9.202-21.446-21.371-21.583-11.434-.109-20.854 9.383-20.99 21.2-.136 11.489 9.365 21.145 20.963 21.281zm10.889-87.479c-10.998-.356-20.989 8.999-21.425 20.05-.463 12.036 8.766 22.103 20.527 22.458 11.869.328 21.561-9.054 21.833-21.145.245-11.324-9.174-20.953-20.935-21.336zm43.559 29.105c11.76.054 21.234-9.438 21.343-21.419.109-11.325-9.447-20.981-20.881-21.063-11.924-.082-21.479 9.356-21.452 21.2 0 11.571 9.528 21.227 20.99 21.254zm23.33 33.974c-11.461-.082-21.016 9.464-21.125 21.09-.109 11.762 9.446 21.364 21.343 21.391 11.462.027 21.017-9.601 21.017-21.2 0-11.68-9.474-21.199-21.235-21.281zm-44.13 13.622c-11.679-.055-20.908 9.191-21.016 21.063-.082 11.489 9.31 21.2 20.635 21.309 11.897.109 21.589-9.273 21.698-21.036.109-11.844-9.311-21.254-21.317-21.309zm35.555-22.075c-.626 2.708-1.143 4.924-1.77 7.632 2.696-.766 5.01-1.422 7.678-2.188-2.042-1.86-3.785-3.474-5.935-5.416zm-39.094 19.066c-1.987-1.915-3.648-3.501-5.635-5.389-.735 2.736-1.361 5.061-2.123 7.906 2.749-.876 5.009-1.614 7.758-2.517zm4.765-51.016c-.49 2.325-1.008 4.678-1.607 7.495 2.696-.875 4.901-1.586 6.616-2.161-1.661-1.778-3.24-3.446-5.009-5.334zm-15.627 28.257c.599-2.79 1.062-4.923 1.606-7.495-2.695.766-4.9 1.423-7.568 2.189 2.123 1.887 3.866 3.419 5.962 5.306zm35.963 24.592c-2.723.875-4.9 1.559-6.561 2.079 1.497 1.86 2.994 3.693 4.764 5.881.626-2.763 1.143-5.088 1.77-7.96zm10.78-46.092c-2.804.985-5.063 1.778-7.622 2.653 2.069 1.86 3.73 3.337 5.662 5.061.681-2.681 1.253-4.897 1.988-7.714z" fill="#131313"/><path d="m446.001 419.186c-.142-12.649 9.965-23.042 22.5-23.185 12.963-.142 23.384 9.965 23.498 22.756.086 12.477-10.107 23.099-22.299 23.241-13.163.143-23.556-9.878-23.699-22.812z" fill="#131313"/><path d="m512.705 426.865c-11.816-.055-21.099-9.437-21.017-21.309.081-11.762 9.61-21.282 21.234-21.172 11.68.109 21.072 9.629 21.072 21.391s-9.474 21.145-21.289 21.09z" fill="#eaece1"/><path d="m424.553 453.782c-11.597-.137-21.098-9.793-20.962-21.282.136-11.817 9.556-21.336 20.99-21.199 12.169.136 21.561 9.601 21.37 21.582-.19 11.489-9.963 21.063-21.398 20.926z" fill="#eaece1"/><path d="m435.443 366.303c11.761.383 21.18 10.011 20.935 21.336-.272 12.118-9.964 21.5-21.833 21.145-11.761-.328-20.99-10.422-20.527-22.458.408-11.051 10.399-20.434 21.425-20.051z" fill="#eaece1"/><path d="m479.029 395.408c-11.462-.055-20.99-9.684-20.99-21.255 0-11.844 9.556-21.254 21.453-21.199 11.434.054 20.989 9.71 20.88 21.062-.136 11.982-9.583 21.474-21.343 21.419z" fill="#eaece1"/><path d="m502.332 429.382c11.734.082 21.235 9.601 21.235 21.281 0 11.599-9.556 21.255-21.017 21.2-11.87-.027-21.452-9.656-21.344-21.391.109-11.626 9.665-21.172 21.126-21.09z" fill="#eaece1"/><path d="m458.23 443.004c12.005.055 21.398 9.465 21.316 21.309-.109 11.762-9.773 21.145-21.698 21.036-11.325-.11-20.717-9.821-20.635-21.309.081-11.845 9.338-21.091 21.017-21.063z" fill="#eaece1"/><path d="m493.784 420.902c2.151 1.969 3.893 3.556 5.935 5.416-2.695.766-4.982 1.422-7.677 2.188.626-2.68 1.143-4.923 1.769-7.631z" fill="#eaece1"/><path d="m454.69 439.968c-2.749.902-5.009 1.614-7.758 2.516.762-2.844 1.388-5.17 2.123-7.905 1.987 1.915 3.648 3.474 5.635 5.389z" fill="#eaece1"/><path d="m459.455 388.952c1.769 1.887 3.348 3.556 5.009 5.334-1.715.575-3.92 1.286-6.616 2.161.599-2.817 1.117-5.17 1.607-7.495z" fill="#eaece1"/><path d="m443.801 417.209c-2.096-1.887-3.839-3.419-5.962-5.307 2.668-.766 4.873-1.395 7.568-2.188-.544 2.544-1.007 4.705-1.606 7.495z" fill="#eaece1"/><path d="m479.764 441.801c-.654 2.899-1.171 5.197-1.77 7.96-1.769-2.189-3.267-4.049-4.764-5.882 1.661-.519 3.839-1.203 6.561-2.078z" fill="#eaece1"/><path d="m490.572 395.708c-.735 2.818-1.28 5.034-1.988 7.714-1.905-1.723-3.593-3.2-5.662-5.06 2.586-.903 4.818-1.696 7.622-2.654z" fill="#eaece1"/><path d="m389.68 324.177c9.446-1.039 16.987 1.176 22.868 7.687 4.437 4.923 6.479 10.887 6.044 17.534-.463 7.166-3.403 13.212-9.066 17.698-5.554 4.404-12.033 5.69-19.275 4.732 8.658 15.51 7.514 28.668-8.575 37.941-6.153 3.556-12.959 3.091-19.492.383-6.453-2.681-10.618-7.687-13.694-14.553-3.948 9.328-10.345 14.771-19.792 16.112-6.261.903-12.087-.547-17.26-4.267-8.712-6.265-14.919-20.762-4.383-35.479-17.233.246-27.796-7.304-28.367-25.357-.218-7.167 3.321-13.158 8.929-17.699 5.581-4.513 12.06-5.936 19.819-5.006-6.152-8.671-7.65-17.424-3.321-26.643 2.504-5.334 6.561-9.3 12.006-11.598 6.343-2.681 12.795-2.79 19.138 0 6.207 2.736 10.509 7.413 13.149 14.115 9.039-15.592 21.126-20.68 37.052-11.434 6.071 3.529 9.066 9.601 10.046 16.549.98 6.976-1.253 13.103-5.853 19.312zm-62.044 17.452c-3.484 11.899 3.186 23.99 15.246 27.546 11.134 3.31 23.412-3.584 26.815-15.018 3.485-11.735-3.212-23.935-15.054-27.436-11.462-3.392-23.576 3.31-26.979 14.935zm60.71 26.616c11.27 3.529 23.058-2.654 26.489-13.896 3.43-11.243-2.75-23.115-13.912-26.643-11.08-3.529-22.977 2.762-26.489 14.005-3.539 11.297 2.587 23.005 13.885 26.561zm-92.153-.219c10.889 3.501 23.031-2.763 26.57-13.705 3.676-11.379-2.532-23.223-14.156-26.916-10.89-3.474-22.678 2.845-26.244 14.087-3.485 10.942 2.777 22.978 13.83 26.507zm35.935-80.449c-10.426-3.583-22.704 2.407-26.325 12.856-3.948 11.352 1.933 23.717 13.067 27.519 11.244 3.83 23.25-2.298 27.034-13.814 3.539-10.778-2.668-22.731-13.803-26.588zm33.159 40.648c11.244 3.502 23.032-2.762 26.652-14.169 3.431-10.805-2.913-22.841-13.829-26.288-11.38-3.583-23.25 2.626-26.707 13.951-3.376 11.079 2.913 23.087 13.884 26.506zm12.387 39.363c-10.944-3.446-22.841 2.873-26.353 13.951-3.539 11.188 2.804 23.196 14.157 26.725 10.944 3.419 22.895-2.981 26.271-14.087 3.43-11.188-2.886-23.06-14.075-26.616zm-46.145 0c-11.161-3.474-22.677 2.654-26.216 13.951-3.43 10.969 2.722 23.005 13.503 26.452 11.352 3.61 23.358-2.517 26.87-13.732 3.539-11.298-2.723-23.06-14.157-26.643zm40.428-10.641c-1.388 2.408-2.532 4.377-3.893 6.757 2.804.055 5.2.109 7.977.164-1.416-2.38-2.614-4.431-4.084-6.921zm-42.932 6.73c-1.361-2.408-2.478-4.404-3.812-6.812-1.497 2.408-2.776 4.432-4.328 6.921 2.886-.027 5.254-.082 8.14-.109zm19.438-47.378c-1.144 2.079-2.314 4.185-3.73 6.702 2.831-.055 5.145-.082 6.942-.11-1.062-2.188-2.096-4.24-3.24-6.565zm-23.195 22.403c1.388-2.489 2.45-4.404 3.73-6.674-2.804-.055-5.119-.082-7.868-.137 1.47 2.434 2.695 4.404 4.165 6.838zm27.224 34.084c-2.859 0-5.145.054-6.888.054.899 2.216 1.797 4.404 2.859 7.03 1.388-2.461 2.559-4.513 4.029-7.084zm23.739-40.895c-2.967.109-5.363.191-8.085.301 1.442 2.38 2.613 4.294 3.92 6.51 1.443-2.352 2.641-4.322 4.138-6.811z" fill="#131313"/><path d="m327.636 341.629c3.403-11.626 15.518-18.3 26.979-14.935 11.843 3.501 18.54 15.701 15.055 27.436-3.403 11.461-15.654 18.327-26.816 15.018-12.032-3.557-18.73-15.647-15.245-27.546z" fill="#f8feba"/><path d="m388.346 368.245c-11.298-3.529-17.424-15.237-13.885-26.561 3.512-11.243 15.382-17.507 26.489-14.006 11.162 3.529 17.342 15.401 13.912 26.643-3.458 11.243-15.218 17.425-26.489 13.896z" fill="#eaece1"/><path d="m296.193 368.026c-11.053-3.556-17.315-15.565-13.83-26.506 3.593-11.27 15.354-17.562 26.244-14.088 11.597 3.693 17.804 15.537 14.156 26.917-3.512 10.914-15.681 17.206-26.57 13.704z" fill="#eaece1"/><path d="m332.128 287.577c11.135 3.83 17.342 15.811 13.803 26.588-3.784 11.489-15.79 17.617-27.034 13.814-11.134-3.775-17.015-16.139-13.067-27.518 3.621-10.45 15.899-16.467 26.325-12.857z" fill="#eaece1"/><path d="m365.314 328.225c-10.944-3.419-17.233-15.455-13.884-26.506 3.43-11.325 15.327-17.534 26.707-13.951 10.916 3.42 17.26 15.483 13.829 26.288-3.62 11.407-15.408 17.698-26.652 14.169z" fill="#eaece1"/><path d="m377.701 367.588c11.216 3.529 17.505 15.428 14.075 26.616-3.403 11.106-15.327 17.507-26.271 14.088-11.353-3.529-17.696-15.538-14.157-26.726 3.512-11.078 15.409-17.397 26.353-13.95z" fill="#eaece1"/><path d="m331.557 367.616c11.461 3.583 17.722 15.345 14.156 26.643-3.512 11.215-15.518 17.342-26.87 13.732-10.781-3.447-16.96-15.483-13.503-26.452 3.539-11.297 15.082-17.425 26.217-13.951z" fill="#eaece1"/><path d="m371.984 356.975c1.47 2.489 2.668 4.541 4.084 6.92-2.804-.054-5.2-.109-7.977-.164 1.388-2.38 2.532-4.376 3.893-6.756z" fill="#eaece1"/><path d="m329.052 363.704c-2.913.027-5.254.082-8.14.109 1.552-2.489 2.831-4.54 4.329-6.92 1.361 2.407 2.45 4.404 3.811 6.811z" fill="#eaece1"/><path d="m348.463 316.299c1.143 2.325 2.15 4.404 3.239 6.565-1.796.027-4.138.055-6.942.109 1.389-2.516 2.559-4.622 3.73-6.701z" fill="#eaece1"/><path d="m325.295 338.702c-1.47-2.407-2.668-4.404-4.165-6.838 2.777.054 5.091.082 7.868.136-1.28 2.271-2.342 4.186-3.73 6.675z" fill="#eaece1"/><path d="m352.519 372.813c-1.47 2.571-2.641 4.623-4.029 7.085-1.062-2.626-1.96-4.815-2.859-7.03 1.743 0 4.029-.028 6.888-.055z" fill="#eaece1"/><path d="m376.258 331.918c-1.524 2.489-2.695 4.432-4.138 6.811-1.334-2.215-2.504-4.13-3.92-6.51 2.722-.109 5.091-.191 8.085-.301z" fill="#eaece1"/><path d="m259.086 384.302c8.712-3.775 16.58-3.885 24.093.629 5.69 3.392 9.366 8.507 10.89 14.963 1.633 7.002.599 13.622-3.512 19.585-4.029 5.854-9.828 9-17.069 10.204 12.795 12.254 15.545 25.193 2.858 38.788-4.846 5.197-11.488 6.784-18.539 6.1-6.97-.656-12.387-4.213-17.342-9.875-1.062 10.094-5.608 17.179-14.211 21.227-5.717 2.708-11.733 3.036-17.75 1.012-10.154-3.419-20.309-15.455-14.537-32.634-16.389 5.307-28.694 1.204-34.52-15.892-2.314-6.784-.681-13.568 3.375-19.559 4.03-5.963 9.801-9.218 17.478-10.613-8.412-6.483-12.387-14.416-10.944-24.482.844-5.827 3.567-10.833 8.086-14.635 5.281-4.431 11.434-6.428 18.294-5.635 6.724.793 12.224 3.967 16.688 9.629 4.111-17.589 14.184-25.987 32.097-21.856 6.834 1.586 11.489 6.51 14.456 12.856 2.968 6.374 2.641 12.912.055 20.188zm-54.23 34.931c.136 12.392 10.046 21.993 22.596 21.856 11.625-.136 21.344-10.312 21.262-22.266-.082-12.255-10.046-21.938-22.405-21.801-11.952.136-21.589 10.093-21.453 22.211zm65.828 7.577c11.815.055 21.262-9.327 21.289-21.09 0-11.762-9.365-21.281-21.072-21.391-11.624-.109-21.153 9.41-21.234 21.172-.082 11.845 9.174 21.227 21.017 21.309zm-88.179 26.917c11.434.137 21.235-9.437 21.398-20.926.191-11.981-9.201-21.446-21.37-21.583-11.434-.109-20.854 9.383-20.99 21.2-.136 11.489 9.365 21.145 20.962 21.282zm10.89-87.479c-10.999-.356-20.99 8.999-21.425 20.051-.463 12.036 8.766 22.102 20.527 22.458 11.869.328 21.561-9.055 21.833-21.145.245-11.325-9.174-20.954-20.935-21.337zm43.558 29.105c11.761.055 21.235-9.437 21.344-21.418.109-11.325-9.447-20.981-20.881-21.063-11.924-.082-21.48 9.355-21.452 21.199 0 11.571 9.528 21.227 20.989 21.255zm23.331 33.974c-11.461-.082-21.017 9.465-21.126 21.09-.109 11.762 9.447 21.364 21.344 21.391 11.461.028 21.017-9.601 21.017-21.199 0-11.681-9.474-21.2-21.235-21.282zm-44.13 13.622c-11.679-.054-20.908 9.191-21.017 21.063-.081 11.489 9.311 21.2 20.636 21.309 11.897.11 21.589-9.273 21.697-21.035.109-11.845-9.31-21.255-21.316-21.309zm35.555-22.075c-.627 2.709-1.144 4.924-1.77 7.632 2.695-.766 5.009-1.422 7.677-2.188-2.042-1.86-3.784-3.474-5.935-5.416zm-39.094 19.066c-1.987-1.914-3.648-3.501-5.635-5.388-.735 2.735-1.362 5.06-2.124 7.905 2.75-.875 5.009-1.614 7.759-2.517zm4.764-51.015c-.49 2.325-1.007 4.677-1.606 7.495 2.695-.876 4.9-1.587 6.615-2.161-1.66-1.778-3.239-3.447-5.009-5.334zm-15.626 28.257c.599-2.79 1.061-4.924 1.606-7.495-2.695.765-4.9 1.422-7.568 2.188 2.123 1.887 3.865 3.419 5.962 5.307zm35.962 24.591c-2.722.876-4.9 1.559-6.56 2.079 1.497 1.86 2.994 3.693 4.764 5.881.626-2.762 1.143-5.088 1.769-7.96zm10.781-46.092c-2.804.985-5.063 1.778-7.623 2.654 2.069 1.86 3.73 3.337 5.663 5.06.681-2.681 1.252-4.896 1.987-7.714z" fill="#131313"/><path d="m204.001 419.186c-.142-12.649 9.965-23.042 22.5-23.185 12.963-.142 23.384 9.965 23.498 22.756.086 12.477-10.107 23.099-22.299 23.241-13.163.143-23.556-9.878-23.699-22.812z" fill="#131313"/><path d="m270.657 426.81c-11.816-.054-21.099-9.437-21.017-21.309.081-11.762 9.61-21.281 21.234-21.172 11.679.109 21.072 9.629 21.072 21.391 0 11.763-9.474 21.145-21.289 21.09z" fill="#eaece1"/><path d="m182.505 453.727c-11.597-.137-21.098-9.793-20.962-21.282.136-11.817 9.556-21.336 20.99-21.199 12.169.137 21.561 9.601 21.37 21.582-.19 11.489-9.964 21.063-21.398 20.926z" fill="#eaece1"/><path d="m193.395 366.248c11.761.383 21.18 10.012 20.935 21.336-.272 12.118-9.964 21.501-21.833 21.145-11.761-.328-20.99-10.422-20.527-22.458.408-11.051 10.399-20.433 21.425-20.05z" fill="#eaece1"/><path d="m236.953 395.353c-11.461-.055-20.989-9.684-20.989-21.254 0-11.845 9.555-21.255 21.452-21.2 11.434.055 20.99 9.711 20.881 21.063-.136 11.981-9.583 21.473-21.344 21.418z" fill="#eaece1"/><path d="m260.284 429.327c11.734.082 21.235 9.601 21.235 21.282 0 11.598-9.556 21.254-21.017 21.199-11.87-.027-21.453-9.656-21.344-21.391.109-11.625 9.665-21.172 21.126-21.09z" fill="#eaece1"/><path d="m216.181 442.949c12.006.055 21.399 9.465 21.317 21.309-.109 11.763-9.774 21.145-21.698 21.036-11.325-.11-20.717-9.82-20.635-21.309.081-11.845 9.337-21.09 21.016-21.063z" fill="#eaece1"/><path d="m251.709 420.847c2.15 1.97 3.893 3.556 5.934 5.416-2.695.766-4.982 1.423-7.677 2.189.626-2.681 1.144-4.924 1.77-7.632z" fill="#eaece1"/><path d="m212.615 439.913c-2.749.903-5.009 1.614-7.759 2.517.763-2.845 1.389-5.17 2.124-7.906 1.987 1.915 3.648 3.474 5.635 5.389z" fill="#eaece1"/><path d="m217.379 388.897c1.77 1.888 3.349 3.556 5.01 5.334-1.715.575-3.921 1.286-6.616 2.161.599-2.817 1.116-5.17 1.606-7.495z" fill="#eaece1"/><path d="m201.753 417.154c-2.096-1.887-3.839-3.419-5.962-5.306 2.668-.766 4.873-1.396 7.568-2.189-.544 2.544-1.007 4.705-1.606 7.495z" fill="#eaece1"/><path d="m237.716 441.746c-.654 2.899-1.171 5.197-1.77 7.96-1.769-2.188-3.267-4.048-4.764-5.881 1.661-.52 3.838-1.204 6.561-2.079z" fill="#eaece1"/><path d="m248.496 395.654c-.735 2.817-1.279 5.033-1.987 7.714-1.906-1.724-3.594-3.201-5.663-5.061 2.587-.903 4.819-1.696 7.623-2.653z" fill="#eaece1"/><path d="m347.528 231c-12.618 0-22.472-9.907-22.528-22.752-.056-12.341 10.078-22.248 22.779-22.248 12.227 0 22.137 10.103 22.221 22.612.056 12.201-10.134 22.36-22.444 22.388z" fill="#131313"/><path d="m314.133 156.032c11.869.055 21.153 9.574 21.098 21.583-.054 11.598-9.719 20.926-21.616 20.844-11.407-.055-20.826-9.848-20.744-21.501.109-11.598 9.637-20.98 21.262-20.926z" fill="#eaece1"/><path d="m370.595 195.313c.218-12.063 9.692-21.418 21.48-21.227 11.461.219 21.071 10.094 20.88 21.473-.217 11.872-9.8 21.255-21.452 20.981-11.842-.274-21.126-9.683-20.881-21.254z" fill="#eaece1"/><path d="m357.936 184.973c-11.924-.219-21.289-9.82-21.071-21.664.19-11.626 9.936-20.926 21.751-20.735 11.435.164 20.99 10.012 20.691 21.282-.327 11.981-9.774 21.309-21.344 21.09z" fill="#eaece1"/><path d="m360.115 240.336c.081-11.708 9.691-21.336 21.261-21.282 11.598.055 21.181 9.793 21.072 21.419-.109 11.762-9.665 21.199-21.371 21.09-11.597-.109-21.044-9.683-20.962-21.227z" fill="#eaece1"/><path d="m337.328 274.884c-11.625.137-21.017-9.108-21.18-20.871-.163-11.461 9.093-21.309 20.173-21.446 12.387-.164 22.024 9 22.133 21.036.082 11.707-9.256 21.145-21.099 21.309z" fill="#eaece1"/><path d="m304.115 201.055c12.087.438 21.18 10.203 20.744 22.212-.408 11.516-10.535 20.652-22.35 20.133-11.298-.493-20.5-10.586-20.01-21.993.49-11.571 10.263-20.762 21.589-20.352z" fill="#eaece1"/><path d="m338.444 178.08c2.041 2.27 3.593 3.966 5.335 5.908-2.15.657-4.355 1.314-7.078 2.134.599-2.79 1.116-5.17 1.743-8.042z" fill="#eaece1"/><path d="m372.692 210.602c2.151 1.915 3.893 3.501 6.044 5.416-2.696.793-5.064 1.505-7.868 2.325.653-2.708 1.171-4.978 1.824-7.741z" fill="#eaece1"/><path d="m358.644 231.473c-.626 2.845-1.143 5.143-1.715 7.687-1.824-2.024-3.403-3.775-5.036-5.608 1.824-.574 4.056-1.231 6.751-2.079z" fill="#eaece1"/><path d="m333.571 229.586c-2.668.903-4.927 1.668-7.65 2.598.708-2.79 1.307-5.197 1.987-7.987 1.961 1.86 3.621 3.447 5.663 5.389z" fill="#eaece1"/><path d="m316.501 201.55c2.804-.793 5.064-1.422 7.813-2.216-.544 2.544-1.007 4.76-1.579 7.495-2.069-1.75-3.893-3.31-6.234-5.279z" fill="#eaece1"/><path d="m367.492 193.207c-2.015-1.888-3.676-3.392-5.69-5.28 2.613-.82 4.873-1.531 7.65-2.407-.708 2.763-1.253 4.979-1.933 7.687z" fill="#eaece1"/><path d="m226.237 302c-12.841 0-23.266-10.615-23.237-23.571.029-12.356 10.774-22.457 23.761-22.429 12.958.029 23.383 10.444 23.237 23.228-.145 12.642-10.744 22.8-23.79 22.772z" fill="#131313"/><path d="m215.991 233.99c-.054-11.735 9.501-21.337 21.344-21.419 11.27-.082 21.071 9.793 21.071 21.255 0 11.543-9.529 21.281-20.881 21.336-11.87.055-21.48-9.382-21.534-21.172z" fill="#eaece1"/><path d="m216.318 345.076c-11.625 0-21.235-9.547-21.181-21.036.055-11.954 9.284-21.391 20.99-21.473 11.625-.109 21.289 9.683 21.262 21.528-.027 11.68-9.419 21.008-21.099 21.008z" fill="#eaece1"/><path d="m161.461 291.899c.191-11.626 9.937-20.981 21.643-20.817 11.516.164 21.045 9.957 20.854 21.364-.191 11.79-10.073 21.418-21.643 21.145-11.597-.274-21.017-10.094-20.826-21.72z" fill="#eaece1"/><path d="m281.41 310.391c.055 11.625-9.501 21.199-21.207 21.254-11.489.055-20.936-9.328-20.99-20.844-.082-12.009 9.066-21.555 20.745-21.61 11.924-.055 21.398 9.3 21.452 21.2z" fill="#eaece1"/><path d="m172.024 247.749c-.326-11.817 8.903-21.418 20.935-21.747 11.053-.301 20.908 9.219 21.29 20.461.381 11.434-8.168 21.473-20.146 22.075-12.088.602-21.752-8.753-22.079-20.789z" fill="#eaece1"/><path d="m270.929 244.248c11.842.219 21.126 9.683 20.989 21.391-.163 11.981-9.8 21.199-21.915 20.981-11.298-.219-20.663-10.094-20.391-21.528.3-11.763 9.801-21.063 21.317-20.844z" fill="#eaece1"/><path d="m237.579 301.582c-.544 2.818-1.007 5.143-1.524 7.796-1.688-2.161-3.185-4.076-4.601-5.908 1.28-.383 3.43-1.067 6.125-1.888z" fill="#eaece1"/><path d="m217.325 248.57c1.661 1.969 3.185 3.802 4.737 5.635-1.443.465-3.648 1.176-6.316 2.024.572-2.818 1.062-5.197 1.579-7.632z" fill="#eaece1"/><path d="m203.441 269.468c-.627 2.626-1.144 4.842-1.77 7.495-2.123-1.887-3.92-3.446-6.125-5.416 2.885-.766 5.199-1.367 7.895-2.106z" fill="#eaece1"/><path d="m204.992 302.184c.681-2.681 1.253-4.978 1.961-7.714 1.987 1.833 3.675 3.392 5.689 5.225-2.613.848-4.9 1.614-7.622 2.489z" fill="#eaece1"/><path d="m246.591 263.286c-1.96-1.832-3.621-3.364-5.636-5.224 2.559-.848 4.71-1.56 7.405-2.462-.626 2.68-1.143 4.951-1.769 7.686z" fill="#eaece1"/><path d="m251.763 280.766c2.124 1.887 3.866 3.446 5.962 5.334-2.668.793-4.927 1.45-7.677 2.243.599-2.599 1.089-4.842 1.715-7.577z" fill="#eaece1"/><path d="m468.319 256c12.638 0 22.681 10.108 22.681 22.757 0 12.878-10.043 23.243-22.542 23.243-12.387 0-22.402-10.279-22.458-23.071-.056-12.507 10.099-22.929 22.319-22.929z" fill="#131313"/><path d="m523.431 310.5c0 11.653-9.882 21.391-21.507 21.309-11.461-.082-20.908-9.93-20.853-21.665.054-11.379 9.637-20.953 20.989-20.98 11.761-.028 21.398 9.574 21.371 21.336z" fill="#eaece1"/><path d="m413.936 247.366c0-11.625 9.501-21.364 20.881-21.391 11.734 0 21.48 9.738 21.453 21.419-.028 11.516-9.638 21.144-21.099 21.226-11.652.055-21.207-9.519-21.235-21.254z" fill="#eaece1"/><path d="m479.383 255.135c-11.761.109-21.371-9.383-21.507-21.255-.136-11.461 9.392-21.117 20.989-21.254 11.489-.137 21.29 9.574 21.371 21.172.082 11.571-9.338 21.2-20.853 21.337z" fill="#eaece1"/><path d="m458.121 345.076c-11.489.054-21.072-9.547-21.099-21.118 0-11.598 9.474-21.281 20.881-21.336 11.76-.055 21.343 9.3 21.507 21.008.163 11.735-9.42 21.391-21.289 21.446z" fill="#eaece1"/><path d="m491.497 265.447c.055-11.735 9.61-21.309 21.235-21.281 11.57.027 21.18 9.792 21.126 21.445-.055 11.38-9.61 21.173-20.636 21.091-12.251-.083-21.779-9.41-21.725-21.255z" fill="#eaece1"/><path d="m403.509 292.254c.109-11.871 9.638-21.445 21.181-21.281 11.706.164 21.207 9.82 21.098 21.418-.109 11.681-9.855 21.337-21.343 21.172-11.543-.164-21.044-9.82-20.936-21.309z" fill="#eaece1"/><path d="m479.655 301.446c-.626 2.954-1.116 5.279-1.688 8.124-2.069-1.97-3.784-3.638-5.908-5.663 2.614-.848 4.873-1.559 7.596-2.434z" fill="#eaece1"/><path d="m490.408 255.49c-.653 2.708-1.252 5.034-1.933 7.851-1.987-1.833-3.648-3.365-5.717-5.279 2.641-.876 4.928-1.642 7.65-2.572z" fill="#eaece1"/><path d="m454.527 299.722c-2.75.93-5.036 1.696-7.786 2.599.735-2.763 1.334-5.061 2.069-7.823 1.96 1.805 3.675 3.364 5.69 5.224z" fill="#eaece1"/><path d="m445.489 269.359c-.708 2.79-1.252 5.006-1.933 7.632-2.069-1.888-3.866-3.501-5.989-5.416 2.722-.766 5.036-1.395 7.922-2.216z" fill="#eaece1"/><path d="m457.712 256.229c.599-2.982 1.089-5.307 1.634-8.042 1.769 2.243 3.267 4.103 4.709 5.963-1.415.465-3.62 1.176-6.37 2.079z" fill="#eaece1"/><path d="m499.773 286.072c-2.858.794-5.145 1.45-7.813 2.216.599-2.571 1.089-4.787 1.715-7.468 2.069 1.778 3.893 3.365 6.098 5.28z" fill="#eaece1"/></g></svg>