<svg xmlns="http://www.w3.org/2000/svg" width="84" height="89" viewBox="0 0 84 89" fill="none">
  <path d="M20.8332 16.9759C21.8651 15.6466 23.2364 15.3126 24.4181 16.0897C25.4266 16.7544 26.0324 18.2887 24.9573 19.7768C25.0771 19.9124 25.1903 20.0645 25.3334 20.1803C25.4 20.2332 25.5398 20.2563 25.623 20.2266C26.515 19.9256 27.3671 20.0281 28.2026 20.4283C28.3191 20.4845 28.4855 20.4382 28.6287 20.4349C28.6486 20.4349 28.6686 20.415 28.6886 20.4051C29.3676 20.1505 29.8436 19.8198 29.8369 18.9468C29.8303 18.2193 30.2896 17.5745 30.8821 17.1347C31.2848 16.837 31.3015 16.546 31.1251 16.1294C30.5226 16.1228 29.9634 15.9508 29.4841 15.5474C28.6586 14.8529 28.3724 13.7749 28.7518 12.763C29.1113 11.8106 30.0599 11.1724 31.1084 11.179C31.2549 11.179 31.4413 11.2815 31.5245 11.0368C31.5977 10.812 31.611 10.6499 31.408 10.4581C30.263 9.36025 30.0733 7.62746 30.932 6.34771C31.8074 5.03819 33.4451 4.54547 34.923 5.13079C35.0295 5.17378 35.1726 5.12087 35.2991 5.11425C35.2858 4.98859 35.3124 4.8464 35.2591 4.74388C34.5768 3.48397 34.9995 1.99589 36.2377 1.32129C37.4493 0.659925 38.9472 1.12619 39.6195 2.3861C39.7161 2.56467 39.7926 2.60766 39.999 2.56467C40.4816 2.46877 40.7779 2.26044 40.9975 1.76772C41.5201 0.587174 42.8083 -0.0841168 44.1297 0.008475C45.4345 0.101067 46.5629 0.980689 46.969 2.21745C47.0722 2.5316 47.4583 2.82591 47.7678 2.78954C47.8643 2.77962 47.9609 2.66388 48.0341 2.5779C49.1026 1.31137 51.0431 1.37751 51.9951 2.73001C52.5343 3.4972 52.5809 4.33053 52.2081 5.18039C52.1149 5.38872 52.1249 5.50115 52.278 5.68964C52.5776 6.0534 52.8938 6.11292 53.3598 6.06001C54.6812 5.9112 55.9793 6.71477 56.5519 7.94492C57.1144 9.15192 56.8747 10.6135 55.8995 11.5428C55.6099 11.8205 55.7031 12.0686 55.7763 12.343C55.7929 12.4125 55.9394 12.4753 56.0326 12.4951C57.3241 12.7531 58.1695 13.7584 58.1362 15.0083C58.103 16.2616 57.181 17.2272 55.8628 17.4058C55.7463 17.4223 55.5599 17.505 55.5433 17.5811C55.49 17.8589 55.1971 18.1168 55.4834 18.4342C56.2223 19.2411 56.4587 20.2001 56.2456 21.2583C56.1591 21.6783 56.5252 21.6683 56.695 21.8469C56.8448 22.0089 56.9713 21.9263 57.1244 21.8238C58.0564 21.1822 59.0649 21.0566 60.13 21.417C60.373 21.4997 60.5561 21.5162 60.7125 21.2451C60.2565 20.5076 60.1467 19.7041 60.4829 18.8707C60.7092 18.3053 61.1153 17.8919 61.6612 17.6208C62.6464 17.1313 64.2408 17.2272 65.1129 18.9005C65.3958 18.8311 65.692 18.7848 65.9683 18.679C66.0748 18.6393 66.1547 18.4805 66.2113 18.3615C66.7472 17.1776 67.6526 16.4601 68.9574 16.3509C70.3021 16.2385 71.3506 16.7907 72.0562 17.9415C72.1927 18.1631 72.2826 18.4177 72.3758 18.6657C72.4623 18.8939 72.9017 19.2147 73.1347 19.1684C73.2146 19.1518 73.2811 19.0526 73.341 18.9799C73.9968 18.1895 74.8322 17.8357 75.8474 18.0606C76.8527 18.2854 77.5051 18.9204 77.7381 19.9322C77.8712 20.5076 77.8146 21.0797 77.5217 21.5989C77.3986 21.8205 77.4585 21.9329 77.6049 22.1048C77.8479 22.3959 78.0909 22.4785 78.4837 22.4157C79.9149 22.1875 81.273 22.9316 81.9021 24.2312C82.5112 25.4911 82.2183 27.0056 81.1532 27.9844C80.9601 28.163 80.9202 28.3184 80.9701 28.5565C81.01 28.745 81.0999 28.7979 81.2796 28.8178C82.5878 28.9699 83.5164 30.0181 83.4998 31.3177C83.4831 32.5743 82.4946 33.6094 81.2097 33.7317C81.0566 33.745 80.827 33.6358 80.767 33.9004C80.7038 34.1815 80.5174 34.4262 80.8203 34.737C81.8455 35.7952 81.9686 37.4288 81.1698 38.6755C80.3809 39.9122 78.8298 40.4579 77.4119 40.0048C77.1489 39.9222 76.633 40.1404 76.5464 40.3917C76.5198 40.4645 76.5764 40.5769 76.6197 40.6596C77.3686 42.1774 76.5564 43.8871 74.8888 44.2145C73.9069 44.4096 73.0714 44.0921 72.4457 43.2951C72.3025 43.1133 72.1994 42.9049 72.0662 42.6933C71.74 42.7098 71.517 42.7991 71.3772 43.1794C70.9611 44.3269 70.1057 45.0048 68.9041 45.2495C68.8309 45.266 68.7543 45.2859 68.6911 45.2991C68.5746 45.6397 68.6744 45.7852 69.0306 45.8778C70.1756 46.1787 70.9378 46.9128 71.314 48.0306C71.4005 48.2819 71.8765 48.6126 72.1261 48.5597C72.216 48.5398 72.2892 48.4274 72.3591 48.3447C73.0182 47.5874 73.847 47.27 74.8322 47.4948C75.7809 47.7131 76.41 48.3149 76.6796 49.2541C76.846 49.8394 76.7928 50.4148 76.5231 50.9604C76.4233 51.1655 76.4299 51.3076 76.613 51.4399C76.6729 51.4862 76.7262 51.5457 76.7728 51.6086C76.9392 51.8268 77.1256 51.8963 77.4252 51.85C78.8698 51.635 80.1879 52.3361 80.8403 53.6191C81.4627 54.8427 81.2097 56.3175 80.2045 57.3393C80.0181 57.5311 79.9582 57.9842 80.1213 58.1727C80.1746 58.2322 80.2944 58.2454 80.3876 58.262C82.0951 58.5993 82.9772 60.3816 82.155 61.8763C81.739 62.6336 81.0799 63.0668 80.2145 63.1528C79.9815 63.1759 79.885 63.2454 79.8018 63.4702C79.6686 63.8373 79.7152 64.0886 79.9748 64.4094C80.8336 65.4709 80.8636 67.035 80.1047 68.1494C79.3258 69.2969 77.9111 69.8558 76.5864 69.4887C76.2402 69.3928 76.0006 69.4259 75.7742 69.6871C75.7043 69.7698 75.6078 69.8293 75.5678 69.8657C75.6677 70.3386 75.8175 70.7718 75.8341 71.2116C75.8774 72.3591 75.1252 73.3346 74.04 73.6223C72.9183 73.9199 71.7999 73.4602 71.2075 72.4682C71.1376 72.3524 71.0077 72.1772 70.9179 72.1838C70.6949 72.2003 70.4718 72.2301 70.3653 72.5409C69.8727 73.9695 68.5945 74.8061 67.0867 74.7334C65.6687 74.6672 64.4671 73.6487 64.101 72.2202C64.071 72.1011 63.9346 71.9986 63.8314 71.906C63.7781 71.8597 63.6816 71.8663 63.615 71.8267C63.2922 71.6382 63.0925 71.7208 62.8595 72.0251C62.0839 73.0337 60.606 73.2321 59.5442 72.5079C58.4857 71.787 58.1562 70.365 58.7886 69.2506C58.8486 69.1448 58.9118 69.0456 58.9884 68.9199C58.8585 68.781 58.742 68.6289 58.5989 68.5165C58.5224 68.4537 58.3792 68.4074 58.2894 68.4338C57.1543 68.7513 56.1458 68.5165 55.2204 67.8154C55.1372 67.7526 54.9608 67.7526 54.851 67.789C54.3717 67.9411 54.1686 68.2156 54.2219 68.781C54.3117 69.7632 53.8724 70.5833 53.1368 71.2314C52.9271 71.4166 52.8405 71.572 52.9337 71.8465C53.0236 72.1143 53.2266 71.9887 53.3764 72.0052C54.6113 72.1507 55.5566 73.2321 55.5433 74.4986C55.53 75.7254 54.5481 76.7968 53.3331 76.9192C53.2 76.9324 52.9703 77.0052 52.9604 77.0713C52.9204 77.3722 52.6308 77.65 52.9271 77.9873C53.8657 79.0521 53.9955 80.5501 53.2766 81.7703C52.5909 82.9377 51.1796 83.5627 49.8282 83.2849C49.6185 83.2419 49.4853 83.3014 49.3256 83.4271C48.9328 83.7346 48.7264 84.0124 48.8762 84.5944C49.1558 85.6724 48.5301 86.7637 47.5215 87.2333C46.4996 87.7094 45.2781 87.4548 44.5691 86.5785C44.3893 86.3536 44.2362 86.3503 43.9833 86.3933C43.5572 86.4661 43.3142 86.6843 43.0779 87.0448C42.3989 88.0765 41.3936 88.5626 40.1554 88.4799C38.9006 88.3973 37.9952 87.7458 37.436 86.638C37.3262 86.4198 37.2063 86.271 36.9633 86.2346C36.94 86.2313 36.9201 86.2247 36.9001 86.2148C36.3276 85.9171 35.8583 85.8808 35.2591 86.3404C34.447 86.9621 33.2054 86.7736 32.4465 86.1222C31.621 85.4112 31.3314 84.3265 31.7275 83.3345C31.8108 83.1262 31.7675 83.017 31.641 82.8451C31.3281 82.4284 30.9919 82.273 30.4261 82.3061C29.078 82.3854 27.8631 81.5025 27.3671 80.2261C26.8845 78.9893 27.2307 77.5839 28.2492 76.6679C28.4489 76.4893 28.5255 75.8775 28.3557 75.689C28.3058 75.6328 28.1993 75.6196 28.1161 75.6064C26.8113 75.398 25.8859 74.2572 25.9958 72.9874C26.1123 71.6613 27.2074 70.6792 28.5488 70.6957C28.7185 70.6957 28.8883 70.7519 28.9782 70.5072C29.0614 70.2823 29.0114 70.1567 28.8417 70.0013C28.2226 69.4325 27.8797 68.7248 27.8065 67.8816C27.7932 67.7361 27.6501 67.6005 27.5635 67.4649C27.5535 67.4484 27.5269 67.4418 27.5069 67.4285C26.991 67.035 26.4984 66.8399 25.8027 67.1475C25.1237 67.4451 24.3615 67.3062 23.6658 67.0119C23.3418 66.8752 23.06 66.9535 22.8203 67.2467C23.789 68.7215 23.5926 70.1865 22.3177 70.9999C20.9963 71.8432 19.6416 71.4067 18.5964 69.7962C18.2802 69.8392 18.0539 69.9285 17.934 70.3022C17.5379 71.5092 16.333 72.3756 15.0715 72.4252C13.7101 72.4781 12.4652 71.744 11.936 70.5469C11.8295 70.3055 11.6963 70.1666 11.4367 70.1468C11.4167 70.1468 11.3934 70.1335 11.3735 70.1269C10.791 69.9186 10.3017 69.8822 9.7092 70.2989C8.89371 70.871 7.9484 70.7486 7.12292 70.1699C6.26748 69.5714 5.95793 68.7248 6.11437 67.7129C6.14765 67.498 6.13434 67.3492 5.94794 67.2334C5.92797 67.2202 5.91466 67.2037 5.89801 67.1871C5.3954 66.6018 4.80625 66.2745 4.00407 66.0893C1.967 65.6197 1.02502 63.1528 2.11345 61.3737C2.23328 61.1786 2.26657 61.0099 2.21664 60.7917C2.1301 60.418 2.09681 60.0311 2.00361 59.6574C1.967 59.5086 1.86381 59.3334 1.74066 59.254C0.878563 58.7051 0.429209 57.928 0.509094 56.9227C0.592308 55.8579 1.18146 55.1304 2.2 54.7567C2.25325 54.7368 2.33647 54.7335 2.34978 54.7005C2.46295 54.4425 2.57279 54.178 2.66266 53.9101C2.74588 53.6621 2.88901 53.4472 2.71925 53.1363C1.74399 51.3374 2.59277 49.1681 4.50335 48.5067C5.10582 48.2984 5.72493 48.2587 6.33738 48.4274C6.66025 48.5167 6.81669 48.2984 6.99311 48.143C7.05635 48.0868 7.00975 47.8685 6.96315 47.7396C6.55374 46.559 7.13291 45.2164 8.28791 44.6939C9.43293 44.1748 10.8342 44.6013 11.44 45.6827C11.6031 45.9737 11.7429 46.0365 12.0758 45.9869C12.4752 45.9241 12.6783 45.7819 12.8114 45.395C13.0278 44.7601 13.5071 44.3103 14.0563 43.9268C14.1628 43.854 14.2427 43.6986 14.2693 43.5663C14.4025 42.9215 14.2993 42.4056 13.7035 41.9493C13.334 41.6649 13.1476 41.1225 12.9312 40.6695C12.838 40.4744 12.7415 40.3719 12.5418 40.2859C12.0525 40.0677 11.723 40.1404 11.3269 40.5505C10.5613 41.3441 9.23655 41.3904 8.3212 40.7687C7.33927 40.104 6.94983 38.8805 7.40917 37.7925C7.51902 37.528 7.49572 37.366 7.27936 37.2105C7.26938 37.2039 7.26272 37.1973 7.25606 37.1874C7.01308 36.8137 6.68022 36.7608 6.24418 36.784C4.85618 36.86 3.80769 36.2516 3.17859 35.0313C2.55282 33.821 2.69262 32.6239 3.54806 31.5657C3.81767 31.2351 3.87093 30.9573 3.79437 30.5638C3.73113 30.2331 3.61796 30.0744 3.27845 29.9652C2.21664 29.6213 1.58754 28.5797 1.67076 27.4223C1.74731 26.3905 2.55948 25.4613 3.6113 25.2596C3.92086 25.2001 4.09727 25.1042 4.16384 24.7735C4.2171 24.5056 4.3103 24.3006 4.09394 24.0195C3.27179 22.9613 3.26513 21.4303 4.02071 20.3357C4.83288 19.1618 6.25084 18.636 7.60889 19.0162C7.79529 19.0692 7.92843 19.0692 8.09153 18.9369C8.27127 18.7914 8.28458 18.669 8.20137 18.4607C7.69876 17.2107 8.2047 15.8747 9.38966 15.2861C10.5513 14.7107 11.926 15.1208 12.6217 16.2683C12.7348 16.4567 12.8414 16.4733 13.0477 16.4435C13.557 16.3675 13.8666 16.1558 14.1362 15.6664C14.8019 14.4528 15.9103 13.8873 17.2983 14.0361C18.6863 14.1849 19.6316 14.9687 20.0443 16.2947C20.1775 16.7246 20.3972 16.9131 20.8199 16.9726L20.8332 16.9759ZM26.1655 37.1841C27.6001 37.1775 28.7551 36.0102 28.7418 34.5849C28.7285 33.1729 27.5635 32.0254 26.1522 32.0254C24.7276 32.0254 23.5526 33.196 23.556 34.6147C23.556 36.0333 24.7343 37.1907 26.1655 37.1841ZM8.54088 60.0642C9.97548 60.0708 11.1338 58.9399 11.1405 57.5212C11.1505 56.0827 9.99878 54.922 8.56085 54.9187C7.13291 54.9154 5.96791 56.0563 5.95793 57.465C5.94794 58.9035 7.09296 60.0576 8.53755 60.0609L8.54088 60.0642ZM36.6205 16.6122C38.0618 16.6155 39.2268 15.4647 39.2234 14.0328C39.2234 12.6076 38.0751 11.4667 36.6438 11.4634C35.2092 11.4634 34.0509 12.5943 34.0442 14.0097C34.0376 15.4548 35.1792 16.6089 36.6205 16.6122ZM49.958 74.4523C49.958 73.0303 48.8063 71.8895 47.3784 71.8862C45.9371 71.8862 44.7788 73.037 44.7788 74.4721C44.7788 75.8875 45.9371 77.0349 47.3651 77.0349C48.813 77.0349 49.9613 75.8941 49.958 74.4523ZM53.0669 23.1663C54.5015 23.1663 55.6731 22.0023 55.6665 20.5837C55.6598 19.1783 54.4948 18.0209 53.0835 18.0143C51.6456 18.0077 50.4806 19.1551 50.4739 20.5837C50.4673 22.0089 51.6289 23.1663 53.0669 23.1663ZM13.2042 46.6913C13.2042 48.1198 14.3625 49.2673 15.8038 49.2673C17.2217 49.2673 18.3867 48.1165 18.3967 46.7111C18.4067 45.2925 17.235 44.1219 15.8071 44.1186C14.3692 44.1186 13.2042 45.266 13.2042 46.6913ZM71.1842 30.7423C71.1842 29.3204 70.0325 28.1762 68.6045 28.1762C67.1599 28.1762 65.9983 29.3303 66.0049 30.7622C66.0116 32.1775 67.1699 33.3283 68.5879 33.3349C70.0225 33.3415 71.1875 32.1775 71.1842 30.7456V30.7423ZM24.9806 66.6217C26.4085 66.6217 27.5702 65.4841 27.5802 64.0688C27.5902 62.6435 26.4218 61.4729 24.9872 61.4696C23.5626 61.4696 22.401 62.6138 22.3943 64.0291C22.3876 65.4709 23.5327 66.6184 24.9806 66.6217ZM41.2871 79.8524C41.2805 81.2809 42.4388 82.4416 43.8734 82.4416C45.288 82.4416 46.4597 81.2942 46.4697 79.8921C46.4797 78.4635 45.3313 77.2995 43.8967 77.2896C42.4588 77.2763 41.2938 78.4238 41.2871 79.8524ZM81.02 36.9295C81.02 35.4943 79.8617 34.3402 78.4204 34.3468C76.9925 34.3534 75.8408 35.5009 75.8375 36.9162C75.8375 38.3514 76.9925 39.4989 78.4404 39.4956C79.8717 39.4923 81.0167 38.3547 81.02 36.9328V36.9295ZM8.16475 51.5722C8.16475 50.1536 7.01308 49.0094 5.58513 49.0061C4.14054 49.0061 2.97888 50.1502 2.97888 51.5854C2.97888 52.9974 4.13388 54.1449 5.56516 54.1548C6.99976 54.1648 8.16808 53.0074 8.16475 51.5722ZM26.6748 25.868C28.1028 25.868 29.2511 24.7206 29.2544 23.3019C29.2544 21.8601 28.1061 20.716 26.6582 20.7193C25.2269 20.7226 24.0819 21.8568 24.0752 23.2821C24.0652 24.7073 25.2335 25.868 26.6748 25.8647V25.868ZM17.7377 57.8949C17.7443 56.4564 16.586 55.2957 15.1514 55.2957C13.7367 55.2957 12.5651 56.4498 12.5518 57.8552C12.5385 59.2805 13.7068 60.4445 15.1447 60.4445C16.5827 60.4445 17.731 59.3168 17.7343 57.8916L17.7377 57.8949ZM68.3382 44.6344C69.7762 44.6344 70.9179 43.5035 70.9212 42.0749C70.9245 40.6331 69.7762 39.4823 68.3316 39.4857C66.8937 39.4857 65.7253 40.6563 65.7386 42.0815C65.752 43.5002 66.907 44.6377 68.3382 44.6344ZM16.0667 37.1742C14.6321 37.1675 13.4771 38.2985 13.4671 39.7171C13.4571 41.1622 14.5955 42.313 16.0401 42.3196C17.468 42.3262 18.633 41.1887 18.6464 39.7767C18.6597 38.3382 17.5113 37.1808 16.0667 37.1742ZM69.2369 36.6616C69.2369 38.0835 70.3753 39.2277 71.8099 39.2343C73.2578 39.2409 74.4228 38.0968 74.4228 36.6649C74.4228 35.2529 73.2712 34.0988 71.8465 34.0856C70.4119 34.0723 69.2403 35.2297 69.2369 36.6616ZM14.8917 51.9525C14.8851 50.5338 13.7334 49.3897 12.3055 49.3864C10.8709 49.3831 9.68923 50.5504 9.69589 51.9723C9.70254 53.3711 10.8808 54.5417 12.2888 54.5484C13.7168 54.555 14.8951 53.381 14.8884 51.9558L14.8917 51.9525ZM40.3751 87.8285C41.8264 87.8285 42.9714 86.6942 42.968 85.2492C42.968 83.8272 41.8164 82.683 40.3884 82.683C38.9472 82.683 37.7822 83.8404 37.7855 85.269C37.7888 86.6876 38.9438 87.8252 40.3751 87.8285ZM49.9447 12.3596C48.5167 12.3662 47.3684 13.5103 47.3651 14.9323C47.3617 16.3542 48.5434 17.5282 49.9713 17.5182C51.4093 17.5083 52.5576 16.341 52.5476 14.9058C52.5376 13.4872 51.376 12.3529 49.948 12.3596H49.9447ZM17.4847 69.2043C17.488 67.7658 16.3363 66.6184 14.8884 66.6217C13.4571 66.625 12.3055 67.7658 12.2988 69.1845C12.2922 70.6031 13.4405 71.7539 14.8684 71.7638C16.323 71.7737 17.4814 70.6395 17.4847 69.2043ZM64.7168 71.5026C64.7168 72.9411 65.8651 74.0852 67.3164 74.0819C68.7443 74.0786 69.896 72.9311 69.896 71.5158C69.896 70.0972 68.7443 68.9398 67.3264 68.9332C65.8818 68.9265 64.7168 70.0707 64.7168 71.5059V71.5026ZM22.1413 34.3666C22.148 32.9447 21.0096 31.7906 19.5817 31.7774C18.1404 31.7642 16.9588 32.9149 16.9554 34.3369C16.9488 35.7555 18.0971 36.9129 19.5184 36.9228C20.9763 36.9328 22.1347 35.8051 22.1413 34.3666ZM34.0442 76.1388C35.4722 76.1388 36.6272 75.0012 36.6372 73.5793C36.6471 72.1573 35.4722 70.9768 34.0475 70.9768C32.6196 70.9768 31.4479 72.1507 31.4546 73.576C31.4613 74.9946 32.6163 76.1355 34.0442 76.1355V76.1388ZM55.4002 53.8705C55.3902 55.3089 56.5452 56.4729 57.9798 56.4762C59.3978 56.4796 60.5661 55.3288 60.5794 53.9168C60.5927 52.4882 59.431 51.3209 57.9931 51.3176C56.5618 51.3176 55.4068 52.4518 55.4002 53.8705ZM80.5041 55.0378C80.4974 53.6191 79.3391 52.4683 77.9211 52.465C76.4899 52.465 75.3149 53.639 75.3249 55.0609C75.3315 56.4796 76.4832 57.6204 77.9145 57.6237C79.3591 57.6237 80.5141 56.4729 80.5074 55.0345L80.5041 55.0378ZM73.3876 66.1223C73.3943 64.6872 72.246 63.5364 70.8047 63.5364C69.3634 63.5364 68.2051 64.6805 68.2018 66.1091C68.2018 67.5277 69.3734 68.6885 70.8047 68.6851C72.226 68.6818 73.381 67.5344 73.3843 66.1223H73.3876ZM41.2905 3.23265C41.2905 4.65129 42.4322 5.80208 43.8568 5.8153C45.298 5.82522 46.473 4.67113 46.473 3.24588C46.473 1.82724 45.3247 0.676459 43.9 0.669845C42.4421 0.663231 41.2905 1.79417 41.2871 3.23265H41.2905ZM70.8014 49.0028C70.798 47.5808 69.6497 46.44 68.2184 46.4367C66.7805 46.4333 65.6022 47.5974 65.6088 49.016C65.6155 50.4412 66.7938 51.592 68.2317 51.5854C69.6563 51.5755 70.8047 50.4214 70.8014 49.0061V49.0028ZM45.8239 14.4363C45.8273 13.011 44.6823 11.8602 43.261 11.8536C41.8031 11.8503 40.6481 12.9812 40.6414 14.4164C40.6347 15.8483 41.7964 17.0024 43.241 16.9991C44.6723 16.9991 45.8206 15.8582 45.8239 14.4363ZM45.5676 25.749C45.5676 24.3304 44.4226 23.1763 43.0013 23.1663C41.5667 23.1564 40.3818 24.3105 40.3784 25.7325C40.3718 27.1511 41.5534 28.3217 42.9847 28.3151C44.4126 28.3118 45.5676 27.1643 45.571 25.749H45.5676ZM43.2343 73.943C43.2277 72.5211 42.076 71.3769 40.6514 71.3802C39.2101 71.3802 38.0451 72.5409 38.0551 73.9662C38.0651 75.4014 39.2268 76.5356 40.6747 76.5257C42.1026 76.5158 43.241 75.3683 43.2343 73.943ZM63.9412 63.1561C62.4933 63.1561 61.335 64.3102 61.3483 65.742C61.3616 67.1607 62.5166 68.3015 63.9412 68.3049C65.3659 68.3049 66.5242 67.1607 66.5308 65.7454C66.5375 64.3036 65.3925 63.1594 63.9412 63.1594V63.1561ZM4.93939 60.4544C3.49147 60.4544 2.33314 61.6052 2.3398 63.0337C2.34645 64.4491 3.50479 65.5999 4.92608 65.6032C6.36401 65.6032 7.529 64.4458 7.52234 63.0139C7.51902 61.5886 6.374 60.4511 4.93939 60.4511V60.4544ZM8.68734 33.5796C8.68734 32.1643 7.53233 31.0135 6.10771 31.0069C4.66645 31.0003 3.49813 32.1577 3.50146 33.5862C3.50479 35.0016 4.66312 36.1557 6.08108 36.1623C7.51236 36.1689 8.68734 35.0049 8.68734 33.5796ZM16.9554 14.6876C15.5242 14.6942 14.3692 15.8351 14.3658 17.2504C14.3625 18.6723 15.5408 19.8363 16.9787 19.8297C18.4134 19.8231 19.5584 18.6823 19.5617 17.2636C19.565 15.8284 18.4067 14.681 16.9588 14.6876H16.9554ZM24.4713 58.3942C24.4713 56.9657 23.3329 55.8314 21.8983 55.8281C20.4471 55.8248 19.2954 56.9624 19.2954 58.4041C19.2954 59.8162 20.4538 60.9769 21.8717 60.9802C23.313 60.9835 24.4713 59.8327 24.4713 58.3975V58.3942ZM20.4604 28.9666C20.4604 30.3852 21.6154 31.5327 23.04 31.536C24.4713 31.5393 25.6496 30.3687 25.643 28.9467C25.6363 27.5314 24.4813 26.3839 23.0567 26.3806C21.6121 26.3773 20.4604 27.5248 20.4604 28.9633V28.9666ZM51.0165 71.3868C52.4411 71.3769 53.5961 70.2261 53.5961 68.8108C53.5961 67.3889 52.4178 66.2248 50.9832 66.2315C49.5453 66.2381 48.4036 67.4021 48.4136 68.8439C48.4235 70.2625 49.5852 71.3935 51.0165 71.3868ZM19.9511 25.4778C21.3857 25.4745 22.5241 24.337 22.5274 22.9117C22.5274 21.4765 21.3691 20.3258 19.9245 20.3357C18.4899 20.3456 17.3482 21.4832 17.3449 22.9051C17.3449 24.3403 18.4999 25.4811 19.9478 25.4778H19.9511ZM66.654 19.5685C66.654 20.9805 67.8057 22.1379 69.227 22.1511C70.6516 22.1644 71.8332 20.9904 71.8332 19.5652C71.8332 18.1432 70.6882 16.9991 69.2569 16.9925C67.8157 16.9858 66.654 18.1333 66.654 19.5718V19.5685ZM33.6548 10.6896C35.0927 10.6896 36.2377 9.56527 36.2477 8.14002C36.2577 6.70154 35.106 5.55737 33.6548 5.55737C32.2202 5.55737 31.0652 6.69162 31.0585 8.10695C31.0485 9.5322 32.2102 10.6863 33.6581 10.6863L33.6548 10.6896ZM71.7001 60.7123C71.7001 62.1409 72.8384 63.2751 74.273 63.2817C75.7143 63.2884 76.886 62.131 76.8826 60.7057C76.876 59.2871 75.7243 58.1396 74.2997 58.1363C72.8484 58.1363 71.6967 59.2705 71.7001 60.7123ZM46.4564 22.9084C47.891 22.9117 49.046 21.7841 49.0626 20.3621C49.0826 18.9468 47.9076 17.7696 46.4697 17.7663C45.0251 17.7596 43.8668 18.9137 43.8701 20.3489C43.8701 21.7675 45.0218 22.9051 46.4564 22.9084ZM12.2922 28.0439C12.2922 26.6187 11.1471 25.4778 9.71919 25.4778C8.2746 25.4778 7.12292 26.6253 7.12625 28.0638C7.1329 29.489 8.2746 30.6299 9.70587 30.6332C11.1505 30.6332 12.2955 29.489 12.2955 28.0473L12.2922 28.0439ZM13.4738 25.1009C14.9017 25.0942 16.0501 23.9501 16.0567 22.5314C16.0601 21.1062 14.8851 19.9389 13.4538 19.9455C12.0126 19.9521 10.8642 21.1128 10.8742 22.5513C10.8842 23.9699 12.0425 25.1042 13.4738 25.1009ZM11.5366 60.8413C10.0787 60.8413 8.93698 61.9689 8.93698 63.414C8.93698 64.836 10.0787 65.9801 11.5099 65.9868C12.9545 65.9934 14.1162 64.8459 14.1129 63.4107C14.1129 61.9888 12.9645 60.8446 11.5366 60.8446V60.8413ZM32.9991 79.0885C32.9957 77.6467 31.844 76.5125 30.3928 76.5191C28.9682 76.5257 27.8331 77.6699 27.8331 79.1017C27.8331 80.5468 28.9782 81.6745 30.4394 81.6678C31.8673 81.6612 33.0057 80.5171 33.0024 79.0885H32.9991ZM59.0117 21.8833C57.5804 21.8833 56.432 23.0175 56.4187 24.4395C56.4054 25.8581 57.5804 27.0321 59.015 27.0321C60.4396 27.0321 61.5946 25.8846 61.5979 24.4692C61.6013 23.0242 60.4596 21.8833 59.0117 21.8833ZM53.0635 80.1268C53.0635 78.6917 51.8952 77.5376 50.4606 77.5508C49.0327 77.5607 47.8843 78.7082 47.8843 80.1235C47.8843 81.5422 49.0293 82.6897 50.4573 82.6996C51.9052 82.7095 53.0669 81.5653 53.0669 80.1301L53.0635 80.1268ZM33.6481 67.6666C33.6514 66.2315 32.5264 65.0906 31.0918 65.0807C29.6439 65.0708 28.4756 66.2083 28.4656 67.6369C28.4556 69.0555 29.6339 70.2327 31.0618 70.2327C32.4865 70.2327 33.6415 69.0853 33.6448 67.6666H33.6481ZM57.3474 62.7659C55.8961 62.7659 54.7411 63.9034 54.7378 65.3386C54.7378 66.7572 55.8861 67.9014 57.3141 67.9113C58.7554 67.9213 59.9237 66.7672 59.9237 65.3353C59.9237 63.9134 58.772 62.7659 57.3474 62.7659ZM37.0266 76.9093C35.572 76.9027 34.4303 78.0369 34.427 79.482C34.427 80.904 35.5654 82.0415 37.0033 82.0514C38.4446 82.0614 39.6162 80.904 39.6095 79.4754C39.6062 78.0568 38.4579 76.9159 37.0266 76.9093ZM76.3534 25.62C76.3534 27.0453 77.4951 28.1795 78.933 28.1861C80.3743 28.1895 81.5459 27.0287 81.5359 25.6035C81.5259 24.1849 80.3743 23.0407 78.9497 23.0374C77.5017 23.0374 76.3501 24.1816 76.3534 25.62ZM38.6942 62.7593C38.6942 64.1944 39.8492 65.3485 41.2905 65.3419C42.7184 65.3386 43.8701 64.1944 43.8734 62.7758C43.8767 61.3539 42.7351 60.2031 41.3071 60.1931C39.8658 60.1799 38.6975 61.3307 38.6942 62.7593ZM18.7562 54.9253C20.1808 54.932 21.3458 53.7944 21.3624 52.3791C21.3791 50.9571 20.2141 49.7832 18.7762 49.7766C17.3382 49.77 16.1732 50.924 16.1766 52.3592C16.1766 53.7779 17.3282 54.922 18.7562 54.9253ZM64.7234 51.7111C63.2855 51.7045 62.1305 52.8288 62.1172 54.2474C62.1039 55.6892 63.2422 56.8433 64.6902 56.8532C66.1314 56.8632 67.2997 55.7091 67.2997 54.2805C67.2997 52.8586 66.1547 51.7177 64.7234 51.7111ZM64.9731 38.854C66.401 38.854 67.5527 37.7066 67.5594 36.2912C67.566 34.8693 66.3877 33.6987 64.9564 33.7053C63.5285 33.7119 62.3801 34.8561 62.3768 36.2747C62.3768 37.7165 63.5218 38.8573 64.9731 38.854ZM77.4019 68.9332C78.8365 68.9332 79.9815 67.7956 79.9815 66.3703C79.9815 64.9319 78.8265 63.791 77.3752 63.7976C75.9406 63.8042 74.7923 64.9451 74.789 66.3637C74.789 67.789 75.954 68.9332 77.4019 68.9298V68.9332ZM40.3651 11.0831C41.8031 11.0897 42.9614 9.9654 42.9714 8.54676C42.9847 7.10498 41.8463 5.94427 40.4084 5.93104C38.9738 5.91782 37.7988 7.07521 37.7922 8.50377C37.7855 9.9158 38.9405 11.0732 40.3651 11.0798V11.0831ZM71.1542 57.2401C72.5522 57.2699 73.7371 56.1423 73.7738 54.7435C73.8137 53.3017 72.6953 52.1277 71.2474 52.0914C69.8095 52.055 68.6145 53.1892 68.5912 54.6178C68.5679 56.053 69.6996 57.2104 71.1542 57.2401ZM74.799 25.2298C74.799 23.8013 73.6639 22.6505 72.2426 22.6439C70.7881 22.6373 69.6397 23.7715 69.6364 25.2133C69.6364 26.6617 70.7747 27.7992 72.226 27.7959C73.6606 27.7959 74.7956 26.6617 74.799 25.2298ZM4.15385 22.1478C4.15718 23.5731 5.29555 24.7007 6.73681 24.704C8.18473 24.7073 9.34306 23.5599 9.3364 22.1247C9.32975 20.6862 8.17807 19.5619 6.71684 19.5718C5.28223 19.5784 4.15053 20.716 4.15718 22.1478H4.15385ZM37.8188 65.4676C36.3576 65.4643 35.2192 66.5886 35.2192 68.0337C35.2192 69.4656 36.3509 70.6031 37.7855 70.6097C39.2367 70.6163 40.3851 69.4788 40.3851 68.037C40.3851 66.6018 39.2567 65.4709 37.8221 65.4676H37.8188ZM77.9145 31.2814C77.9178 29.833 76.7828 28.6987 75.3282 28.6987C73.8869 28.6987 72.7452 29.823 72.7353 31.2483C72.7253 32.6868 73.8736 33.8276 75.3282 33.8276C76.7728 33.8276 77.9111 32.7066 77.9145 31.278V31.2814ZM70.1456 60.1931C70.1456 58.7613 69.0173 57.627 67.5827 57.6171C66.1314 57.6105 64.9831 58.7448 64.9831 60.1898C64.9831 61.6217 66.1181 62.7593 67.546 62.7626C69.0006 62.7659 70.1423 61.6382 70.1456 60.1931ZM25.4998 55.3056C26.9344 55.3089 28.0795 54.1846 28.0961 52.7594C28.1127 51.3242 26.9611 50.1668 25.5131 50.1635C24.0686 50.1602 22.9169 51.3043 22.9202 52.7461C22.9202 54.1714 24.0619 55.3023 25.4998 55.3056ZM49.4487 8.89729C49.4487 7.48196 48.3037 6.33117 46.8758 6.31795C45.4445 6.30472 44.2662 7.46873 44.2662 8.89398C44.2662 10.3258 45.4245 11.4667 46.8758 11.4667C48.307 11.4667 49.4487 10.3258 49.4487 8.89729ZM51.0032 9.27427C50.9998 10.7061 52.1315 11.847 53.5628 11.8536C55.0174 11.8602 56.1657 10.7326 56.1691 9.2875C56.1691 7.85563 55.0473 6.71807 53.6127 6.70485C52.1615 6.69162 51.0098 7.82918 51.0065 9.27096L51.0032 9.27427ZM62.0107 32.9414C63.4519 32.9315 64.6069 31.7675 64.5903 30.3356C64.5737 28.917 63.4087 27.7794 61.984 27.7893C60.5428 27.7992 59.3844 28.9666 59.4044 30.3951C59.4244 31.8138 60.5861 32.9513 62.0107 32.9414ZM18.896 28.4474C18.8993 27.0023 17.761 25.8647 16.3097 25.8647C14.8751 25.8647 13.7367 26.999 13.7334 28.4275C13.7301 29.8693 14.8784 31.0168 16.323 31.0135C17.7543 31.0102 18.8927 29.8759 18.896 28.4474ZM12.7049 36.5326C14.1395 36.5293 15.2779 35.3984 15.2812 33.9698C15.2812 32.5313 14.1295 31.3905 12.6783 31.3971C11.2437 31.4037 10.0986 32.5413 10.0986 33.9632C10.0986 35.3984 11.2503 36.5359 12.7049 36.5326ZM18.3801 61.2282C16.9355 61.2282 15.8038 62.3492 15.7971 63.7811C15.7938 65.2262 16.9355 66.3637 18.3901 66.3604C19.8247 66.3604 20.973 65.2262 20.9797 63.8042C20.9896 62.3724 19.8313 61.2249 18.3801 61.2282ZM35.5887 19.5619C35.5887 18.1333 34.4536 16.9991 33.019 16.9925C31.5778 16.9858 30.4194 18.1366 30.4228 19.5751C30.4261 20.9971 31.5711 22.1445 32.9957 22.1511C34.427 22.1611 35.5887 21.0004 35.5887 19.5619ZM63.5418 59.8029C63.5418 58.3777 62.4034 57.2401 60.9688 57.2302C59.5276 57.2236 58.3726 58.3744 58.3726 59.8129C58.3726 61.2414 59.5109 62.3724 60.9489 62.3757C62.4068 62.379 63.5418 61.2513 63.5418 59.7996V59.8029ZM58.3692 38.4605C59.8105 38.4605 60.9455 37.3461 60.9555 35.9143C60.9655 34.4692 59.8271 33.3316 58.3726 33.3316C56.928 33.3316 55.7929 34.4493 55.7896 35.8812C55.783 37.3362 56.908 38.4605 58.3726 38.4638L58.3692 38.4605ZM46.8458 68.4206C46.8458 66.9788 45.7241 65.8611 44.2762 65.8611C42.8116 65.8611 41.6799 66.9788 41.6799 68.4305C41.6799 69.8756 42.8249 71.0032 44.2828 70.9933C45.7241 70.9834 46.8458 69.8558 46.8425 68.4206H46.8458ZM37.0233 19.9554C37.0233 21.3873 38.155 22.5215 39.5896 22.5281C41.0442 22.5347 42.1892 21.4005 42.1858 19.9554C42.1858 18.5235 41.0608 17.3926 39.6229 17.3794C38.1816 17.3661 37.0233 18.5136 37.0233 19.9554ZM65.7386 27.4057C67.1866 27.4057 68.3216 26.2946 68.3283 24.8628C68.3349 23.4044 67.2132 22.2768 65.752 22.2768C64.3007 22.2768 63.1723 23.3813 63.1623 24.8165C63.1524 26.2682 64.2807 27.4024 65.7386 27.4057ZM39.2234 3.50382C39.2268 2.50515 38.4179 1.69166 37.4194 1.68835C36.4208 1.68505 35.5953 2.49523 35.592 3.48397C35.5887 4.47934 36.3942 5.28621 37.3994 5.29613C38.4013 5.30605 39.2201 4.49918 39.2234 3.50382ZM62.7663 21.6254C63.7715 21.632 64.5836 20.8284 64.587 19.8264C64.5903 18.8311 63.7748 18.0176 62.7762 18.0143C61.781 18.0143 60.9555 18.8278 60.9489 19.8132C60.9422 20.7986 61.7644 21.6154 62.7663 21.622V21.6254ZM28.7319 30.7523C29.7371 30.7523 30.5526 29.952 30.5559 28.9566C30.5592 27.9646 29.7504 27.1511 28.7452 27.1445C27.7399 27.1379 26.9278 27.9414 26.9244 28.9401C26.9211 29.9421 27.7233 30.7456 28.7319 30.749V30.7523ZM75.3215 18.6624C74.313 18.6624 73.5075 19.4627 73.5108 20.468C73.5108 21.4633 74.333 22.2768 75.3282 22.2735C76.3268 22.2669 77.1423 21.4534 77.1423 20.4613C77.1423 19.4693 76.3234 18.6624 75.3215 18.6624ZM57.2076 59.4127C57.2076 58.4075 56.3987 57.6138 55.3902 57.6171C54.3816 57.6204 53.5795 58.4273 53.5828 59.426C53.5861 60.4213 54.4049 61.2282 55.4035 61.2249C56.4054 61.2216 57.2109 60.4114 57.2076 59.4127ZM56.4254 28.1729C55.4202 28.1729 54.6146 28.9831 54.618 29.9818C54.618 30.9804 55.4335 31.7807 56.4387 31.7774C57.4439 31.7741 58.2561 30.9639 58.2494 29.9685C58.2428 28.9732 57.4273 28.1696 56.4254 28.1729ZM9.3131 48.7514C10.325 48.7581 11.1338 47.9644 11.1405 46.9658C11.1471 45.9638 10.345 45.1569 9.33973 45.1503C8.33451 45.1437 7.51902 45.9373 7.50903 46.9393C7.49904 47.938 8.30123 48.7448 9.30978 48.7548L9.3131 48.7514ZM49.1924 63.662C49.1924 62.6667 48.3603 61.8499 47.3617 61.8598C46.3532 61.8664 45.5477 62.6799 45.5577 63.6852C45.5676 64.6739 46.3732 65.4676 47.3651 65.4676C48.3703 65.4676 49.1924 64.6574 49.1891 63.662H49.1924ZM49.0393 27.2768C50.0545 27.2801 50.87 26.4864 50.8767 25.4878C50.88 24.4924 50.0612 23.6789 49.0593 23.6789C48.0507 23.6789 47.2386 24.4858 47.2452 25.4878C47.2486 26.4897 48.0374 27.2701 49.0427 27.2768H49.0393ZM23.6891 47.5874C23.6858 46.5788 22.8769 45.7819 21.8651 45.7885C20.8598 45.7951 20.061 46.6086 20.0676 47.6172C20.0743 48.6026 20.8798 49.3963 21.875 49.3996C22.8902 49.3996 23.6891 48.5993 23.6858 47.5907L23.6891 47.5874ZM28.4789 74.988C29.4708 74.988 30.3029 74.1646 30.2996 73.1758C30.2996 72.1904 29.4941 71.3901 28.5022 71.3736C27.5003 71.3604 26.6715 72.1673 26.6681 73.1659C26.6648 74.1613 27.4803 74.9847 28.4789 74.988ZM60.19 41.0333C60.19 42.0452 60.9921 42.8421 62.004 42.8421C63.0026 42.8421 63.8014 42.0518 63.8081 41.0597C63.8181 40.0445 63.0226 39.2409 62.0107 39.2376C60.9955 39.2343 60.19 40.0247 60.19 41.0333ZM82.8374 31.2516C82.8307 30.2562 82.0053 29.4494 81.0067 29.4626C79.9981 29.4758 79.1993 30.286 79.2093 31.2847C79.2193 32.2866 80.0314 33.0803 81.04 33.0704C82.0452 33.0604 82.8474 32.2503 82.8407 31.2516H82.8374ZM60.9489 72.2863C61.9541 72.2929 62.7663 71.496 62.7762 70.4973C62.7829 69.492 61.9907 68.6884 60.9788 68.6818C59.9736 68.6752 59.1515 69.4755 59.1448 70.4708C59.1381 71.4596 59.9536 72.283 60.9489 72.2896V72.2863ZM48.1506 4.13542C48.1506 5.14071 48.9561 5.94096 49.968 5.94096C50.9632 5.94096 51.7654 5.14732 51.7754 4.15526C51.7854 3.1599 50.9732 2.3365 49.9713 2.33319C48.9628 2.33319 48.1506 3.13345 48.1506 4.13542ZM57.4705 14.9521C57.4739 13.9468 56.6783 13.1466 55.6698 13.14C54.6546 13.1301 53.8557 13.9171 53.8524 14.929C53.8491 15.9409 54.6379 16.7411 55.6465 16.7444C56.6484 16.7478 57.4672 15.9442 57.4705 14.9521ZM1.17148 57.0979C1.16815 58.0933 1.97366 58.9002 2.97888 58.9068C3.9841 58.9134 4.79626 58.1165 4.79959 57.1145C4.80292 56.1158 3.99408 55.3023 2.99219 55.299C1.99696 55.299 1.17148 56.1092 1.16815 57.0979H1.17148ZM12.2988 17.505C12.2988 16.4865 11.5 15.6995 10.4781 15.7094C9.4762 15.7193 8.68401 16.5097 8.68068 17.4984C8.67735 18.5004 9.48952 19.3139 10.4914 19.3172C11.4933 19.3172 12.3021 18.5103 12.2988 17.505ZM38.4446 24.704C38.4412 23.7021 37.6224 22.8952 36.6205 22.9018C35.6219 22.9084 34.8131 23.7318 34.8231 24.7305C34.8298 25.7159 35.6353 26.5096 36.6338 26.5096C37.649 26.5096 38.4512 25.7093 38.4479 24.7007L38.4446 24.704ZM20.9763 67.1309C19.9744 67.1309 19.1523 67.951 19.1589 68.9431C19.1656 69.9318 19.9645 70.7255 20.9597 70.7354C21.9682 70.7453 22.7871 69.9451 22.7904 68.9398C22.7904 67.9378 21.9816 67.1276 20.9763 67.1276V67.1309ZM34.8298 61.2282C33.8179 61.2282 33.0057 62.0218 32.9991 63.0139C32.9957 63.9993 33.8145 64.8161 34.8131 64.8227C35.8183 64.8294 36.6305 64.0291 36.6372 63.0304C36.6438 62.0251 35.845 61.2315 34.8298 61.2282ZM10.3616 68.1627C10.3616 67.164 9.5461 66.3505 8.55087 66.3538C7.55563 66.3538 6.74014 67.1706 6.73681 68.166C6.73681 69.1613 7.54897 69.9682 8.55087 69.9682C9.56274 69.9682 10.3616 69.1712 10.3583 68.1627H10.3616ZM48.2871 85.0011C48.2871 84.0025 47.4649 83.1989 46.4564 83.2022C45.4578 83.2088 44.6623 83.9992 44.6556 84.9912C44.649 85.9932 45.4578 86.8067 46.4664 86.81C47.4683 86.81 48.2871 85.9932 48.2871 84.9978V85.0011ZM21.2393 18.1234C21.226 19.1452 22.0015 19.9389 23.0267 19.9455C24.0319 19.9521 24.8474 19.175 24.8608 18.1928C24.8741 17.1843 24.0819 16.3608 23.0833 16.3476C22.0648 16.3344 21.2559 17.1115 21.2426 18.1234H21.2393ZM80.0115 58.9068C78.9996 58.8936 78.1874 59.6773 78.1708 60.6793C78.1575 61.6845 78.9497 62.4947 79.9582 62.5046C80.9668 62.5146 81.7889 61.7242 81.8022 60.7322C81.8155 59.7368 81.0134 58.92 80.0081 58.9068H80.0115ZM74.4328 43.6093C75.438 43.6027 76.2435 42.7925 76.2402 41.7971C76.2369 40.7985 75.4247 40.0048 74.4128 40.0081C73.401 40.0081 72.6021 40.8117 72.6088 41.817C72.6154 42.8223 73.4243 43.6159 74.4328 43.6093ZM59.927 49.2574C59.927 50.2594 60.7292 51.0629 61.7344 51.0662C62.7463 51.0662 63.5451 50.2792 63.5451 49.2673C63.5451 48.2554 62.7563 47.4618 61.7444 47.4618C60.7325 47.4618 59.9303 48.2554 59.927 49.2607V49.2574ZM53.0802 76.2578C54.0921 76.2545 54.8909 75.451 54.8876 74.449C54.8809 73.4503 54.0688 72.6501 53.0635 72.6567C52.055 72.66 51.2561 73.4635 51.2595 74.4688C51.2628 75.4741 52.065 76.2611 53.0835 76.2578H53.0802ZM75.1984 71.2314C75.1917 70.2294 74.3696 69.4259 73.3643 69.4424C72.3625 69.4589 71.5769 70.2526 71.5769 71.2446C71.5769 72.2466 72.3957 73.0634 73.3943 73.0568C74.3962 73.0502 75.2017 72.2334 75.1984 71.2314ZM72.4856 49.9022C72.4856 50.9108 73.2944 51.7177 74.2997 51.7144C75.2982 51.7111 76.1137 50.891 76.1104 49.8956C76.1071 48.9102 75.3049 48.1165 74.3063 48.1066C73.2878 48.0967 72.4856 48.8903 72.4856 49.9022ZM11.5266 38.7383C11.5366 37.733 10.7311 36.9228 9.72252 36.9195C8.71729 36.9195 7.89514 37.7264 7.89514 38.7218C7.89514 39.7105 8.72395 40.5306 9.72252 40.5273C10.7144 40.524 11.5166 39.7271 11.5266 38.7383ZM22.1413 37.6966C21.1228 37.6966 20.3239 38.4903 20.3273 39.4989C20.3273 40.4975 21.1128 41.2813 22.118 41.2879C23.1432 41.2945 23.9454 40.5108 23.9487 39.5022C23.9487 38.4936 23.1532 37.6966 22.1413 37.6966ZM32.8726 13.6492C32.8726 12.6307 32.0804 11.847 31.0552 11.8536C30.05 11.8569 29.2444 12.6671 29.2511 13.6724C29.2578 14.6578 30.0566 15.4449 31.0585 15.4515C32.0837 15.4548 32.8726 14.671 32.8692 13.6525L32.8726 13.6492ZM27.5902 56.5986C26.5616 56.592 25.7694 57.3691 25.7661 58.3843C25.7628 59.3929 26.5616 60.1931 27.5768 60.1931C28.5721 60.1931 29.3809 59.4028 29.3876 58.4174C29.3942 57.3989 28.612 56.6052 27.5935 56.5986H27.5902ZM32.2368 84.2009C32.2235 85.2128 33.0124 86.0263 34.0209 86.0362C35.0361 86.0461 35.8483 85.2558 35.8549 84.2505C35.8616 83.2452 35.096 82.4582 34.0875 82.4416C33.0556 82.4251 32.2501 83.189 32.2368 84.2009ZM5.96458 27.6504C5.95793 26.6485 5.14243 25.8548 4.13055 25.8647C3.13532 25.8747 2.3398 26.6749 2.3398 27.6637C2.3398 28.6623 3.15529 29.4692 4.16051 29.4659C5.16906 29.4659 5.97124 28.6557 5.96458 27.6471V27.6504Z" fill="#F5FF89"/>
</svg>